<svg width="20" height="20" viewBox="0 0 20 20" fill="none" xmlns="http://www.w3.org/2000/svg">
<path d="M18.7002 11.306H1.30024L0.000244141 9.56603L1.73924 7.82703H18.2642L20.0002 9.56603L18.7002 11.306Z" fill="#12376B"/>
<path d="M17.3942 20H2.60924C2.49496 20.0001 2.38177 19.9777 2.27615 19.934C2.17054 19.8904 2.07458 19.8263 1.99377 19.7455C1.91295 19.6647 1.84887 19.5687 1.8052 19.4631C1.76152 19.3575 1.73911 19.2443 1.73924 19.13V0.870001C1.73911 0.755714 1.76152 0.642523 1.8052 0.53691C1.84887 0.431298 1.91295 0.335337 1.99377 0.254524C2.07458 0.173711 2.17054 0.109632 2.27615 0.0659574C2.38177 0.0222824 2.49496 -0.000131015 2.60924 5.76089e-07H13.0452L18.2632 5.218V19.133C18.2627 19.3631 18.1709 19.5836 18.008 19.7462C17.8451 19.9087 17.6244 20 17.3942 20Z" fill="#E6E6E6"/>
<path d="M13.0452 0V4.348C13.0451 4.46229 13.0675 4.57548 13.1112 4.68109C13.1549 4.7867 13.219 4.88266 13.2998 4.96348C13.3806 5.04429 13.4765 5.10837 13.5822 5.15204C13.6878 5.19572 13.801 5.21813 13.9152 5.218H18.2632L13.0452 0Z" fill="#B3B3B3"/>
<path d="M19.1332 17.394H0.870245C0.755958 17.3941 0.642767 17.3717 0.537155 17.3281C0.431542 17.2844 0.335582 17.2203 0.254768 17.1395C0.173955 17.0587 0.109877 16.9627 0.0662015 16.8571C0.0225266 16.7515 0.000113125 16.6383 0.000244717 16.524V9.56702H20.0002V16.525C20.0002 16.7551 19.909 16.9759 19.7464 17.1388C19.5839 17.3017 19.3634 17.3935 19.1332 17.394Z" fill="#27549B"/>
<path d="M6.32724 13.44C6.34273 13.6801 6.30894 13.9207 6.22794 14.1472C6.14694 14.3737 6.02044 14.5812 5.85624 14.757C5.6777 14.9185 5.46869 15.0426 5.24149 15.1221C5.01429 15.2016 4.77349 15.2349 4.53324 15.22H3.43324V11.805H4.61524C5.07672 11.7751 5.53176 11.9257 5.88424 12.225C6.03929 12.3851 6.15888 12.576 6.23521 12.7853C6.31154 12.9947 6.3429 13.2177 6.32724 13.44ZM5.36924 13.473C5.38925 13.2253 5.32359 12.9782 5.18324 12.773C5.11305 12.6943 5.02563 12.6329 4.92781 12.5935C4.82998 12.5541 4.72438 12.5379 4.61924 12.546H4.35024V14.458H4.55624C4.67095 14.4679 4.78638 14.4509 4.89345 14.4086C5.00051 14.3663 5.09629 14.2997 5.17324 14.214C5.31957 13.9959 5.38857 13.735 5.36924 13.473Z" fill="white"/>
<path d="M10.1332 13.507C10.167 13.9823 10.0154 14.4521 9.71025 14.818C9.54675 14.9752 9.35207 15.0963 9.13881 15.1735C8.92555 15.2506 8.69847 15.2822 8.47225 15.266C8.2468 15.2809 8.02075 15.2484 7.80858 15.1707C7.59642 15.0931 7.40283 14.9719 7.24025 14.815C6.96274 14.4356 6.81317 13.9776 6.81317 13.5075C6.81317 13.0374 6.96274 12.5795 7.24025 12.2C7.40391 12.0427 7.59871 11.9213 7.8121 11.8438C8.0255 11.7663 8.25276 11.7344 8.47925 11.75C8.70483 11.734 8.93126 11.7655 9.14396 11.8423C9.35666 11.9191 9.55093 12.0396 9.71425 12.196C10.0181 12.5625 10.1682 13.0323 10.1332 13.507ZM7.78425 13.507C7.78425 14.1677 8.01391 14.4977 8.47325 14.497C8.57315 14.5043 8.67326 14.4861 8.7642 14.4441C8.85515 14.4021 8.93395 14.3377 8.99325 14.257C9.10541 14.022 9.16362 13.7649 9.16362 13.5045C9.16362 13.2441 9.10541 12.987 8.99325 12.752C8.93544 12.6712 8.85803 12.6064 8.76829 12.5637C8.67855 12.521 8.57943 12.5019 8.48025 12.508C8.01625 12.5087 7.78391 12.8417 7.78325 13.507H7.78425Z" fill="white"/>
<path d="M12.2712 12.5129C12.1695 12.5096 12.0687 12.5327 11.9786 12.5801C11.8885 12.6274 11.8122 12.6973 11.7572 12.7829C11.6222 13.0067 11.5577 13.266 11.5722 13.5269C11.5722 14.1843 11.8222 14.5129 12.3222 14.5129C12.4709 14.5134 12.6188 14.4921 12.7613 14.4499C12.9078 14.4065 13.052 14.3554 13.1932 14.2969V15.0769C12.8879 15.2077 12.5584 15.2725 12.2263 15.2669C12.008 15.2812 11.7893 15.2487 11.5847 15.1714C11.3802 15.0941 11.1945 14.9739 11.0402 14.8189C10.7424 14.4539 10.595 13.9889 10.6282 13.5189C10.6214 13.1969 10.6898 12.8778 10.8282 12.5869C10.953 12.3279 11.1531 12.1125 11.4022 11.9689C11.6719 11.8201 11.9763 11.7456 12.2842 11.7529C12.6505 11.7521 13.0122 11.8342 13.3422 11.9929L13.0552 12.7209C12.9325 12.6631 12.8063 12.613 12.6772 12.5709C12.5458 12.5306 12.4088 12.511 12.2712 12.5129Z" fill="white"/>
<path d="M16.9312 15.2201H15.8622L15.1962 14.1521L14.5382 15.2201H13.4952L14.6272 13.4731L13.5622 11.8051H14.5862L15.2032 12.8611L15.7962 11.8051H16.8502L15.7692 13.5451L16.9312 15.2201Z" fill="white"/>
</svg>
