<svg width="100" height="20" viewBox="0 0 100 20" fill="none" xmlns="http://www.w3.org/2000/svg">
<path d="M42.9676 16.7932C42.9676 17.3388 42.6446 17.6114 41.999 17.6114C41.3754 17.6114 41.0638 17.3388 41.0638 16.7932V15.3903L41.0471 12.9018C40.7687 12.9018 40.4151 12.9018 39.9867 12.9018C39.5579 12.9018 39.0431 12.9077 38.4418 12.9185C37.8405 12.9298 37.3172 12.9352 36.8719 12.9352C36.4264 12.9352 36.0479 12.9352 35.7363 12.9352L35.7696 16.8432C35.7696 17.3555 35.4411 17.6114 34.7841 17.6114C34.1718 17.6114 33.8656 17.35 33.8656 16.8265C33.8656 16.604 33.8683 16.2646 33.8739 15.8079C33.8794 15.3515 33.8877 14.7725 33.899 14.0711C33.9098 12.6905 33.9098 11.6216 33.899 10.8645L33.8322 7.04016C33.8322 6.47223 34.1603 6.18836 34.8175 6.18836C35.4188 6.18836 35.7194 6.42779 35.7194 6.90647V8.67681C35.7194 9.1 35.7194 9.52298 35.7194 9.94617C35.7194 10.3695 35.7248 10.8036 35.7361 11.2489H36.2704H37.356H38.7923H40.2452L41.097 11.2322V8.99367V7.05645C41.108 6.44429 41.4253 6.13791 42.0489 6.13791C42.6611 6.13791 42.9674 6.43846 42.9674 7.03977C42.9674 7.95288 42.9674 8.81574 42.9674 9.62834C42.9674 10.4411 42.9618 11.2149 42.9507 11.9497L42.9676 16.7932Z" fill="#649E0F"/>
<path d="M44.6402 16.7845C44.6402 16.562 44.7346 16.2445 44.924 15.8326L46.5774 11.9913L48.6316 6.86425C48.8095 6.43001 49.1603 6.21289 49.6836 6.21289C50.2624 6.21289 50.6355 6.44127 50.8026 6.89763C50.8915 7.12038 51.0281 7.45993 51.2116 7.91629C51.3954 8.37304 51.6208 8.95165 51.888 9.65326C52.4224 11.0452 52.7899 11.9805 52.9903 12.459C53.0014 12.4702 53.0404 12.5424 53.1073 12.6761C53.1851 12.8321 53.2297 12.9324 53.2408 12.9766C53.7862 14.3686 54.2371 15.4707 54.5936 16.2833C54.6937 16.5061 54.7438 16.7067 54.7438 16.8846C54.7438 17.0627 54.6436 17.2354 54.4432 17.4023C54.2428 17.5694 54.0031 17.6528 53.7251 17.6528C53.48 17.6528 53.2909 17.6027 53.1574 17.5024C53.0239 17.4023 52.9069 17.2298 52.8066 16.9847C52.2497 15.5708 51.9658 14.8027 51.9548 14.68C51.7652 14.669 51.4287 14.6634 50.9442 14.6634C50.4597 14.6634 49.8336 14.6634 49.0654 14.6634H47.4288C47.4063 14.7192 47.3645 14.8304 47.3034 14.9975C47.2421 15.1645 47.1614 15.3873 47.0613 15.6655C46.961 15.944 46.8746 16.1778 46.8024 16.367C46.7299 16.5563 46.666 16.7121 46.6103 16.8346C46.4877 17.113 46.3709 17.308 46.2595 17.4192C46.1369 17.5416 45.9644 17.6029 45.7419 17.6029C45.4522 17.6029 45.2017 17.5306 44.9902 17.3858C44.7785 17.2413 44.6729 17.0241 44.6729 16.7344L44.6402 16.7845ZM49.6838 8.46734C49.6058 8.70115 49.4221 9.21339 49.1328 10.0039C48.8431 10.7946 48.4422 11.8743 47.9303 13.2438C48.6318 13.2438 49.2664 13.2411 49.8344 13.2355C50.4021 13.23 50.92 13.2217 51.3874 13.2104L49.7007 8.46734H49.6838Z" fill="#649E0F"/>
<path d="M63.6269 6.62612C64.1835 6.88243 64.462 7.19967 64.462 7.57804C64.4395 7.85647 64.3673 8.07359 64.2449 8.22921C64.1114 8.40752 63.9164 8.48552 63.6602 8.46301C63.4486 8.46301 63.2035 8.39064 62.9254 8.24589C62.3018 7.97871 61.6838 7.84502 61.0717 7.84502C60.1473 7.84502 59.3347 8.24589 58.6333 9.04744C57.9429 9.83812 57.5867 10.8457 57.5645 12.0703C57.5535 13.1725 57.8985 14.1023 58.5999 14.8595C59.3013 15.6168 60.1473 15.9951 61.1384 15.9951C61.8507 16.0176 62.5356 15.8339 63.1926 15.4441C63.2483 15.422 63.3096 15.3886 63.3764 15.344C63.4431 15.2995 63.4934 15.2662 63.5267 15.2436C63.5601 15.2326 63.6102 15.2159 63.6769 15.1936C63.766 15.1715 63.844 15.1602 63.9107 15.1602C64.1333 15.1602 64.3116 15.2603 64.4451 15.4608C64.5786 15.6612 64.6455 15.8839 64.6455 16.1288C64.6232 16.5295 64.2223 16.897 63.4431 17.2311C62.6416 17.5652 61.8065 17.7265 60.938 17.7154C59.5126 17.6929 58.2832 17.1754 57.25 16.1622C56.2236 15.1379 55.7162 13.7853 55.7273 12.1038C55.7383 11.202 55.9036 10.3669 56.224 9.59868C56.5329 8.83051 56.9466 8.19583 57.465 7.69484C57.9765 7.20511 58.5607 6.8153 59.2179 6.5258C59.8526 6.24756 60.5206 6.10825 61.222 6.10825C62.1681 6.13075 62.9809 6.28113 63.6602 6.55918L63.6269 6.62612Z" fill="#649E0F"/>
<path d="M75.5358 16.7943C75.5358 17.3399 75.2127 17.6125 74.5671 17.6125C73.9435 17.6125 73.6319 17.3399 73.6319 16.7943V15.3914L73.6152 12.903C73.3368 12.903 72.9833 12.903 72.5548 12.903C72.126 12.903 71.6113 12.9088 71.01 12.9197C70.4087 12.9309 69.8854 12.9364 69.4401 12.9364C68.9946 12.9364 68.616 12.9364 68.3044 12.9364L68.3378 16.8443C68.3378 17.3566 68.0093 17.6125 67.3523 17.6125C66.7399 17.6125 66.4337 17.3512 66.4337 16.8277C66.4337 16.6051 66.4364 16.2657 66.4421 15.809C66.4475 15.3526 66.4559 14.7736 66.4671 14.0722C66.478 12.6917 66.478 11.6228 66.4671 10.8656L66.4004 7.04129C66.4004 6.47335 66.7285 6.18949 67.3857 6.18949C67.987 6.18949 68.2875 6.42892 68.2875 6.9076V8.67794C68.2875 9.10112 68.2875 9.52411 68.2875 9.9473C68.2875 10.3707 68.2929 10.8047 68.3042 11.25H68.8386H69.9242H71.3604H72.8133L73.6651 11.2333V8.9948V7.05758C73.6762 6.44541 73.9934 6.13904 74.617 6.13904C75.2292 6.13904 75.5356 6.43959 75.5356 7.0409C75.5356 7.95401 75.5356 8.81687 75.5356 9.62947C75.5356 10.4423 75.5299 11.2161 75.5189 11.9509L75.5358 16.7943Z" fill="#649E0F"/>
<path d="M78.355 10.6817C78.355 10.4258 78.3521 9.99697 78.3466 9.39586C78.341 8.79455 78.3327 8.00426 78.3216 7.02421C78.3216 6.73491 78.4153 6.51216 78.6029 6.35616C78.7793 6.21161 79.0114 6.13904 79.2984 6.13904C79.563 6.13904 79.7784 6.20579 79.9437 6.33947C80.109 6.47316 80.1921 6.66797 80.1921 6.92409V10.9825V12.3519V13.6213L80.2087 16.6775C80.2198 16.9893 80.1426 17.2231 79.9769 17.3789C79.8224 17.5236 79.5962 17.596 79.2984 17.596C79.0114 17.596 78.7797 17.5236 78.6031 17.3789C78.4264 17.2343 78.3383 17.0172 78.3383 16.7275V16.0261V15.2413L78.3717 10.6652L78.355 10.6817Z" fill="#649E0F"/>
<path d="M85.7788 7.87887C85.1441 7.87887 84.5318 8.174 83.9417 8.76405C83.6633 9.04248 83.3627 9.1816 83.0398 9.1816C82.8282 9.1816 82.6392 9.09817 82.4721 8.93111C82.305 8.76405 82.2216 8.56361 82.2216 8.3298C82.2216 7.98482 82.4554 7.61751 82.923 7.22751C83.7469 6.48165 84.6821 6.10853 85.7287 6.10853C86.8085 6.09747 87.7362 6.40909 88.5115 7.04376C89.2727 7.67844 89.6534 8.51336 89.6534 9.5489C89.6534 9.80522 89.6367 10.039 89.6039 10.2503C89.5706 10.462 89.4877 10.6846 89.3556 10.9184C89.2229 11.1522 89.1239 11.3359 89.0575 11.4694C88.9803 11.6144 88.8259 11.8146 88.5942 12.0707C88.4725 12.2042 88.3705 12.3129 88.2878 12.3965C88.2052 12.4799 88.1471 12.5383 88.1142 12.5719C88.0808 12.6053 88.0119 12.672 87.9069 12.7724C87.802 12.8727 87.6603 13.0062 87.4824 13.1732C87.3043 13.3401 87.1652 13.4738 87.0648 13.5739C86.9645 13.6742 86.8978 13.741 86.8644 13.7743L84.6598 15.845C85.1385 15.8675 86.0737 15.8675 87.4655 15.845C87.6326 15.845 87.854 15.8423 88.1301 15.8367C88.4062 15.8313 88.7372 15.8229 89.1235 15.8117C89.366 15.8117 89.5649 15.8953 89.72 16.0624C89.8758 16.2405 89.9538 16.4463 89.9538 16.6803C89.9538 17.304 89.6437 17.6043 89.0242 17.5822H88.0806H87.0311C86.285 17.5822 85.5919 17.5822 84.9518 17.5822C84.3115 17.5822 83.7186 17.5764 83.1731 17.5655C82.8835 17.5655 82.6442 17.471 82.455 17.2816C82.2767 17.1037 82.1879 16.8587 82.1879 16.5468C82.1879 16.1349 82.4158 15.7009 82.8726 15.2441L85.9123 12.3381L86.2295 12.0207C86.3184 11.9318 86.3882 11.8594 86.4383 11.8036C86.4884 11.7479 86.5245 11.7091 86.547 11.6865C86.5691 11.6644 86.6054 11.6281 86.6554 11.5779C86.7055 11.5278 86.7641 11.4638 86.8308 11.3858C86.8976 11.308 86.9562 11.244 87.0062 11.1937C87.0563 11.1435 87.0924 11.1017 87.1149 11.0684C87.1593 11.0127 87.2373 10.918 87.3487 10.7845C87.449 10.6733 87.5158 10.5732 87.5491 10.4839C87.5713 10.4395 87.5936 10.392 87.6159 10.3421C87.638 10.292 87.6603 10.2393 87.6826 10.1834C87.7383 10.061 87.7717 9.9554 87.7829 9.86615C87.794 9.81046 87.8023 9.7604 87.808 9.71577C87.8134 9.67134 87.8163 9.62128 87.8163 9.56559C87.8163 9.05354 87.6267 8.64161 87.2484 8.32961C86.8586 8.00674 86.3743 7.84531 85.7955 7.84531L85.7788 7.87887Z" fill="#EA2229"/>
<path d="M96.3172 11.5192C96.3172 10.8512 96.5844 10.517 97.1187 10.517C97.4302 10.517 97.6531 10.584 97.7868 10.7175C97.9203 10.8622 97.9981 11.0739 98.0204 11.3521L98.0037 13.6068L99.1727 13.5901C99.7182 13.579 99.9912 13.8295 99.9912 14.3416C99.9912 14.954 99.7349 15.2601 99.2228 15.2601H98.0037V16.7967C97.9814 17.0751 97.909 17.2755 97.7868 17.398C97.664 17.5206 97.4468 17.5926 97.1354 17.6151C96.5564 17.6151 96.2669 17.3425 96.2669 16.7969V16.0452V15.2603H94.1627H92.1084C91.7854 15.2603 91.5405 15.1602 91.3735 14.9598C91.2066 14.7593 91.123 14.5255 91.123 14.2583C91.123 13.8464 91.2508 13.4345 91.5071 13.0224C91.9969 12.1764 92.5229 11.2299 93.0854 10.1833C93.6475 9.13688 94.2628 7.97871 94.9308 6.70955C95.1421 6.30887 95.4429 6.10825 95.8327 6.10825C96.0774 6.10825 96.3112 6.19187 96.5341 6.35874C96.7567 6.5258 96.8682 6.70955 96.8682 6.90979C96.8682 7.02136 96.8236 7.19366 96.7347 7.42747C96.5898 7.69465 96.4173 8.00646 96.2171 8.3627C96.0166 8.71913 95.7828 9.12 95.5156 9.56511C95.2485 10.0104 95.0257 10.3863 94.8476 10.6924C94.6695 10.9988 94.5358 11.2351 94.4469 11.4022L93.2276 13.6568L96.3341 13.6235L96.3508 11.5192H96.3172Z" fill="#EA2229"/>
<path d="M20.9042 0C15.4552 0 11.0381 4.47708 11.0381 10C11.0381 15.5229 15.4552 20 20.9042 20C26.353 20 30.7702 15.5229 30.7702 10C30.7702 4.47708 26.353 0 20.9042 0ZM20.6675 18.602C15.9601 18.602 12.1443 14.7961 12.1443 10.1013C12.1443 5.40669 15.9603 1.60076 20.6675 1.60076C25.3747 1.60076 29.1907 5.40669 29.1907 10.1013C29.1907 14.7961 25.3747 18.602 20.6675 18.602Z" fill="#649E0F"/>
<path d="M21.1612 10.2148C21.1612 10.5759 20.8684 10.8687 20.5073 10.8687C20.1462 10.8687 19.8534 10.5759 19.8534 10.2148V5.88561C19.8534 5.52451 20.1462 5.23172 20.5073 5.23172C20.8684 5.23172 21.1612 5.52451 21.1612 5.88561V10.2148Z" fill="#649E0F"/>
<path d="M20.4262 10.8669C20.1099 10.8669 19.8534 10.5741 19.8534 10.213C19.8534 9.85191 20.1099 9.55911 20.4262 9.55911H24.2185C24.5348 9.55911 24.7913 9.85191 24.7913 10.213C24.7913 10.5741 24.5348 10.8669 24.2185 10.8669H20.4262Z" fill="#649E0F"/>
<path d="M20.9004 3.20849C20.9004 2.91939 20.666 2.685 20.3769 2.685C20.0878 2.685 19.8534 2.91939 19.8534 3.20849V3.80728C19.8534 4.09658 20.0878 4.33077 20.3769 4.33077C20.666 4.33077 20.9004 4.09638 20.9004 3.80728V3.20849Z" fill="#649E0F"/>
<path d="M20.9004 16.2063C20.9004 15.9172 20.666 15.6828 20.3769 15.6828C20.0878 15.6828 19.8534 15.9172 19.8534 16.2063V16.8051C19.8534 17.0942 20.0878 17.3286 20.3769 17.3286C20.666 17.3286 20.9004 17.0942 20.9004 16.8051V16.2063Z" fill="#649E0F"/>
<path d="M27.3548 10.5293C27.6439 10.5293 27.8783 10.2949 27.8783 10.0058C27.8783 9.71647 27.6439 9.48227 27.3548 9.48227H26.7558C26.4667 9.48227 26.2323 9.71666 26.2323 10.0058C26.2323 10.2949 26.4667 10.5293 26.7558 10.5293H27.3548Z" fill="#649E0F"/>
<path d="M14.3578 10.5297C14.6469 10.5297 14.8813 10.2953 14.8813 10.0062C14.8813 9.71686 14.6469 9.48267 14.3578 9.48267H13.7588C13.4697 9.48267 13.2353 9.71706 13.2353 10.0062C13.2353 10.2953 13.4697 10.5297 13.7588 10.5297H14.3578Z" fill="#649E0F"/>
<path d="M8.83872 10.6129C8.83872 11.0861 8.45512 11.4697 7.98188 11.4697H0.856844C0.3836 11.4697 0 11.0861 0 10.6129C0 10.1396 0.3836 9.75601 0.856844 9.75601H7.98188C8.45512 9.75601 8.83872 10.1396 8.83872 10.6129Z" fill="#649E0F"/>
<path d="M9.74278 16.1739C9.74278 16.6302 9.37296 17.0003 8.9164 17.0003H3.32383C2.86747 17.0003 2.49745 16.6302 2.49745 16.1739C2.49745 15.7173 2.86747 15.3475 3.32383 15.3475H8.9166C9.37296 15.3475 9.74278 15.7173 9.74278 16.1739Z" fill="#649E0F"/>
<path d="M10.4638 13.3045C10.4638 13.8357 10.033 14.2665 9.50175 14.2665H6.22475C5.6933 14.2665 5.26274 13.8357 5.26274 13.3045C5.26274 12.7732 5.69349 12.3425 6.22475 12.3425H9.50175C10.033 12.3425 10.4638 12.7732 10.4638 13.3045Z" fill="#649E0F"/>
</svg>
