<svg width="166" height="51" viewBox="0 0 166 51" fill="none" xmlns="http://www.w3.org/2000/svg">
<path d="M43.0588 18.9075C42.8613 18.7854 42.6505 18.6854 42.4302 18.6095C42.412 18.4728 42.3911 18.3812 42.3911 18.3429C42.3911 17.9239 42.8241 17.5971 43.6824 17.3572C44.2449 17.2083 44.8242 17.1284 45.4069 17.1193C45.6274 17.1154 45.8451 17.1687 46.0378 17.2738C46.2305 17.3788 46.3913 17.5319 46.5041 17.7174V17.9847C46.5084 18.1157 46.5196 18.2465 46.5376 18.3764V19.0599C46.5376 19.6362 46.488 20.4899 46.3979 21.6164C46.3078 22.7429 46.2582 23.5898 46.2582 24.166C46.6396 24.166 47.1263 24.1906 47.7305 24.2344C48.5239 24.2911 49.0302 24.3246 49.2391 24.3246C50.2244 24.3801 51.2121 24.2682 52.1584 23.9938C52.2288 23.9664 52.2929 23.9258 52.3472 23.8742C52.4015 23.8226 52.4448 23.761 52.4748 23.693C52.4748 23.7497 52.5216 23.4572 52.6243 22.7962L52.7241 22.1126C52.7437 21.8884 52.7584 21.7312 52.7744 21.6342C52.78 21.5303 52.8073 21.3293 52.8443 21.0326C53.0119 19.4386 53.0999 18.6348 53.0999 18.6108C53.2661 17.7954 54.0532 17.3866 55.4528 17.3866C55.9794 17.3866 56.2386 17.5343 56.2386 17.8357V18.0175C55.6719 20.9422 55.2517 23.1316 54.9779 24.5857L54.0386 30.862C53.9846 31.1806 53.8669 31.4856 53.6921 31.7595C53.5174 32.0334 53.289 32.2708 53.0203 32.4581C52.4795 32.8747 51.8116 33.1019 51.1234 33.1034C51.126 33.0133 51.1351 32.9235 51.1506 32.8347C51.1904 32.1382 51.2142 31.7787 51.2142 31.7547C51.2365 31.5408 51.2973 31.16 51.4069 30.6207C51.7394 28.6091 51.9887 27.0916 52.1563 26.0827L51.5278 25.7819H46.1954C46.0892 25.7819 45.9858 25.8851 45.8783 26.0827C45.7448 26.3701 45.6393 26.6692 45.5633 26.9761C45.381 27.974 45.2637 28.7198 45.2197 29.2188L44.9361 31.4567C44.5408 32.534 43.5686 33.0733 42.0195 33.0747C42.0926 30.9888 42.323 28.9111 42.7089 26.8585C43.0983 24.8086 43.3305 22.733 43.4038 20.6492C43.4623 20.0482 43.3426 19.4435 43.0588 18.9075Z" fill="#221F1F"/>
<path d="M59.4198 24.8283C60.0572 24.009 60.8778 23.3433 61.8186 22.8821C62.7595 22.421 63.7957 22.1767 64.8479 22.168C65.9197 22.223 66.9773 22.4335 67.9859 22.7927C68.2198 22.8761 68.3309 23.073 68.3309 23.3922V23.5412C68.3119 23.5886 68.3008 23.6387 68.298 23.6895C68.025 24.5036 67.7554 25.3246 67.4844 26.1428C67.1965 26.9498 67.0377 27.7955 67.0137 28.65C67.0595 29.2827 67.3584 29.8722 67.8455 30.2905C68.2721 30.6206 68.5684 31.0855 68.6836 31.6057C68.695 31.7582 68.6711 31.9112 68.6137 32.0534C67.8382 32.5094 66.9451 32.7377 66.0408 32.711C64.9233 32.711 64.3248 31.8962 64.2186 30.2618C63.5278 31.0307 62.6773 31.6464 61.7239 32.0678C60.7991 32.5932 59.7636 32.9044 58.6969 32.9776C57.7513 32.9776 57.2812 32.4116 57.2812 31.2769V30.35C57.2832 28.316 58.0436 26.3525 59.4198 24.8283ZM60.29 29.6651C60.4618 30.2639 60.7657 30.5592 61.205 30.5592C61.7327 30.5047 62.2465 30.3594 62.7226 30.1299C63.4287 29.8367 63.8233 29.5865 63.9043 29.3637C63.969 29.026 64.021 28.7275 64.0601 28.4682C64.146 27.933 64.1998 27.6295 64.2179 27.5748L65.1608 24.8851C65.1643 24.8142 65.175 24.7439 65.1929 24.6752V24.4373C65.1929 23.7196 64.4875 23.3608 63.0851 23.3608C62.8941 23.3379 62.7004 23.3553 62.5169 23.4119C62.3334 23.4685 62.1644 23.5629 62.0214 23.6889C60.8074 24.9527 60.1239 26.6174 60.107 28.352C60.0999 28.7962 60.1616 29.239 60.29 29.6651Z" fill="#221F1F"/>
<path d="M70.8781 31.042C70.8585 30.7241 70.8467 30.4856 70.8467 30.3242V29.5122C70.8467 29.3167 70.8585 29.1198 70.8781 28.9189V28.56L70.9151 28.1745C70.9389 28.0691 70.9797 27.968 71.0359 27.8751C71.3921 27.2162 71.6694 26.7165 71.8531 26.3795C73.5991 23.7704 75.5701 22.4648 77.7896 22.4648H78.2338C79.023 22.4648 79.4211 22.6603 79.4211 23.0657C79.4211 23.9003 79.1718 24.322 78.6668 24.322C78.2978 24.2848 77.9409 24.1721 77.6192 23.9912C77.2979 23.8095 76.9408 23.697 76.5716 23.661C76.3336 23.6524 76.0966 23.6963 75.8783 23.7894C75.66 23.8825 75.4658 24.0225 75.3102 24.199C74.4545 25.1756 74.0259 26.6094 74.0245 28.5005C74.0208 28.9553 74.0858 29.4082 74.2172 29.8444C74.3883 30.5232 74.6475 30.8615 75.0051 30.8615H77.4188C77.4188 31.4186 76.8433 31.9237 75.6944 32.3885C74.884 32.7457 74.0109 32.947 73.1228 32.9812C71.9257 32.9812 71.1889 32.5793 70.9228 31.7508C70.9151 31.5997 70.906 31.3619 70.8781 31.042Z" fill="#221F1F"/>
<path d="M84.4476 17.3848C84.9693 17.3848 85.2298 17.5433 85.2298 17.8632V18.015C84.956 19.1688 84.6892 20.3308 84.414 21.5093C84.1424 22.6662 83.9934 23.8475 83.9692 25.0343V25.4752C84.2695 25.1813 84.5942 24.8778 84.9539 24.5558C86.2474 23.3387 87.4491 22.7301 88.5591 22.7301C88.9443 22.7123 89.3261 22.8075 89.6556 23.0035C90.0599 23.3262 90.3276 23.784 90.4071 24.2886C90.4511 24.7869 90.5028 25.2865 90.5671 25.7814C90.5671 25.7377 90.6195 26.4404 90.7249 27.8751C90.7864 29.1103 90.8388 29.8055 90.88 29.9654C90.8914 30.172 90.9672 30.3702 91.0972 30.5334C91.465 30.9247 91.7351 31.394 91.8864 31.9046C91.892 32.0122 91.8718 32.1195 91.8274 32.218C91.783 32.3165 91.7157 32.4035 91.6308 32.472C90.9866 32.8668 90.2285 33.0456 89.4713 32.9812H89.0927C88.9028 32.9628 88.7701 32.9525 88.6814 32.9525C88.5217 32.6756 88.4163 32.3719 88.3706 32.0571L88.1778 30.8C87.7364 28.0918 87.4899 26.4185 87.4256 25.7814C87.155 25.4425 86.8382 25.1414 86.4841 24.8867L86.422 24.858H86.2711C86.2417 24.8731 86.2098 24.8828 86.1768 24.8867C86.0902 24.9664 85.9438 25.0958 85.7375 25.2749C84.9378 26.0316 84.3533 26.5969 83.9699 26.9756C83.685 27.4086 83.5049 27.8996 83.4432 28.411L83.2198 29.396C83.0347 30.3311 82.8642 31.2177 82.7155 32.0557C82.2378 32.7333 81.3815 33.0723 80.1467 33.0728V32.7707C80.1467 32.634 80.1565 32.4139 80.1761 32.1131C80.197 31.8226 80.2103 31.5984 80.2103 31.4549C80.3332 30.3612 80.4896 29.2675 80.6789 28.1738L81.2146 24.886C81.6937 21.8941 81.9877 19.7081 82.0869 18.3096C82.4026 17.6951 83.1918 17.3848 84.4476 17.3848Z" fill="#221F1F"/>
<path d="M95.9736 23.4224C96.7029 23.1016 97.5005 22.9578 98.2987 23.0033C98.2829 23.677 98.1987 24.3474 98.0472 25.0048C97.895 25.6617 97.7497 26.3206 97.6051 26.9754C97.5423 27.3172 97.4753 27.996 97.3817 29.011C97.343 29.6846 97.2495 30.3541 97.1023 31.0131C96.6881 32.3884 95.6768 33.074 94.0872 33.074C94.0686 32.6331 94.0891 32.1915 94.1487 31.7541L94.4658 30.5606C94.7111 29.1284 94.8781 28.0347 94.9665 27.2796L95.2159 25.2775C95.3046 24.6623 95.3625 24.2344 95.4058 23.9938C95.5396 23.7572 95.7357 23.5599 95.9736 23.4224ZM96.589 19.2828C96.6533 19.1631 96.7493 19.0626 96.8671 18.9919C96.9848 18.9212 97.1199 18.8828 97.258 18.8809C97.6872 18.8792 98.1123 18.961 98.5089 19.1215C98.9978 19.3402 99.2394 19.6157 99.2394 19.9554C99.2512 20.1081 99.2273 20.2615 99.1696 20.4038C98.4959 20.5871 97.8035 20.6967 97.1051 20.7306C96.5764 20.7306 96.3152 20.5255 96.3152 20.1031C96.3205 19.809 96.4159 19.5232 96.589 19.2828Z" fill="#221F1F"/>
<path d="M107.901 18.9074C107.709 18.7836 107.502 18.6835 107.284 18.6093C107.266 18.5214 107.254 18.4323 107.248 18.3427C107.248 17.9237 107.68 17.597 108.539 17.3571C109.104 17.2076 109.684 17.1277 110.269 17.1192C110.489 17.1171 110.705 17.1712 110.897 17.2761C111.089 17.3809 111.25 17.533 111.363 17.7173V17.9846C111.363 18.0864 111.373 18.2115 111.39 18.3762V19.0598C111.39 19.636 111.346 20.4898 111.246 21.6162C111.156 22.7352 111.106 23.5896 111.106 24.1659C111.483 24.1659 111.973 24.1905 112.583 24.2342C113.385 24.291 113.878 24.3244 114.095 24.3244C115.077 24.3797 116.062 24.2678 117.006 23.9936C117.077 23.9673 117.141 23.9271 117.196 23.8753C117.25 23.8236 117.293 23.7615 117.322 23.6929C117.393 23.3974 117.445 23.0979 117.478 22.796L117.578 22.1125C117.601 21.8883 117.612 21.7311 117.628 21.634C117.64 21.4321 117.666 21.2311 117.705 21.0325C117.872 19.4385 117.957 18.6346 117.957 18.6107C118.117 17.7952 118.905 17.3865 120.306 17.3865C120.834 17.3865 121.096 17.5341 121.096 17.8356V18.0174C120.527 20.9423 120.1 23.1337 119.834 24.5856L118.889 30.8619C118.835 31.1804 118.718 31.4854 118.543 31.7593C118.369 32.0333 118.141 32.2707 117.872 32.458C117.33 32.8777 116.658 33.1051 115.967 33.1032C115.967 33.0629 115.989 32.9774 116.001 32.8346C116.044 32.1381 116.07 31.7785 116.07 31.7546C116.088 31.5406 116.149 31.1599 116.249 30.6206C116.588 28.6089 116.843 27.0914 117.004 26.0825L116.378 25.7818H111.049C110.942 25.7818 110.832 25.885 110.725 26.0825C110.592 26.369 110.49 26.6685 110.421 26.9759C110.266 27.7172 110.149 28.4657 110.072 29.2186L109.792 31.4566C109.399 32.5338 108.42 33.0745 106.873 33.0745C106.943 30.9884 107.175 28.9104 107.565 26.8584C107.955 24.8086 108.185 22.7329 108.254 20.649C108.317 20.047 108.194 19.4403 107.901 18.9074Z" fill="#221F1F"/>
<path d="M124.269 24.8283C124.909 24.0096 125.73 23.3445 126.672 22.8834C127.613 22.4224 128.65 22.1777 129.702 22.168C130.776 22.2242 131.835 22.4347 132.845 22.7927C132.961 22.8429 133.056 22.9286 133.117 23.0368C133.178 23.1451 133.201 23.2699 133.183 23.3922V23.5412C133.164 23.5885 133.155 23.6388 133.155 23.6895C132.885 24.5036 132.605 25.3246 132.333 26.1428C132.048 26.9505 131.891 27.796 131.867 28.65C131.889 28.9642 131.974 29.271 132.118 29.5526C132.262 29.8343 132.462 30.0851 132.705 30.2905C133.122 30.6264 133.412 31.0895 133.528 31.6057C133.541 31.7574 133.521 31.9101 133.468 32.0534C132.693 32.5091 131.8 32.7373 130.896 32.711C129.785 32.711 129.173 31.8962 129.068 30.2618C128.38 31.0316 127.531 31.6475 126.579 32.0678C125.653 32.5947 124.615 32.906 123.546 32.9776C122.606 32.9776 122.135 32.4107 122.134 31.2769V30.35C122.136 28.3165 122.895 26.3533 124.269 24.8283ZM125.151 29.6658C125.319 30.2646 125.619 30.5599 126.059 30.5599C126.591 30.5043 127.109 30.359 127.59 30.1306C128.288 29.8373 128.672 29.5872 128.765 29.3643C128.827 29.0267 128.871 28.728 128.921 28.4689C129.005 27.9337 129.055 27.6302 129.072 27.5755L130.021 24.8857C130.026 24.8153 130.036 24.7452 130.049 24.6759V24.438C130.049 23.7203 129.348 23.3614 127.944 23.3614C127.753 23.3388 127.56 23.3563 127.377 23.4129C127.194 23.4695 127.025 23.5638 126.883 23.6895C125.666 24.9521 124.979 26.617 124.96 28.3527C124.952 28.7973 125.017 29.2403 125.151 29.6651V29.6658Z" fill="#221F1F"/>
<path d="M135.736 31.042C135.713 30.7241 135.708 30.4856 135.708 30.3242V29.5122C135.706 29.3141 135.715 29.116 135.736 28.9189V28.56L135.763 28.1745C135.79 28.0692 135.833 27.9684 135.89 27.8751C136.246 27.2162 136.519 26.7165 136.712 26.3795C138.445 23.7702 140.421 22.4653 142.64 22.4648H143.079C143.872 22.4648 144.267 22.6603 144.267 23.0657C144.267 23.9003 144.022 24.322 143.522 24.322C143.15 24.286 142.79 24.1732 142.466 23.9912C142.142 23.8083 141.782 23.6957 141.41 23.661C141.174 23.6526 140.939 23.6967 140.722 23.7898C140.506 23.883 140.314 24.0229 140.161 24.199C139.299 25.1756 138.868 26.6094 138.867 28.5005C138.864 28.9553 138.929 29.4079 139.059 29.8444C139.222 30.5232 139.489 30.8615 139.843 30.8615H142.259C142.259 31.4186 141.689 31.9237 140.539 32.3885C139.726 32.7463 138.85 32.9475 137.96 32.9812C136.766 32.9812 136.033 32.5793 135.761 31.7508C135.763 31.5997 135.757 31.3619 135.736 31.042Z" fill="#221F1F"/>
<path d="M149.301 17.3848C149.824 17.3848 150.081 17.5433 150.081 17.8632V18.015C149.812 19.1688 149.534 20.3308 149.27 21.5093C148.999 22.6663 148.852 23.8476 148.83 25.0343V25.4752C149.124 25.1813 149.439 24.8778 149.801 24.5558C151.096 23.3387 152.302 22.7301 153.419 22.7301C153.803 22.713 154.184 22.8082 154.513 23.0035C154.914 23.3288 155.181 23.7854 155.264 24.2886C155.308 24.7869 155.357 25.2865 155.424 25.7814C155.424 25.7377 155.468 26.4404 155.579 27.8751C155.594 28.5742 155.648 29.272 155.741 29.9654C155.743 30.1724 155.817 30.3726 155.95 30.5334C156.314 30.9263 156.582 31.3952 156.734 31.9046C156.739 32.0114 156.72 32.118 156.677 32.2163C156.634 32.3146 156.568 32.402 156.486 32.472C155.839 32.8662 155.08 33.0449 154.321 32.9812H153.944C153.749 32.9628 153.614 32.9525 153.538 32.9525C153.378 32.6749 153.271 32.3716 153.22 32.0571L153.031 30.8C152.594 28.0918 152.34 26.419 152.27 25.7814C152.004 25.4416 151.69 25.1403 151.337 24.8867L151.276 24.858H151.116C151.087 24.8754 151.054 24.8853 151.019 24.8867C150.943 24.9666 150.792 25.0958 150.588 25.2749C149.787 26.0316 149.198 26.5969 148.826 26.9756C148.539 27.4083 148.355 27.899 148.288 28.411L148.07 29.396C147.887 30.3311 147.71 31.2177 147.569 32.0557C147.08 32.7331 146.231 33.0728 144.993 33.0728V32.7707C144.993 32.634 145.004 32.4139 145.021 32.1131C145.049 31.8226 145.054 31.5984 145.054 31.4549C145.177 30.3612 145.338 29.2675 145.533 28.1738L146.061 24.886C146.538 21.8941 146.837 19.7081 146.942 18.3096C147.258 17.6951 148.047 17.3848 149.301 17.3848Z" fill="#221F1F"/>
<path d="M160.831 23.4223C161.557 23.1019 162.352 22.9581 163.147 23.0033C163.129 23.6765 163.047 24.3466 162.901 25.0048C162.752 25.6616 162.607 26.3206 162.457 26.9754C162.387 27.3172 162.324 27.9959 162.241 29.011C162.196 29.684 162.102 30.353 161.961 31.0131C161.793 31.6529 161.397 32.2126 160.843 32.5907C160.29 32.9687 159.616 33.1402 158.945 33.074C158.927 32.6332 158.947 32.1916 159.005 31.7541L159.324 30.5606C159.567 29.1252 159.735 28.0315 159.817 27.2796L160.078 25.2775C160.148 24.6623 160.217 24.2344 160.256 23.9938C160.395 23.7591 160.593 23.5625 160.831 23.4223ZM161.447 19.2828C161.509 19.1633 161.603 19.0626 161.719 18.9918C161.835 18.9209 161.969 18.8826 162.106 18.8809C162.539 18.8797 162.968 18.9615 163.369 19.1215C163.846 19.3402 164.084 19.6157 164.084 19.9554C164.095 20.1069 164.077 20.2591 164.029 20.4038C163.355 20.5864 162.662 20.696 161.963 20.7305C161.435 20.7305 161.169 20.5255 161.169 20.1031C161.172 19.808 161.27 19.5213 161.447 19.2828Z" fill="#221F1F"/>
<path d="M96.7033 21.1888L95.5034 19.2496L96.7033 17.3145H99.1115L100.309 19.2496L99.1115 21.1888H96.7033Z" fill="#8AC440"/>
<path d="M161.552 21.1888L160.357 19.2496L161.552 17.3145H163.956L165.157 19.2496L163.956 21.1888H161.552Z" fill="#8AC440"/>
<path d="M29.6994 26.5035C29.5028 26.3591 29.2726 26.2648 29.0295 26.229C28.7865 26.1932 28.5381 26.2171 28.3068 26.2984C26.5112 24.0045 23.2593 23.6094 23.2593 23.6094L22.9192 25.8405L27.4058 28.0469C27.49 28.3473 27.6737 28.6118 27.9282 28.7988C28.2391 29.0287 28.6304 29.1283 29.0163 29.0758C29.4022 29.0232 29.7509 28.8228 29.9858 28.5186C30.2206 28.2144 30.3224 27.8313 30.2687 27.4537C30.215 27.076 30.0102 26.7347 29.6994 26.5049V26.5035Z" fill="black"/>
<path fill-rule="evenodd" clip-rule="evenodd" d="M15.6551 19.4845C16.0895 19.4354 16.5294 19.5016 16.9286 19.6764C17.3277 19.8512 17.6714 20.128 17.9235 20.4777C15.6551 24.5749 17.1553 29.7117 17.7713 31.7897L15.7326 32.1315C13.8511 28.4636 12.8363 21.6678 15.6551 19.4845Z" fill="#8AC440"/>
<path fill-rule="evenodd" clip-rule="evenodd" d="M9.16586 22.3931C9.27761 21.5195 10.4118 20.9904 12.8807 19.6035C11.6236 22.687 12.007 28.4793 13.9814 32.0755C12.6684 32.3708 12.0957 31.6517 11.0963 31.5286C10.3532 30.3215 8.05398 29.8861 9.16586 22.3931Z" fill="#8AC440"/>
<path fill-rule="evenodd" clip-rule="evenodd" d="M5.56836 27.1346C7.48341 26.5645 8.06241 24.5132 8.01701 24.8495C7.6252 27.652 8.35084 28.8141 8.64068 29.2372C7.55004 28.6344 6.5212 27.9303 5.56836 27.1346Z" fill="#8AC440"/>
<path d="M30.6137 19.2262C29.8105 22.4799 22.834 21.6467 23.9299 18.959C23.4521 20.3411 22.1775 20.1743 22.1873 21.0212C22.2763 21.4562 22.4727 21.8633 22.7594 22.2069C23.0461 22.5506 23.4144 22.8203 23.8321 22.9926C24.6218 23.2432 25.4722 23.2432 26.2619 22.9926C26.7193 22.3904 32.0042 21.2646 30.6137 19.2262ZM23.5352 20.7342C24.1443 21.8183 25.546 21.8039 26.5978 22.2803C25.3078 23.8074 21.7536 21.9919 23.5352 20.7342Z" fill="black"/>
<path d="M30.5262 13.2136C29.1873 15.9163 33.7186 15.1699 31.5438 13.0488L30.5262 13.2136Z" fill="black"/>
<path d="M28.954 9.41515C28.287 7.86692 29.2334 4.93178 30.0198 3.4273C31.5563 3.76907 33.3889 2.18324 32.6786 0.593318C32.1765 -0.267949 31.198 0.621343 30.4437 1.34522C29.6894 2.06909 27.5565 6.90996 28.1075 10.5799C26.9872 9.93224 25.7257 9.55456 24.4269 9.47804C23.755 7.06444 24.1545 5.39386 24.4702 3.65834C26.0968 3.15183 28.5398 0.934407 26.5151 0.071773C24.4904 -0.790861 23.132 6.57092 23.7983 9.41105C22.6228 9.72686 21.6 10.441 20.9124 11.4261C21.2246 3.52436 10.7219 0.821626 7.9296 7.07128C-5.11959 6.89424 0.0375124 22.6876 8.41151 22.0409C7.73754 24.4012 6.76186 26.5523 3.71886 27.2618C5.47747 27.7683 9.3348 31.2073 10.3426 31.7596C11.3504 32.3119 15.008 33.7986 18.2347 32.3932C18.3095 32.4452 19.7433 31.4212 20.1302 31.1977C20.8133 30.7862 21.4403 30.2917 21.9964 29.726C22.2981 29.3104 23.0342 28.4273 22.9839 27.5045C24.5519 27.132 24.9563 27.0035 25.7776 26.2789C26.6108 25.5489 27.8966 23.7614 27.4042 23.8974C26.9118 24.0335 24.746 24.6158 21.504 22.9603C23.3778 23.6753 25.2419 24.3957 27.569 23.6705C28.7186 23.4429 31.0164 23.0225 32.048 22.7286C32.0541 22.732 32.0607 22.7346 32.0675 22.7361C32.1311 22.7135 32.1793 22.6903 32.2428 22.6677C32.3301 22.6377 32.4076 22.6083 32.467 22.5823C37.0479 20.7497 35.2802 16.5999 35.0854 16.1829C37.1513 12.8069 34.4491 7.13826 28.954 9.41515ZM32.1478 0.802483C33.0914 1.20441 31.3496 3.54418 30.1518 2.92968C29.6657 2.66925 31.4033 0.801798 32.1443 0.805216L32.1478 0.802483ZM26.3838 0.602888C27.0215 1.22355 26.0283 2.58517 25.1232 2.89823C24.2173 3.2277 25.756 -0.0211904 26.3838 0.605621V0.602888ZM24.9276 10.4145C29.8989 10.8574 28.1704 17.2417 25.5122 17.846C20.1491 19.0641 19.202 9.91072 24.9276 10.4172V10.4145ZM8.29976 21.3704C4.58489 20.2165 0.831616 18.9096 0.407678 14.1214C-0.424134 4.78208 16.3686 6.29614 14.8055 18.5849C11.5299 18.7455 10.4879 20.4571 8.29976 21.3731V21.3704ZM5.56895 27.1203C7.48401 26.5496 8.06858 24.4989 8.0197 24.838C7.63138 27.6344 8.35144 28.8025 8.64826 29.2222C7.5546 28.6221 6.52329 27.919 5.56895 27.1231V27.1203ZM11.0941 31.5128C10.3615 30.3091 8.0595 29.8764 9.17137 22.3806C9.28102 21.5064 10.4125 20.9787 12.88 19.5884C11.6228 22.6739 12.009 28.4676 13.9793 32.0631C12.6697 32.3611 12.0998 31.6413 11.0941 31.5155V31.5128ZM17.7731 31.7773L15.7386 32.1109C13.8529 28.4539 12.8367 21.6527 15.6583 19.4715C16.0925 19.4225 16.5322 19.4888 16.9312 19.6635C17.3302 19.8381 17.6738 20.1146 17.926 20.464C15.6617 24.5605 17.155 29.7014 17.7731 31.7801V31.7773ZM17.354 19.1919C16.8129 18.8653 16.1737 18.73 15.543 18.8084C15.0828 12.1712 12.1816 8.89703 8.27043 7.00839C15.9579 -2.4676 24.9332 13.8432 17.3547 19.1946L17.354 19.1919ZM31.7134 22.2426C30.9787 22.4804 28.5936 22.8455 27.8826 23.0211C27.3453 23.239 26.7773 23.3756 26.198 23.4265C25.6278 23.4357 25.0575 23.4142 24.4897 23.3622C23.823 23.2074 23.1659 23.0155 22.5216 22.7874C20.0506 22.3458 18.4421 17.8549 20.6359 15.9143C22.3533 18.2384 23.3855 19.0217 25.6253 18.5118C26.7931 18.2459 27.7723 16.4044 28.4001 16.3449C28.9773 16.8308 29.655 17.1886 30.3868 17.3938C31.1186 17.599 31.8871 17.6467 32.6395 17.5336C33.1843 17.3726 33.7037 17.1386 34.183 16.8385C34.2117 16.82 34.2375 16.8063 34.2612 16.7879C35.804 20.4653 32.4642 21.9603 31.7141 22.2453L31.7134 22.2426ZM28.6802 15.9539C29.2072 14.2899 29.0861 12.4939 28.3401 10.9121C36.5583 4.68297 37.863 21.6062 28.6809 15.9581L28.6802 15.9539Z" fill="black"/>
<path d="M24.0897 13.6367L23.0686 13.8069C21.7298 16.5056 26.2618 15.7571 24.0897 13.6367Z" fill="black"/>
<path d="M30.6576 30.2559C26.1738 30.7349 21.8294 32.0698 17.8704 34.1849C17.8704 34.1849 19.1603 40.6977 19.8441 40.6144C20.5278 40.531 30.497 39.883 31.5726 39.2972C31.9971 39.0656 32.3528 38.73 32.6048 38.3233C32.8568 37.9166 32.9964 37.4527 33.0099 36.9772C33.209 34.6831 33.1875 32.3758 32.9456 30.0857C32.8926 29.64 30.6576 30.2559 30.6576 30.2559ZM32.551 36.9485C32.5367 37.3992 32.4036 37.8386 32.1647 38.2243C31.9259 38.6099 31.5894 38.9286 31.1877 39.1495C30.1708 39.6964 20.7373 40.3115 20.0899 40.3929C19.4425 40.4742 18.223 34.3093 18.223 34.3093C21.9688 32.3076 26.0788 31.0432 30.321 30.5874C30.321 30.5874 32.4337 30.0085 32.4924 30.4275C32.7145 32.5949 32.7342 34.7776 32.551 36.9485Z" fill="#8AC440"/>
<path d="M28.516 30.485C26.2762 30.7585 20.4912 31.4618 20.4912 31.4618C19.0385 32.2889 17.1389 34.3614 18.3339 34.3279C19.5288 34.2944 30.4967 32.846 30.4967 32.846C31.3797 32.1343 32.1605 31.3093 32.8183 30.3934C33.3016 29.4686 30.76 30.2116 28.516 30.485ZM32.1715 30.485C31.5671 31.3245 30.8499 32.0804 30.0393 32.7325C30.0393 32.7325 19.973 34.0614 18.88 34.0942C17.787 34.127 19.5253 32.2267 20.8537 31.4646C20.8537 31.4646 26.1617 30.8214 28.2185 30.5678C30.2753 30.3142 32.6136 29.6368 32.1715 30.485Z" fill="#8AC440"/>
<path d="M28.2187 30.5677C26.1639 30.8213 20.8539 31.4645 20.8539 31.4645C19.5269 32.2266 17.785 34.1303 18.8801 34.0941C19.9753 34.0578 30.0394 32.7325 30.0394 32.7325C30.85 32.0803 31.5672 31.3244 32.1717 30.485C32.6138 29.636 30.2825 30.3202 28.2187 30.5677Z" fill="white"/>
<path d="M30.2344 33.082L31.0131 38.9523L32.2891 36.6563L31.0711 37.1272L30.2344 33.082Z" fill="#8AC440"/>
<path d="M28.5442 33.1191L29.6148 37.8848C29.6148 37.8848 28.4862 37.191 28.5442 33.1191Z" fill="#8AC440"/>
<path d="M21.8115 34.6543L22.929 39.8328C22.929 39.8328 21.7927 39.0638 21.8115 34.6543Z" fill="#8AC440"/>
<path d="M22.6397 33.9023L23.4966 37.0466C23.4966 37.0466 22.4106 36.6249 22.6397 33.9023Z" fill="#8AC440"/>
<path d="M27.3946 34.0801L28.5247 39.2641C28.5247 39.2641 27.3814 38.4971 27.3946 34.0801Z" fill="#8AC440"/>
<path d="M26.2616 34.2207L27.3791 39.402C27.3791 39.402 26.2463 38.6398 26.2616 34.2207Z" fill="#8AC440"/>
<path d="M25.1275 34.3613L26.2449 39.5406C26.2449 39.5406 25.1072 38.7777 25.1275 34.3613Z" fill="#8AC440"/>
<path d="M19.1909 36.5241L27.6417 35.0449C27.6417 35.0449 26.3196 36.2261 19.1909 36.5241Z" fill="#8AC440"/>
<path d="M20.2336 37.7542L30.0813 36.1055C30.0813 36.1055 28.5259 37.3106 20.2336 37.7542Z" fill="#8AC440"/>
<path d="M20.5837 39.0722L30.2582 37.4453C30.2582 37.4453 28.7217 38.6449 20.5837 39.0722Z" fill="#8AC440"/>
<path d="M27.4539 28.9466C27.2173 28.9095 26.9751 28.9272 26.7468 28.9985C26.5185 29.0697 26.3105 29.1924 26.1395 29.3567L21.5048 27.7422L20.124 29.4921C20.124 29.4921 22.8199 31.6486 25.851 31.1257C25.9716 31.3539 26.1498 31.5481 26.3688 31.6897C26.5877 31.8313 26.8401 31.9157 27.1019 31.9348C27.3636 31.9538 27.626 31.907 27.864 31.7986C28.1019 31.6903 28.3076 31.5241 28.4613 31.3159C28.6151 31.1077 28.7117 30.8644 28.7421 30.6092C28.7725 30.3541 28.7356 30.0956 28.6349 29.8583C28.5343 29.6211 28.3732 29.4131 28.1671 29.2541C27.9609 29.0951 27.7166 28.9904 27.4574 28.95L27.4539 28.9466Z" fill="black"/>
<path d="M23.8032 33.6604L24.5232 33.5742C24.5232 33.5742 24.3836 28.9043 25.4382 28.6309C25.4333 28.6035 24.4799 28.5215 24.4799 28.5215C23.813 30.1265 23.5412 31.8625 23.6865 33.5893" fill="#8AC440"/>
<path d="M25.9748 26.5805C26.1697 27.5504 25.0885 28.5792 23.5506 28.871C22.0127 29.1629 20.6173 28.6147 20.4252 27.6454C20.2332 26.6762 21.3115 25.6454 22.8445 25.3494C24.3775 25.0534 25.7744 25.6057 25.9748 26.5805Z" fill="black"/>
<path d="M82.6568 47.8311C82.6408 47.9553 82.6626 48.0814 82.7194 48.1936C82.7761 48.3058 82.8654 48.3991 82.976 48.462C83.4488 48.691 83.9076 48.4408 84.0501 47.8311C84.1089 47.4132 84.1446 46.9924 84.157 46.5707L84.2666 44.5508H85.4497C85.4497 44.5508 85.3855 47.0751 85.3401 47.4545C85.2981 47.9901 85.0559 48.4918 84.6597 48.8636C84.2634 49.2354 83.741 49.4511 83.1925 49.4696C82.8997 49.5124 82.6005 49.4686 82.3334 49.3438C82.0594 49.2305 81.8287 49.0356 81.6743 48.7868C81.5198 48.5379 81.4494 48.2478 81.473 47.9576L82.6568 47.8311ZM89.2072 44.6766C89.5927 44.578 89.9908 44.5356 90.3889 44.5508C90.5069 44.5534 90.6213 44.5909 90.717 44.6583C90.8128 44.7258 90.8854 44.8201 90.9253 44.9288C91.0322 45.1817 92.0009 49.3438 92.0009 49.3438H90.604L90.4951 48.3335L88.6673 48.5885L88.4578 49.3438H87.061C87.2726 48.8434 88.455 45.9377 89.2044 44.6766H89.2072ZM90.3889 47.5782C90.2433 46.9389 90.0633 46.3076 89.8497 45.6868L89.0983 47.5782H90.3889ZM94.9482 47.9576L94.9 49.3438H93.7127L94.0361 44.9288C94.8107 44.7369 95.6007 44.6104 96.3974 44.5508C96.7881 44.5581 97.1656 44.6909 97.4716 44.9288C97.7407 45.149 97.9245 45.4531 97.992 45.79C98.0595 46.127 98.0067 46.4764 97.8424 46.7798C97.632 47.1152 97.315 47.3738 96.9401 47.516C96.2997 47.7512 95.6296 47.8998 94.9482 47.9576ZM95.1151 45.5604L95.0055 47.0738C95.4702 47.0426 95.9264 46.9361 96.3555 46.7586C96.5132 46.676 96.6381 46.5441 96.7103 46.3839C96.7825 46.2237 96.7977 46.0445 96.7536 45.8748C96.734 45.7945 96.6979 45.7191 96.6475 45.6529C96.5971 45.5868 96.5334 45.5314 96.4604 45.4902C96.3874 45.449 96.3065 45.4228 96.2228 45.4133C96.1391 45.4037 96.0542 45.411 95.9735 45.4346L95.1151 45.5604ZM100.055 47.5782C100.467 46.587 100.933 45.6184 101.452 44.6766C101.66 44.6076 101.876 44.5654 102.094 44.5508H102.634C102.752 44.5537 102.866 44.5913 102.962 44.6587C103.057 44.7262 103.13 44.8203 103.171 44.9288C103.367 45.3743 103.511 45.8406 103.598 46.3184L104.243 49.3438H102.956L102.848 48.3335L101.023 48.5885L100.808 49.3438H99.411C99.6255 48.8434 99.8392 48.2098 100.056 47.5782H100.055ZM102.633 47.5782C102.522 47.1995 102.522 46.8208 102.416 46.5707C102.416 46.4449 102.31 46.192 102.207 45.6868L101.348 47.5782H102.633ZM106.391 44.5508H107.249C107.384 44.537 107.52 44.5663 107.636 44.6345C107.753 44.7026 107.844 44.8059 107.895 44.9288L108.967 47.1995L109.184 44.5508H110.366C110.297 45.3205 110.152 48.462 110.152 49.3438H108.965L107.246 45.9377L107.14 49.3438H105.959C106.007 47.7392 106.151 46.1388 106.391 44.5508ZM115.736 48.2098C116.959 48.8646 117.46 48.7238 117.668 48.5885C117.732 48.5466 117.783 48.4902 117.819 48.4241C117.855 48.3581 117.874 48.2845 117.874 48.2098C117.874 48.1351 117.855 48.0615 117.819 47.9954C117.783 47.9294 117.732 47.873 117.668 47.8311C117.529 47.7429 116.175 47.0642 116.058 46.9466C115.835 46.7349 115.701 46.4499 115.681 46.1467C115.661 45.8436 115.757 45.5441 115.95 45.3061C116.104 45.0802 116.311 44.8937 116.554 44.762C116.797 44.6303 117.069 44.5572 117.346 44.5487C117.913 44.4712 118.489 44.6062 118.959 44.9267C119.026 44.9934 119.079 45.0724 119.115 45.1592C119.151 45.246 119.169 45.3389 119.169 45.4326V46.0635H118.096V45.5583C118.096 45.4326 117.987 45.3348 117.774 45.3061C117.67 45.291 117.563 45.3005 117.463 45.3336C117.364 45.3667 117.273 45.4226 117.2 45.4965C117.127 45.5705 117.072 45.6605 117.042 45.7591C117.011 45.8577 117.004 45.962 117.023 46.0635C117.098 46.3232 118.096 46.8154 118.096 46.8154C118.847 47.1941 119.239 47.5673 119.169 48.2043C119.134 48.4774 119.011 48.7326 118.818 48.9326C118.625 49.1327 118.372 49.2671 118.095 49.3165C117.149 49.4851 116.172 49.3601 115.301 48.959L115.736 48.2098ZM121.643 44.5508H122.824L122.615 46.8208H124.332L124.541 44.5508H125.725C125.725 45.4346 125.508 48.3335 125.508 49.3438H124.218L124.322 47.7716C123.746 47.7587 123.17 47.8213 122.611 47.9576V49.4696H121.214L121.643 44.5508ZM130.88 48.8434C130.684 49.0401 130.45 49.1967 130.192 49.3042C129.933 49.4117 129.656 49.4679 129.375 49.4696C129.092 49.4874 128.809 49.44 128.548 49.3312C128.287 49.2225 128.055 49.0554 127.872 48.8434C127.664 48.5293 127.528 48.175 127.472 47.8047C127.416 47.4343 127.443 47.0566 127.549 46.6971C127.917 44.6526 129.347 44.5679 129.806 44.5508C130.133 44.5139 130.465 44.5572 130.771 44.6766C131.017 44.7915 131.227 44.9694 131.378 45.1914C131.53 45.4133 131.617 45.6712 131.631 45.9377C131.709 47.8332 131.218 48.3937 130.88 48.8434ZM128.732 47.7047C128.732 48.2098 128.973 48.5502 129.375 48.5885C129.554 48.6014 129.733 48.5598 129.887 48.4694C130.04 48.3789 130.162 48.2441 130.234 48.0833C130.419 47.6814 130.705 45.9534 130.342 45.5604C129.946 45.1318 129.155 45.5201 129.012 46.125C128.861 46.64 128.768 47.1697 128.735 47.7047H128.732ZM143.767 44.6766L144.841 45.0573C144.229 46.5242 143.761 48.0449 143.444 49.5988L142.155 49.2194L143.767 44.6766ZM146.13 45.8126L147.741 49.0936L146.561 49.5988C146.13 48.4752 145.628 47.3793 145.056 46.3177L146.13 45.8126ZM150.64 46.5707L150.963 45.6868L149.139 46.0655L148.709 45.181C149.461 45.0566 150.106 44.9281 150.75 44.8016C151.394 44.6752 152.147 44.6759 153.005 44.5501L153.542 45.3075L151.502 45.5597L151.932 45.6862L151.715 46.57H153.756V47.4538H151.607L151.287 49.974L149.999 49.7197L150.426 47.4538L148.385 47.8304V46.8215L150.64 46.5707ZM156.01 44.6766L157.087 45.0573C156.472 46.5232 156.004 48.0442 155.69 49.5988L154.508 49.2194L156.01 44.6766ZM158.373 45.8126L159.983 49.0936L158.911 49.5988C158.588 48.9644 158.373 48.3335 158.159 47.8311C157.915 47.3047 157.628 46.7988 157.3 46.3184L158.373 45.8126ZM162.993 46.5707L163.208 45.6868L161.488 46.0655L160.953 45.1817C161.703 45.0573 162.454 44.9288 163.1 44.8023C163.637 44.6765 164.391 44.6766 165.356 44.5508L165.893 45.3081L163.853 45.5604L164.174 45.6868L164.068 46.5707H166V47.4545H163.853L163.531 49.9747L162.349 49.7204L162.777 47.4545L160.629 47.8311V46.8215L162.993 46.5707ZM134.811 47.9432L134.762 49.3267H133.582L133.903 44.9144C134.678 44.7199 135.469 44.5934 136.267 44.5364C136.657 44.544 137.034 44.6768 137.339 44.9144C137.608 45.1355 137.792 45.4401 137.859 45.7775C137.927 46.115 137.874 46.4649 137.71 46.7689C137.499 47.1033 137.182 47.3607 136.808 47.5016C136.165 47.7352 135.494 47.8837 134.811 47.9432ZM134.977 45.5447L134.872 47.0587C135.336 47.0248 135.791 46.9186 136.221 46.7443C136.378 46.6611 136.502 46.5291 136.574 46.3692C136.646 46.2093 136.661 46.0305 136.617 45.8611C136.597 45.781 136.561 45.7056 136.511 45.6396C136.46 45.5735 136.397 45.5182 136.324 45.477C136.251 45.4357 136.17 45.4094 136.087 45.3997C136.003 45.3899 135.918 45.3969 135.838 45.4203L134.977 45.5447Z" fill="#278F45"/>
<path d="M7.57426 48.3987C7.26797 48.5053 6.94531 48.5599 6.62022 48.56C6.40128 48.5762 6.18135 48.5454 5.97585 48.4697C5.77035 48.394 5.58424 48.2753 5.43055 48.1218C5.27686 47.9683 5.15931 47.7838 5.08613 47.5812C5.01294 47.3786 4.9859 47.1628 5.00688 46.9489C4.98442 46.7342 5.01002 46.5173 5.0819 46.3133C5.15378 46.1093 5.27021 45.9231 5.4231 45.7676C5.57599 45.6121 5.76167 45.4911 5.9672 45.4129C6.17273 45.3348 6.39319 45.3015 6.61324 45.3152C6.94193 45.3131 7.26774 45.3754 7.57146 45.4984L7.80753 44.6111C7.41423 44.4516 6.99053 44.3765 6.56505 44.391C6.20255 44.3652 5.83857 44.4148 5.49709 44.5366C5.15562 44.6585 4.84442 44.8498 4.584 45.0979C4.32359 45.3461 4.11988 45.6454 3.98631 45.9763C3.85274 46.3071 3.79234 46.6619 3.8091 47.0172C3.78988 47.3564 3.84608 47.6956 3.97381 48.0114C4.10155 48.3272 4.29777 48.6122 4.54896 48.8466C4.80014 49.081 5.1003 49.2592 5.42871 49.3691C5.75713 49.4789 6.10598 49.5177 6.45121 49.4828C6.89291 49.4997 7.33351 49.4283 7.74607 49.2729L7.57426 48.3987ZM12.5742 43.6952C12.6714 43.8417 12.7257 44.0114 12.7314 44.186C12.7314 44.3767 12.6489 44.4717 12.3423 44.4717H11.4742V47.3139C11.4742 48.1854 11.1446 48.5962 10.546 48.5962C9.96214 48.5962 9.63249 48.1642 9.63249 47.3139V44.4724H8.48709V47.2271C8.48709 48.8013 9.23579 49.4903 10.5083 49.4903C11.8255 49.4903 12.6119 48.765 12.6119 47.2414V45.0657L12.739 45.0513C12.8466 45.0555 12.9539 45.0376 13.054 44.9988C13.1542 44.96 13.2448 44.901 13.3203 44.8258C13.3957 44.7506 13.4543 44.6608 13.4921 44.5622C13.53 44.4635 13.5463 44.3582 13.5401 44.253C13.5391 44.0158 13.4827 43.782 13.3753 43.5694L12.5742 43.6952ZM10.9874 44.2372C11.1893 43.8709 11.5566 43.7902 11.5566 43.3582C11.5432 43.1819 11.4595 43.0179 11.3236 42.9014C11.1878 42.7849 11.0106 42.7253 10.8303 42.7355C10.6363 42.7317 10.4457 42.7848 10.2829 42.888C10.1201 42.9912 9.99256 43.1397 9.91674 43.3145L10.2757 43.527C10.3456 43.4245 10.4706 43.2782 10.6124 43.2782C10.6417 43.2778 10.6707 43.2833 10.6978 43.2943C10.7248 43.3053 10.7493 43.3216 10.7696 43.3423C10.79 43.3629 10.8058 43.3874 10.8161 43.4142C10.8264 43.4411 10.831 43.4697 10.8296 43.4983C10.8296 43.7403 10.5753 43.7984 10.4629 44.1286L10.9874 44.2372ZM16.3394 48.1417L16.7284 49.4096H17.9562L16.3917 44.4724H14.8943L13.3529 49.4096H14.5354L14.8943 48.1423L16.3394 48.1417ZM15.0592 47.307L15.3588 46.2592C15.4412 45.9734 15.5159 45.5995 15.5907 45.307H15.6053C15.6801 45.6002 15.7702 45.9666 15.8596 46.2592L16.1738 47.307H15.0592ZM20.1415 44.4724V49.4096H21.2869V47.344H23.1657V49.4096H24.3034V44.4724H23.1657V46.3699H21.2869V44.4724H20.1415ZM27.9219 48.1423L28.3081 49.4096H29.5359L27.9715 44.4724H26.4741L24.932 49.4096H26.1144L26.4734 48.1423H27.9219ZM26.6389 47.307L26.9385 46.2592C27.0209 45.9734 27.0957 45.5995 27.1704 45.307H27.1851C27.2598 45.6002 27.3499 45.9666 27.4393 46.2592L27.7536 47.307H26.6389ZM25.9503 43.3069L26.8638 44.1955H27.7773L27.1487 43.3069H25.9503ZM31.2575 49.4096V47.9222C31.2575 47.1163 31.2428 46.4184 31.2128 45.7684L31.2352 45.7609C31.4959 46.3569 31.7887 46.9389 32.1124 47.5046L33.1886 49.4096H34.3864V44.4724H33.3388V45.9153C33.3314 46.6029 33.3636 47.2902 33.4352 47.9742H33.4128C33.1764 47.393 32.9014 46.8277 32.5894 46.2817L31.5418 44.4724H30.2092V49.4096H31.2575ZM39.5854 46.5818H37.7067V47.4533H38.4854V48.4868C38.3054 48.5449 38.1159 48.5697 37.9267 48.56C37.7095 48.5709 37.4925 48.536 37.2903 48.4575C37.0881 48.3791 36.9056 48.259 36.7551 48.1053C36.6045 47.9517 36.4895 47.7682 36.4179 47.5672C36.3463 47.3663 36.3197 47.1526 36.3399 46.9407C36.3236 46.7237 36.3559 46.5059 36.4346 46.3024C36.5133 46.0989 36.6364 45.9147 36.7954 45.7626C36.9543 45.6106 37.1453 45.4943 37.3549 45.422C37.5646 45.3497 37.7878 45.323 38.0091 45.3439C38.412 45.3309 38.813 45.4035 39.1845 45.5565L39.4241 44.6624C38.9804 44.4886 38.5049 44.4062 38.0273 44.4204C36.3727 44.4197 35.1498 45.3583 35.1421 46.9994C35.1271 47.3305 35.1826 47.661 35.305 47.97C35.4274 48.279 35.614 48.5598 35.8531 48.7944C36.1332 49.0325 36.4586 49.2139 36.8107 49.3283C37.1627 49.4426 37.5344 49.4877 37.9043 49.4609C38.4759 49.452 39.0427 49.3582 39.5854 49.1827V46.5818ZM43.0391 49.4096V47.9222C43.0391 47.1163 43.0244 46.4184 42.9944 45.7684L43.0167 45.7609C43.277 46.3568 43.5693 46.9389 43.8925 47.5046L44.9702 49.4096H46.168V44.4724H45.1204V45.9153C45.113 46.6029 45.1452 47.2902 45.2167 47.9742H45.1944C44.958 47.393 44.6829 46.8277 44.371 46.2817L43.3233 44.4724H41.9908V49.4096H43.0391ZM47.1562 44.4724V49.4096H48.3016V47.344H50.1804V49.4096H51.3188V44.4724H50.1797V46.3699H48.3009V44.4724H47.1562ZM54.9331 48.1423L55.3221 49.4096H56.5499L54.9855 44.4724H53.4881L51.9474 49.4096H53.1298L53.4888 48.1423H54.9331ZM53.6529 47.307L53.9525 46.2592C54.0349 45.9734 54.1097 45.5995 54.1844 45.307H54.1991C54.2738 45.6002 54.3639 45.9666 54.4533 46.2592L54.7676 47.307H53.6529ZM53.8478 43.3069L53.0991 44.2085H53.8925L54.2668 43.7547H54.2815L54.6558 44.2085H55.4569L54.7005 43.3069H53.8478ZM54.2067 50.9989C54.3406 50.9973 54.4683 50.944 54.5622 50.8507C54.6561 50.7574 54.7086 50.6315 54.7082 50.5006C54.7104 50.4349 54.699 50.3694 54.6747 50.3081C54.6505 50.2468 54.6139 50.1909 54.5671 50.1438C54.5203 50.0967 54.4642 50.0592 54.4023 50.0337C54.3404 50.0082 54.2739 49.9952 54.2067 49.9954C54.0708 49.9954 53.9404 50.0483 53.8442 50.1424C53.7481 50.2365 53.6941 50.3641 53.6941 50.4971C53.6941 50.6302 53.7481 50.7578 53.8442 50.8519C53.9404 50.946 54.0708 50.9989 54.2067 50.9989ZM57.5752 49.4096H58.722V45.4095H60.0979V44.4724H56.2203V45.4102H57.5752V49.4096ZM62.2141 49.3878C62.6234 49.4404 63.036 49.4648 63.4489 49.4609C64.1422 49.5282 64.839 49.3712 65.4324 49.0139C65.5962 48.8904 65.7286 48.7316 65.8195 48.5499C65.9103 48.3681 65.9571 48.1683 65.9562 47.966C65.9578 47.6816 65.8591 47.4054 65.6768 47.184C65.4944 46.9626 65.2396 46.8095 64.9554 46.7506V46.7363C65.1914 46.6713 65.3997 46.5336 65.5494 46.3436C65.6991 46.1537 65.7822 45.9215 65.7865 45.6816C65.7877 45.4811 65.7316 45.2842 65.6244 45.1133C65.5173 44.9423 65.3634 44.8042 65.1802 44.7144C64.7195 44.4886 64.2038 44.3923 63.6905 44.4362C63.1964 44.4308 62.7026 44.4648 62.2141 44.538V49.3878ZM63.3441 45.2783C63.506 45.2559 63.6695 45.2461 63.833 45.2489C64.3491 45.2489 64.6411 45.4464 64.6411 45.8203C64.6411 46.1942 64.3191 46.4287 63.7206 46.4287H63.3462L63.3441 45.2783ZM63.3441 47.2271H63.7331C64.3023 47.2271 64.7584 47.4246 64.7584 47.9229C64.7584 48.4431 64.3016 48.6338 63.7855 48.6338C63.6382 48.6379 63.4908 48.6331 63.3441 48.6195V47.2271ZM69.3246 48.143L69.7157 49.4096H70.9443L69.3798 44.4724H67.8824L66.3403 49.4096H67.522L67.881 48.1423L69.3246 48.143ZM68.0465 47.307L68.3462 46.2592C68.4286 45.9734 68.5033 45.5995 68.578 45.307H68.5927C68.6674 45.6002 68.7575 45.9666 68.8469 46.2592L69.1612 47.307H68.0465ZM68.93 44.2372C69.1395 43.8709 69.4992 43.7902 69.4992 43.3582C69.4858 43.1819 69.4021 43.0179 69.2663 42.9014C69.1304 42.7849 68.9532 42.7253 68.7729 42.7355C68.579 42.7317 68.3883 42.7848 68.2255 42.888C68.0627 42.9912 67.9352 43.1397 67.8594 43.3145L68.2183 43.527C68.2882 43.4245 68.4132 43.2782 68.555 43.2782C68.5843 43.2778 68.6133 43.2833 68.6404 43.2943C68.6674 43.3053 68.6919 43.3216 68.7123 43.3423C68.7326 43.3629 68.7484 43.3874 68.7587 43.4142C68.769 43.4411 68.7736 43.4697 68.7722 43.4983C68.7722 43.7403 68.518 43.7984 68.4055 44.1286L68.93 44.2372ZM72.6652 49.4096V47.9222C72.6652 47.1163 72.6505 46.4184 72.6205 45.7684L72.6428 45.7609C72.9031 46.3568 73.1954 46.9389 73.5186 47.5046L74.5963 49.4096H75.7941V44.4724H74.7464V45.9153C74.7393 46.6029 74.7717 47.2902 74.8435 47.9742H74.8212C74.5848 47.393 74.3097 46.8277 73.9977 46.2817L72.9501 44.4724H71.6175V49.4096H72.6652ZM78.0248 47.1163V47.8559H79.9859V47.1163H78.0248Z" fill="#278F45"/>
</svg>
