<svg width="28" height="34" viewBox="0 0 28 34" fill="none" xmlns="http://www.w3.org/2000/svg">
<g clip-path="url(#clip0_7860_15962)">
<path d="M23.0795 21.6863C22.9267 21.5682 22.7479 21.491 22.559 21.4617C22.3701 21.4324 22.177 21.4519 21.9973 21.5185C20.6019 19.6416 18.0748 19.3184 18.0748 19.3184L17.8105 21.1438L21.2972 22.9491C21.3626 23.1949 21.5053 23.4113 21.7031 23.5643C21.9447 23.7523 22.2488 23.8339 22.5487 23.7909C22.8485 23.7479 23.1195 23.5839 23.302 23.335C23.4846 23.0861 23.5636 22.7727 23.5219 22.4637C23.4802 22.1547 23.3211 21.8755 23.0795 21.6874V21.6863Z" fill="black"/>
<path fill-rule="evenodd" clip-rule="evenodd" d="M12.1658 15.9416C12.5034 15.9014 12.8452 15.9556 13.1555 16.0986C13.4657 16.2416 13.7327 16.4681 13.9286 16.7542C12.1658 20.1065 13.3316 24.3093 13.8103 26.0095L12.226 26.2891C10.7639 23.2881 9.9753 17.7279 12.1658 15.9416Z" fill="#8AC440"/>
<path fill-rule="evenodd" clip-rule="evenodd" d="M7.12302 18.3215C7.20987 17.6067 8.09126 17.1738 10.0099 16.0391C9.03296 18.5619 9.33089 23.3012 10.8652 26.2435C9.8449 26.485 9.39985 25.8967 8.62316 25.7961C8.04573 24.8084 6.25897 24.4521 7.12302 18.3215Z" fill="#8AC440"/>
<path fill-rule="evenodd" clip-rule="evenodd" d="M4.32764 22.2026C5.81584 21.7362 6.26579 20.0578 6.23051 20.333C5.92602 22.626 6.48992 23.5768 6.71517 23.923C5.86761 23.4297 5.0681 22.8537 4.32764 22.2026Z" fill="#8AC440"/>
<path d="M23.79 15.7309C23.1658 18.393 17.7444 17.7112 18.5959 15.5122C18.2247 16.643 17.2342 16.5066 17.2417 17.1995C17.3109 17.5555 17.4636 17.8885 17.6863 18.1696C17.9092 18.4507 18.1953 18.6714 18.5199 18.8124C19.1336 19.0175 19.7945 19.0175 20.4082 18.8124C20.7637 18.3198 24.8706 17.3986 23.79 15.7309ZM18.2893 16.9646C18.7626 17.8516 19.8518 17.8399 20.6692 18.2297C19.6668 19.4791 16.9047 17.9937 18.2893 16.9646Z" fill="black"/>
<path d="M23.7224 10.812C22.682 13.0233 26.2033 12.4126 24.5132 10.6772L23.7224 10.812Z" fill="black"/>
<path d="M22.5006 7.70415C21.9822 6.43741 22.7176 4.03594 23.3288 2.805C24.5228 3.08463 25.9469 1.78713 25.395 0.486286C25.0048 -0.218388 24.2444 0.509215 23.6582 1.10148C23.072 1.69373 21.4145 5.65445 21.8427 8.65712C20.9721 8.12726 19.9917 7.81825 18.9825 7.75558C18.4603 5.78084 18.7708 4.414 19.0161 2.99402C20.2801 2.57961 22.1787 0.765358 20.6053 0.0595668C19.0318 -0.646225 17.9762 5.37705 18.494 7.7008C17.5805 7.95919 16.7857 8.54345 16.2514 9.34948C16.494 2.88441 8.33222 0.673082 6.1623 5.78644C-3.97834 5.64159 0.0292902 18.5634 6.5368 18.0343C6.01305 19.9654 5.25484 21.7255 2.8901 22.306C4.25673 22.7204 7.25429 25.534 8.03751 25.9859C8.82065 26.4378 11.663 27.6542 14.1705 26.5044C14.2286 26.5469 15.3428 25.7091 15.6435 25.5262C16.1743 25.1895 16.6615 24.785 17.0937 24.3222C17.3282 23.9821 17.9003 23.2595 17.8612 22.5045C19.0796 22.1997 19.3939 22.0946 20.0321 21.5018C20.6796 20.9045 21.6788 19.442 21.2962 19.5533C20.9136 19.6645 19.2305 20.1411 16.7111 18.7866C18.1672 19.3715 19.6159 19.961 21.4243 19.3676C22.3177 19.1814 24.1032 18.8374 24.9049 18.5969C24.9096 18.5998 24.9148 18.6019 24.9201 18.6031C24.9695 18.5847 25.0069 18.5656 25.0563 18.5472C25.1242 18.5225 25.1844 18.4985 25.2305 18.4772C28.7904 16.9778 27.4167 13.5826 27.2653 13.2414C28.8707 10.4792 26.7708 5.84124 22.5006 7.70415ZM24.9825 0.657421C25.7157 0.98627 24.3622 2.90063 23.4314 2.39785C23.0536 2.18477 24.4039 0.65686 24.9798 0.659656L24.9825 0.657421ZM20.5032 0.494116C20.9988 1.00193 20.2269 2.11598 19.5236 2.37213C18.8196 2.64169 20.0153 -0.0164942 20.5032 0.496351V0.494116ZM19.3716 8.52181C23.2349 8.88422 21.8916 14.1077 19.8259 14.6021C15.6581 15.5988 14.9222 8.10964 19.3716 8.52405V8.52181ZM6.44995 17.4857C3.56309 16.5416 0.646394 15.4723 0.316949 11.5547C-0.32946 3.91346 12.7203 5.15223 11.5056 15.2067C8.96017 15.3381 8.15039 16.7385 6.44995 17.4879V17.4857ZM4.32782 22.1902C5.81602 21.7232 6.2703 20.0454 6.23231 20.3228C5.93054 22.6108 6.49011 23.5666 6.72078 23.91C5.87088 23.4189 5.06944 22.8437 4.32782 22.1924V22.1902ZM8.62147 25.7841C8.0521 24.7992 6.26324 24.4452 7.12729 18.3123C7.2125 17.597 8.09172 17.1652 10.0093 16.0277C9.03235 18.5522 9.33243 23.2925 10.8635 26.2343C9.84589 26.4781 9.40299 25.8892 8.62147 25.7863V25.7841ZM13.8117 26.0005L12.2307 26.2734C10.7653 23.2814 9.97566 17.7167 12.1683 15.932C12.5057 15.892 12.8474 15.9463 13.1575 16.0891C13.4676 16.232 13.7346 16.4583 13.9306 16.7441C12.171 20.0958 13.3314 24.302 13.8117 26.0027V26.0005ZM13.4861 15.7033C13.0655 15.4361 12.5689 15.3254 12.0787 15.3896C11.7211 9.95909 9.46649 7.28023 6.42716 5.73498C12.4012 -2.0181 19.3759 11.327 13.4866 15.7056L13.4861 15.7033ZM24.6449 18.1993C24.0739 18.3939 22.2204 18.6926 21.668 18.8363C21.2504 19.0145 20.809 19.1263 20.3589 19.168C19.9157 19.1755 19.4726 19.1579 19.0313 19.1154C18.5132 18.9887 18.0026 18.8317 17.5019 18.645C15.5816 18.2838 14.3317 14.6094 16.0364 13.0216C17.371 14.9232 18.1732 15.5641 19.9138 15.1469C20.8213 14.9293 21.5822 13.4226 22.0701 13.374C22.5186 13.7715 23.0453 14.0643 23.614 14.2321C24.1826 14.4 24.7799 14.4391 25.3646 14.3466C25.7879 14.2148 26.1916 14.0234 26.5641 13.7778C26.5863 13.7627 26.6064 13.7515 26.6249 13.7364C27.8237 16.7453 25.2284 17.9683 24.6454 18.2015L24.6449 18.1993ZM22.2878 13.0541C22.6973 11.6926 22.6031 10.2231 22.0235 8.92896C28.4099 3.83236 29.4238 17.6786 22.2883 13.0574L22.2878 13.0541Z" fill="black"/>
<path d="M18.7205 11.1572L17.927 11.2965C16.8865 13.5045 20.4084 12.8921 18.7205 11.1572Z" fill="black"/>
<path d="M23.8244 24.7561C20.3399 25.148 16.9639 26.2401 13.8872 27.9707C13.8872 27.9707 14.8896 33.2994 15.421 33.2311C15.9524 33.1629 23.6995 32.6327 24.5353 32.1535C24.8653 31.964 25.1417 31.6894 25.3375 31.3566C25.5333 31.0238 25.6418 30.6443 25.6523 30.2553C25.807 28.3783 25.7903 26.4905 25.6023 24.6168C25.5611 24.2522 23.8244 24.7561 23.8244 24.7561ZM25.2957 30.2318C25.2845 30.6006 25.1812 30.9601 24.9955 31.2756C24.8099 31.5911 24.5484 31.8519 24.2363 32.0326C23.446 32.48 16.1152 32.9834 15.612 33.0499C15.1089 33.1165 14.1613 28.0725 14.1613 28.0725C17.0721 26.4347 20.266 25.4001 23.5627 25.0273C23.5627 25.0273 25.2045 24.5536 25.2501 24.8964C25.4227 26.6697 25.438 28.4556 25.2957 30.2318Z" fill="#8AC440"/>
<path d="M22.1608 24.9427C20.4202 25.1664 15.9246 25.7419 15.9246 25.7419C14.7957 26.4186 13.3195 28.1143 14.2481 28.0869C15.1767 28.0595 23.7 26.8744 23.7 26.8744C24.3861 26.2921 24.9929 25.6171 25.5041 24.8677C25.8796 24.1111 23.9046 24.719 22.1608 24.9427ZM25.0014 24.9427C24.5317 25.6295 23.9744 26.2481 23.3445 26.7816C23.3445 26.7816 15.5219 27.8688 14.6725 27.8956C13.8231 27.9225 15.174 26.3677 16.2063 25.7442C16.2063 25.7442 20.3312 25.2179 21.9296 25.0104C23.5279 24.8029 25.3451 24.2486 25.0014 24.9427Z" fill="#8AC440"/>
<path d="M21.9294 25.0108C20.3326 25.2183 16.2061 25.7446 16.2061 25.7446C15.1749 26.3682 13.8213 27.9257 14.6723 27.8961C15.5234 27.8664 23.3443 26.782 23.3443 26.782C23.9742 26.2485 24.5316 25.63 25.0013 24.9431C25.3448 24.2485 23.5331 24.8083 21.9294 25.0108Z" fill="white"/>
<path d="M23.4951 27.0679L24.1003 31.8708L25.0919 29.9923L24.1453 30.3776L23.4951 27.0679Z" fill="#8AC440"/>
<path d="M22.1823 27.0986L23.0144 30.9979C23.0144 30.9979 22.1373 30.4302 22.1823 27.0986Z" fill="#8AC440"/>
<path d="M16.9499 28.3545L17.8183 32.5915C17.8183 32.5915 16.9352 31.9624 16.9499 28.3545Z" fill="#8AC440"/>
<path d="M17.594 27.7388L18.26 30.3113C18.26 30.3113 17.4159 29.9663 17.594 27.7388Z" fill="#8AC440"/>
<path d="M21.2887 27.8843L22.1669 32.1258C22.1669 32.1258 21.2784 31.4983 21.2887 27.8843Z" fill="#8AC440"/>
<path d="M20.4083 27.9995L21.2767 32.2387C21.2767 32.2387 20.3963 31.6151 20.4083 27.9995Z" fill="#8AC440"/>
<path d="M19.5271 28.1147L20.3955 32.3523C20.3955 32.3523 19.5113 31.7282 19.5271 28.1147Z" fill="#8AC440"/>
<path d="M14.9136 29.8841L21.4808 28.6738C21.4808 28.6738 20.4534 29.6403 14.9136 29.8841Z" fill="#8AC440"/>
<path d="M15.7236 30.8905L23.3763 29.5415C23.3763 29.5415 22.1676 30.5275 15.7236 30.8905Z" fill="#8AC440"/>
<path d="M15.9961 31.9683L23.5142 30.6372C23.5142 30.6372 22.3202 31.6187 15.9961 31.9683Z" fill="#8AC440"/>
<path d="M21.3348 23.6842C21.1509 23.6537 20.9627 23.6683 20.7852 23.7266C20.6079 23.7849 20.4462 23.8853 20.3133 24.0197L16.7117 22.6987L15.6387 24.1304C15.6387 24.1304 17.7337 25.895 20.0892 25.4671C20.1829 25.6538 20.3214 25.8127 20.4915 25.9285C20.6617 26.0444 20.8578 26.1134 21.0612 26.129C21.2646 26.1446 21.4685 26.1063 21.6535 26.0177C21.8384 25.929 21.9982 25.793 22.1177 25.6227C22.2371 25.4523 22.3122 25.2533 22.3358 25.0445C22.3595 24.8358 22.3308 24.6242 22.2525 24.4301C22.1744 24.2361 22.0491 24.0658 21.889 23.9357C21.7288 23.8057 21.5389 23.72 21.3375 23.687L21.3348 23.6842Z" fill="black"/>
<path d="M18.4977 28.5415L19.0572 28.471C19.0572 28.471 18.9487 24.6501 19.7683 24.4264C19.7644 24.404 19.0236 24.3369 19.0236 24.3369C18.5053 25.6501 18.2941 27.0704 18.407 28.4833" fill="#8AC440"/>
<path d="M20.1853 21.7484C20.3368 22.542 19.4966 23.3836 18.3015 23.6225C17.1064 23.8613 16.0219 23.4128 15.8727 22.6197C15.7235 21.8267 16.5614 20.9833 17.7528 20.7411C18.9441 20.499 20.0295 20.9509 20.1853 21.7484Z" fill="black"/>
</g>
<defs>
<clipPath id="clip0_7860_15962">
<rect width="28" height="34" fill="white"/>
</clipPath>
</defs>
</svg>
