<svg width="20" height="20" viewBox="0 0 20 20" fill="none" xmlns="http://www.w3.org/2000/svg">
<path d="M18.7002 11.307H1.30024L0.000244141 9.567L1.73924 7.828H18.2642L20.0002 9.567L18.7002 11.307Z" fill="#870000"/>
<path d="M17.3942 20.001H2.60924C2.49496 20.0011 2.38177 19.9787 2.27615 19.935C2.17054 19.8913 2.07458 19.8273 1.99377 19.7465C1.91295 19.6656 1.84887 19.5697 1.8052 19.4641C1.76152 19.3585 1.73911 19.2453 1.73924 19.131V0.870977C1.73911 0.75669 1.76152 0.6435 1.8052 0.537887C1.84887 0.432274 1.91295 0.336314 1.99377 0.255501C2.07458 0.174688 2.17054 0.110609 2.27615 0.066934C2.38177 0.023259 2.49496 0.000845547 2.60924 0.000977139H13.0452L18.2632 5.21898V19.134C18.2627 19.3641 18.1709 19.5846 18.008 19.7472C17.8451 19.9097 17.6244 20.001 17.3942 20.001Z" fill="#E6E6E6"/>
<path d="M13.0452 0.000976562V4.34898C13.0451 4.46326 13.0675 4.57645 13.1112 4.68207C13.1549 4.78768 13.219 4.88364 13.2998 4.96445C13.3806 5.04527 13.4765 5.10934 13.5822 5.15302C13.6878 5.19669 13.801 5.21911 13.9152 5.21898H18.2632L13.0452 0.000976562Z" fill="#B3B3B3"/>
<path d="M19.1332 17.395H0.870245C0.755958 17.3951 0.642767 17.3727 0.537155 17.329C0.431542 17.2854 0.335582 17.2213 0.254768 17.1405C0.173955 17.0597 0.109877 16.9637 0.0662015 16.8581C0.0225266 16.7525 0.000113125 16.6393 0.000244717 16.525V9.56799C7.81073 9.56799 12.1898 9.56799 20.0002 9.56799V16.526C20.0002 16.7561 19.909 16.9769 19.7464 17.1398C19.5839 17.3027 19.3634 17.3945 19.1332 17.395Z" fill="#BD0100"/>
<path d="M8.29325 12.892C8.30343 13.0549 8.27863 13.218 8.2205 13.3705C8.16237 13.523 8.07227 13.6613 7.95625 13.776C7.68838 13.9991 7.34509 14.1108 6.99725 14.088H6.73825V15.221H5.81525V11.806H6.99725C7.3443 11.7801 7.68906 11.8802 7.96825 12.088C8.07872 12.1895 8.16521 12.3143 8.22143 12.4534C8.27764 12.5924 8.30218 12.7423 8.29325 12.892ZM6.73825 13.336H6.90625C7.0274 13.3423 7.14608 13.3002 7.23625 13.219C7.2782 13.177 7.31084 13.1266 7.33203 13.0711C7.35323 13.0156 7.3625 12.9563 7.35925 12.897C7.35925 12.6664 7.23158 12.551 6.97625 12.551H6.73825V13.336Z" fill="white"/>
<path d="M11.7362 13.441C11.7519 13.6812 11.7181 13.9221 11.6371 14.1487C11.5561 14.3754 11.4296 14.5831 11.2652 14.759C11.0869 14.9207 10.8779 15.045 10.6507 15.1246C10.4234 15.2041 10.1825 15.2372 9.94224 15.222H8.84224V11.806H10.0152C10.4767 11.776 10.9318 11.9266 11.2842 12.226C11.4409 12.3853 11.5622 12.5758 11.64 12.7852C11.7179 12.9946 11.7507 13.2181 11.7362 13.441ZM10.7782 13.474C10.7983 13.2262 10.7326 12.9791 10.5922 12.774C10.522 12.6953 10.4346 12.6339 10.3368 12.5945C10.239 12.5551 10.1334 12.5389 10.0282 12.547H9.75924V14.459H9.96524C10.08 14.4688 10.1954 14.4519 10.3024 14.4096C10.4095 14.3672 10.5053 14.3006 10.5822 14.215C10.7286 13.9968 10.7976 13.736 10.7782 13.474Z" fill="white"/>
<path d="M13.2522 15.221H12.3442V11.806H14.3622V12.546H13.2522V13.198H14.2752V13.938H13.2522V15.221Z" fill="white"/>
</svg>
