<svg width="129" height="17" viewBox="0 0 129 17" fill="none" xmlns="http://www.w3.org/2000/svg">
<path d="M27.014 13.47V4.30503H30.342C31.3907 4.30503 32.2747 4.48703 32.994 4.85103C33.722 5.20636 34.2723 5.72636 34.645 6.41103C35.0177 7.08703 35.204 7.91036 35.204 8.88103C35.204 9.84303 35.0177 10.6664 34.645 11.351C34.2723 12.0357 33.722 12.56 32.994 12.924C32.2747 13.288 31.3907 13.47 30.342 13.47H27.014ZM28.691 12.079H30.238C31.3473 12.079 32.1707 11.8147 32.708 11.286C33.2453 10.7574 33.514 9.9557 33.514 8.88103C33.514 7.7977 33.2453 6.99603 32.708 6.47603C32.1707 5.94736 31.3473 5.68303 30.238 5.68303H28.691V12.079Z" fill="#1A6634"/>
<path d="M36.6173 8.88103C36.6173 7.91903 36.7907 7.08703 37.1373 6.38503C37.4927 5.68303 37.9997 5.14136 38.6583 4.76003C39.317 4.37003 40.1013 4.17503 41.0113 4.17503C41.9127 4.17503 42.6927 4.37003 43.3513 4.76003C44.01 5.14136 44.517 5.68303 44.8723 6.38503C45.2363 7.08703 45.4183 7.9147 45.4183 8.86803C45.4183 9.83003 45.2363 10.6664 44.8723 11.377C44.517 12.079 44.01 12.625 43.3513 13.015C42.6927 13.405 41.9127 13.6 41.0113 13.6C40.1013 13.6 39.317 13.405 38.6583 13.015C38.0083 12.625 37.5057 12.079 37.1503 11.377C36.795 10.6664 36.6173 9.83436 36.6173 8.88103ZM38.3723 8.88103C38.3723 9.91236 38.5933 10.7184 39.0353 11.299C39.4773 11.8797 40.136 12.17 41.0113 12.17C41.8607 12.17 42.515 11.8797 42.9743 11.299C43.4337 10.7184 43.6633 9.91236 43.6633 8.88103C43.6633 7.84103 43.4337 7.03503 42.9743 6.46303C42.5237 5.89103 41.8693 5.60503 41.0113 5.60503C40.136 5.60503 39.4773 5.89103 39.0353 6.46303C38.5933 7.03503 38.3723 7.84103 38.3723 8.88103Z" fill="#1A6634"/>
<path d="M45.9443 13.47L50.0913 4.30503H51.4953L55.6943 13.47H53.9913L52.8733 10.896L53.5493 11.351H48.0503L48.7523 10.896L47.6343 13.47H45.9443ZM50.7803 6.09903L48.9473 10.441L48.6093 10.038H52.9773L52.7043 10.441L50.8323 6.09903H50.7803Z" fill="#1A6634"/>
<path d="M56.7083 13.47V4.30503H57.9693L63.2863 11.182H62.9483V4.30503H64.5083V13.47H63.2473L57.9433 6.59303H58.2683V13.47H56.7083Z" fill="#1A6634"/>
<path d="M66.5218 13.47V4.30503H68.1988V8.12703H72.8918V4.30503H74.5688V13.47H72.8918V9.51803H68.1988V13.47H66.5218Z" fill="#1A6634"/>
<path d="M80.1566 13.47V4.30503H81.4176L86.7346 11.182H86.3966V4.30503H87.9566V13.47H86.6956L81.3916 6.59303H81.7166V13.47H80.1566Z" fill="#1A6634"/>
<path d="M94.3901 13.6C93.3587 13.6 92.4921 13.4094 91.7901 13.028C91.0881 12.6467 90.5594 12.105 90.2041 11.403C89.8487 10.701 89.6711 9.86903 89.6711 8.90703C89.6711 7.93637 89.8617 7.10003 90.2431 6.39803C90.6244 5.68736 91.1704 5.14136 91.8811 4.76003C92.6004 4.37003 93.4627 4.17503 94.4681 4.17503C95.1354 4.17503 95.7204 4.26603 96.2231 4.44803C96.7257 4.62136 97.1677 4.87703 97.5491 5.21503L96.9901 6.51503C96.7127 6.29836 96.4484 6.12503 96.1971 5.99503C95.9457 5.86503 95.6857 5.77403 95.4171 5.72203C95.1484 5.66136 94.8364 5.63103 94.4811 5.63103C93.4757 5.63103 92.7131 5.91703 92.1931 6.48903C91.6817 7.05236 91.4261 7.8627 91.4261 8.92003C91.4261 9.97737 91.6687 10.7834 92.1541 11.338C92.6481 11.8927 93.4194 12.17 94.4681 12.17C94.8234 12.17 95.1787 12.1354 95.5341 12.066C95.8981 11.9967 96.2534 11.897 96.6001 11.767L96.2881 12.469V9.72603H94.1431V8.50403H97.6791V12.911C97.2544 13.1277 96.7474 13.2967 96.1581 13.418C95.5687 13.5394 94.9794 13.6 94.3901 13.6Z" fill="#1A6634"/>
<path d="M99.5931 13.47V4.30503H101.27V8.12703H105.963V4.30503H107.64V13.47H105.963V9.51803H101.27V13.47H99.5931Z" fill="#1A6634"/>
<path d="M109.66 13.47V4.30503H111.337V13.47H109.66Z" fill="#1A6634"/>
<path d="M113.355 13.47V4.30503H119.53V5.61803H114.967V8.15303H119.231V9.47903H114.967V12.144H119.53V13.47H113.355ZM115.877 16.122V14.614H117.463V16.122H115.877ZM114.356 3.52503L115.968 1.26303H117.372L118.984 3.52503H117.853L116.67 2.17303L115.487 3.52503H114.356Z" fill="#1A6634"/>
<path d="M121.086 13.47V4.30503H125.155C126.161 4.30503 126.928 4.5477 127.456 5.03303C127.985 5.51836 128.249 6.1857 128.249 7.03503C128.249 7.8757 127.985 8.54303 127.456 9.03703C126.928 9.53103 126.161 9.77803 125.155 9.77803H122.763V13.47H121.086ZM122.763 8.45203H124.96C125.515 8.45203 125.931 8.3307 126.208 8.08803C126.486 7.8367 126.624 7.4857 126.624 7.03503C126.624 6.58436 126.486 6.2377 126.208 5.99503C125.931 5.7437 125.515 5.61803 124.96 5.61803H122.763V8.45203Z" fill="#1A6634"/>
<path d="M11.819 1.06214C12.3804 1.29837 12.8901 1.64255 13.319 2.07514C13.6621 2.41761 13.8723 2.87095 13.912 3.35414C13.916 3.36009 13.9193 3.36646 13.922 3.37313V9.00913C13.922 9.09586 13.8875 9.17904 13.8262 9.24037C13.7649 9.30169 13.6817 9.33615 13.595 9.33615C13.5082 9.33615 13.4251 9.30169 13.3638 9.24037C13.3024 9.17904 13.268 9.09586 13.268 9.00913V8.14015C12.8475 8.54791 12.3548 8.8738 11.815 9.10114C8.74801 10.2873 5.34894 10.2873 2.28196 9.10114C1.74215 8.87382 1.24941 8.54793 0.82896 8.14015V9.93014C0.831588 9.95039 0.831588 9.9709 0.82896 9.99114C0.846677 10.3423 1.00059 10.6726 1.25798 10.9121C1.63261 11.2789 2.07383 11.5708 2.55796 11.7721C3.98213 12.3537 5.50989 12.6388 7.04795 12.6101C7.58259 12.6104 8.11683 12.58 8.64799 12.5191C8.69121 12.5139 8.73504 12.5172 8.77696 12.529C8.81888 12.5407 8.85806 12.5607 8.89219 12.5878C8.92633 12.6148 8.95473 12.6483 8.97581 12.6864C8.99689 12.7245 9.01023 12.7664 9.015 12.8097C9.01976 12.853 9.01587 12.8968 9.00358 12.9385C8.99129 12.9803 8.97084 13.0192 8.9434 13.053C8.91596 13.0869 8.88208 13.1149 8.84373 13.1355C8.80538 13.1561 8.76329 13.1689 8.71995 13.1731C8.16648 13.2354 7.60992 13.2662 7.05296 13.2651C5.42013 13.2977 3.79799 12.9948 2.28697 12.3751C1.74728 12.1467 1.25462 11.8202 0.833965 11.4121V12.9361C0.851682 13.2873 1.00559 13.6177 1.26298 13.8571C1.6374 14.2237 2.07871 14.515 2.56297 14.7151C3.98687 15.2977 5.51477 15.5832 7.05296 15.5541C7.90785 15.5575 8.76113 15.4788 9.60099 15.3191C9.64335 15.3111 9.68685 15.3115 9.72905 15.3203C9.77124 15.3291 9.81129 15.3462 9.8469 15.3705C9.88252 15.3947 9.91296 15.4258 9.93657 15.4619C9.96017 15.4979 9.97647 15.5383 9.98448 15.5806C9.99249 15.623 9.99206 15.6665 9.98326 15.7087C9.97445 15.7509 9.95743 15.7909 9.93315 15.8265C9.90886 15.8622 9.87784 15.8926 9.84178 15.9163C9.80572 15.9399 9.76536 15.9561 9.723 15.9641C8.84298 16.1318 7.9488 16.2141 7.05296 16.2101C5.42 16.2432 3.79771 15.9399 2.28697 15.3191C1.72554 15.0833 1.21589 14.7394 0.786968 14.3071C0.418642 13.9439 0.203882 13.4531 0.186993 12.9361V9.99014C0.184493 9.96988 0.184493 9.94939 0.186993 9.92913V6.71813C0.184503 6.69788 0.184503 6.6774 0.186993 6.65715V3.42513C0.185773 3.40782 0.185773 3.39044 0.186993 3.37313C0.224159 2.88175 0.437149 2.42023 0.786968 2.07315C1.21584 1.64055 1.72548 1.29637 2.28697 1.06014C5.35394 -0.126019 8.75301 -0.126019 11.82 1.06014L11.819 1.06214ZM2.56199 1.66213C2.07786 1.86343 1.63664 2.15532 1.262 2.52214C1.01305 2.75494 0.860031 3.07236 0.832989 3.41213V3.44213C0.850705 3.79326 1.00462 4.12365 1.262 4.36314C1.63664 4.72995 2.07786 5.02185 2.56199 5.22314C5.4515 6.33993 8.65344 6.33993 11.5429 5.22314C12.0274 5.02242 12.4688 4.73045 12.843 4.36314C12.9775 4.25051 13.0856 4.10977 13.1598 3.95082C13.234 3.79186 13.2725 3.61856 13.2725 3.44314C13.2725 3.26772 13.234 3.09442 13.1598 2.93547C13.0856 2.77651 12.9775 2.63577 12.843 2.52314C12.4688 2.15585 12.0274 1.86389 11.5429 1.66314C8.65378 0.544519 5.45116 0.544519 2.56199 1.66314V1.66213ZM0.833965 6.65715C0.836571 6.67739 0.836571 6.69788 0.833965 6.71813C0.851682 7.06926 1.00559 7.39965 1.26298 7.63914C1.63811 8.00483 2.07924 8.29599 2.56297 8.49714C5.45216 9.61567 8.6548 9.61567 11.544 8.49714C12.028 8.29653 12.4692 8.00531 12.844 7.63914C13.1025 7.40024 13.2572 7.06965 13.275 6.71813V4.86614C12.8543 5.27417 12.3617 5.60068 11.822 5.82914C8.75506 7.0155 5.35592 7.0155 2.28898 5.82914C1.74929 5.60071 1.25663 5.27419 0.83598 4.86614L0.833965 6.65715ZM16.108 9.84614C16.1429 9.877 16.1709 9.91503 16.1899 9.95765C16.2088 10.0003 16.2185 10.0465 16.218 10.0931V12.2821H14.034C13.9894 12.2846 13.9449 12.278 13.903 12.2626C13.8611 12.2473 13.8228 12.2235 13.7904 12.1929C13.7581 12.1622 13.7322 12.1253 13.7146 12.0843C13.6969 12.0434 13.6878 11.9992 13.6878 11.9546C13.6878 11.91 13.6969 11.8659 13.7146 11.8249C13.7322 11.784 13.7581 11.747 13.7904 11.7164C13.8228 11.6857 13.8611 11.662 13.903 11.6467C13.9449 11.6313 13.9894 11.6247 14.034 11.6271H15.199C14.9736 11.3296 14.6834 11.0875 14.3503 10.919C14.0173 10.7506 13.6501 10.6603 13.277 10.6551C12.7609 10.6549 12.2564 10.8078 11.8273 11.0944C11.3981 11.3809 11.0635 11.7883 10.8659 12.265C10.6683 12.7417 10.6164 13.2664 10.717 13.7725C10.8175 14.2787 11.0659 14.7436 11.4308 15.1086C11.7956 15.4736 12.2605 15.7222 12.7666 15.8229C13.2728 15.9237 13.7974 15.8721 14.2742 15.6746C14.7509 15.4772 15.1585 15.1428 15.4452 14.7137C15.732 14.2847 15.885 13.7802 15.885 13.2641C15.8825 13.2183 15.8894 13.1724 15.9052 13.1293C15.921 13.0861 15.9455 13.0467 15.9771 13.0133C16.0087 12.98 16.0467 12.9534 16.0889 12.9353C16.1311 12.9171 16.1765 12.9078 16.2225 12.9078C16.2684 12.9078 16.3139 12.9171 16.3561 12.9353C16.3983 12.9534 16.4363 12.98 16.4679 13.0133C16.4995 13.0467 16.5239 13.0861 16.5398 13.1293C16.5556 13.1724 16.5625 13.2183 16.56 13.2641C16.56 13.9137 16.3673 14.5487 16.0065 15.0887C15.6456 15.6288 15.1326 16.0497 14.5325 16.2983C13.9323 16.5468 13.272 16.6118 12.6349 16.485C11.9979 16.3582 11.4127 16.0453 10.9535 15.5859C10.4942 15.1266 10.1816 14.5413 10.055 13.9042C9.92837 13.2671 9.99352 12.6068 10.2422 12.0067C10.4909 11.4067 10.912 10.8938 11.4522 10.5331C11.9924 10.1724 12.6274 9.97995 13.277 9.98014C13.7135 9.9846 14.144 10.0828 14.5392 10.2681C14.9345 10.4534 15.2853 10.7214 15.568 11.0541V10.0931C15.5673 10.0297 15.5852 9.96752 15.6192 9.91406C15.6533 9.86059 15.7022 9.81819 15.76 9.79202C15.8177 9.76584 15.8818 9.75702 15.9445 9.76663C16.0072 9.77624 16.0657 9.80387 16.113 9.84614H16.108Z" fill="#1A6634"/>
<path d="M13.271 16.7241C12.8117 16.7319 12.3555 16.6482 11.929 16.4779C11.5024 16.3075 11.114 16.0539 10.7865 15.7319C10.459 15.4099 10.1988 15.0259 10.0212 14.6023C9.84361 14.1787 9.75221 13.724 9.75221 13.2646C9.75221 12.8053 9.84361 12.3506 10.0212 11.927C10.1988 11.5034 10.459 11.1193 10.7865 10.7973C11.114 10.4753 11.5024 10.2217 11.929 10.0514C12.3555 9.88103 12.8117 9.79732 13.271 9.80512C14.0542 9.80532 14.8087 10.0998 15.385 10.6301V10.0941C15.3829 9.99617 15.4097 9.89976 15.4619 9.81687C15.5142 9.73399 15.5896 9.66828 15.6788 9.62791C15.7681 9.58753 15.8673 9.57427 15.964 9.58978C16.0607 9.60528 16.1509 9.64887 16.223 9.71513C16.277 9.76274 16.3199 9.82143 16.3491 9.88719C16.3782 9.95294 16.3929 10.0242 16.392 10.0961V12.2821C16.392 12.3052 16.3875 12.3281 16.3786 12.3495C16.3698 12.3708 16.3568 12.3902 16.3405 12.4066C16.3241 12.4229 16.3047 12.4359 16.2833 12.4447C16.262 12.4536 16.2391 12.4581 16.216 12.4581H14.027C13.9385 12.4575 13.8517 12.4343 13.7747 12.3907C13.6977 12.3471 13.6331 12.2846 13.587 12.2091C13.5406 12.1326 13.5157 12.0451 13.5147 11.9556C13.5137 11.8662 13.5367 11.7781 13.5813 11.7006C13.6259 11.623 13.6906 11.5589 13.7684 11.5149C13.8463 11.4708 13.9346 11.4485 14.024 11.4501H14.795C14.3867 11.053 13.8396 10.8309 13.27 10.8311C12.7891 10.8311 12.3189 10.9737 11.919 11.2409C11.519 11.5081 11.2073 11.8879 11.0232 12.3322C10.8391 12.7765 10.7909 13.2655 10.8847 13.7372C10.9784 14.209 11.21 14.6423 11.55 14.9825C11.89 15.3226 12.3232 15.5543 12.7949 15.6483C13.2666 15.7422 13.7556 15.6942 14.2 15.5103C14.6444 15.3264 15.0243 15.0148 15.2916 14.615C15.559 14.2152 15.7018 13.7451 15.702 13.2641C15.6989 13.1948 15.71 13.1256 15.7344 13.0606C15.7588 12.9956 15.7961 12.9363 15.8441 12.8861C15.8921 12.836 15.9497 12.7961 16.0136 12.7688C16.0774 12.7415 16.1461 12.7275 16.2155 12.7275C16.2849 12.7275 16.3536 12.7415 16.4174 12.7688C16.4813 12.7961 16.5389 12.836 16.5869 12.8861C16.6348 12.9363 16.6722 12.9956 16.6966 13.0606C16.721 13.1256 16.7321 13.1948 16.729 13.2641C16.7282 14.1812 16.3637 15.0605 15.7154 15.7091C15.0671 16.3578 14.1881 16.7228 13.271 16.7241ZM13.271 10.1571C12.6565 10.1571 12.0559 10.3393 11.5449 10.6807C11.034 11.022 10.6358 11.5072 10.4006 12.0749C10.1654 12.6426 10.1038 13.2672 10.2236 13.8699C10.3434 14.4726 10.6393 15.0262 11.0737 15.4608C11.5081 15.8953 12.0616 16.1913 12.6643 16.3113C13.2669 16.4313 13.8916 16.3699 14.4593 16.1349C15.027 15.8999 15.5124 15.5018 15.8539 14.991C16.1954 14.4802 16.3778 13.8796 16.378 13.2651C16.378 13.2223 16.361 13.1812 16.3307 13.1509C16.3004 13.1206 16.2593 13.1036 16.2165 13.1036C16.1737 13.1036 16.1326 13.1206 16.1023 13.1509C16.072 13.1812 16.055 13.2223 16.055 13.2651C16.055 13.816 15.8916 14.3545 15.5856 14.8125C15.2795 15.2705 14.8445 15.6275 14.3355 15.8382C13.8266 16.049 13.2666 16.1041 12.7263 15.9965C12.1861 15.889 11.6898 15.6237 11.3004 15.2341C10.9109 14.8445 10.6457 14.3481 10.5384 13.8078C10.4311 13.2675 10.4863 12.7075 10.6973 12.1987C10.9082 11.6898 11.2653 11.2549 11.7235 10.949C12.1816 10.6431 12.7201 10.4799 13.271 10.4801C13.6707 10.4864 14.0638 10.5831 14.4208 10.7631C14.7777 10.943 15.0892 11.2015 15.332 11.5191C15.3525 11.5451 15.3652 11.5764 15.3688 11.6093C15.3723 11.6423 15.3665 11.6755 15.352 11.7053C15.3375 11.7351 15.3149 11.7601 15.2868 11.7776C15.2586 11.7951 15.2261 11.8043 15.193 11.8041H14.028C14.0001 11.8027 13.9723 11.8092 13.9479 11.8228C13.9235 11.8364 13.9035 11.8566 13.89 11.8811C13.877 11.9045 13.8704 11.9309 13.8708 11.9577C13.8712 11.9844 13.8787 12.0106 13.8925 12.0335C13.9063 12.0565 13.9259 12.0754 13.9494 12.0883C13.9728 12.1012 13.9993 12.1077 14.026 12.1071H16.041V10.0941C16.0415 10.0722 16.0371 10.0505 16.0283 10.0305C16.0195 10.0104 16.0065 9.99257 15.99 9.97813C15.9737 9.96381 15.9547 9.95302 15.934 9.94648C15.9134 9.93994 15.8916 9.93779 15.87 9.94013C15.8332 9.9448 15.7993 9.96287 15.775 9.99092C15.7506 10.019 15.7374 10.055 15.738 10.0921V11.0551C15.7381 11.0909 15.7273 11.1259 15.707 11.1554C15.6868 11.1849 15.658 11.2075 15.6245 11.2202C15.5911 11.233 15.5545 11.2352 15.5197 11.2266C15.485 11.218 15.4537 11.199 15.43 11.1721C15.1641 10.8578 14.8337 10.6044 14.4611 10.4293C14.0886 10.2542 13.6827 10.1613 13.271 10.1571ZM7.05098 16.3871C5.39322 16.4192 3.74658 16.1105 2.21302 15.4801C1.62899 15.2353 1.0989 14.8778 0.653026 14.4281C0.25262 14.0332 0.0195181 13.4993 0.00202506 12.9371V10.0011C-0.000675021 9.97419 -0.000675021 9.94706 0.00202506 9.92013V6.72813C-0.000668354 6.7012 -0.000668354 6.67407 0.00202506 6.64713V3.43113C0.000324774 3.40683 0.000324774 3.38244 0.00202506 3.35813C0.0440064 2.82847 0.275067 2.33156 0.653026 1.95812C1.09883 1.50808 1.62892 1.15028 2.21302 0.905131C5.32581 -0.30171 8.77724 -0.30171 11.89 0.905131C12.4741 1.15028 13.0042 1.50808 13.45 1.95812C13.8121 2.32182 14.0375 2.79941 14.088 3.31013C14.0965 3.3311 14.1009 3.35349 14.101 3.37612V9.01213C14.101 9.14553 14.048 9.27348 13.9537 9.36781C13.8594 9.46214 13.7314 9.51513 13.598 9.51513C13.4646 9.51513 13.3367 9.46214 13.2423 9.36781C13.148 9.27348 13.095 9.14553 13.095 9.01213V8.54313C12.7283 8.83581 12.3249 9.07921 11.895 9.26713C8.78224 10.474 5.33081 10.474 2.21803 9.26713C1.78817 9.07958 1.38472 8.8365 1.01802 8.54412V9.92613C1.02048 9.95274 1.02048 9.97952 1.01802 10.0061C1.03981 10.3089 1.17649 10.5918 1.40004 10.7971C1.75876 11.1466 2.18053 11.4249 2.64302 11.6171C4.04538 12.1856 5.54801 12.4652 7.06099 12.4391C7.5876 12.4392 8.11385 12.4091 8.63703 12.3491C8.7033 12.3411 8.77048 12.3464 8.83467 12.3647C8.89885 12.3831 8.95869 12.4141 9.01069 12.4559C9.0627 12.4978 9.10581 12.5496 9.13746 12.6084C9.16911 12.6672 9.1887 12.7317 9.19502 12.7981C9.20226 12.8635 9.19653 12.9296 9.17817 12.9928C9.15981 13.0559 9.12918 13.1148 9.08802 13.1661C9.04667 13.2184 8.99529 13.2618 8.9369 13.294C8.87851 13.3261 8.81427 13.3462 8.748 13.3531C8.1882 13.4159 7.62533 13.4469 7.06202 13.4461C5.40446 13.4783 3.75789 13.1702 2.22401 12.5411C1.79427 12.3525 1.39088 12.1088 1.024 11.8161V12.9421C1.04282 13.2482 1.1798 13.5351 1.40602 13.7421C1.76449 14.0915 2.18637 14.3691 2.649 14.5601C4.05101 15.13 5.55386 15.4103 7.06703 15.3841C7.91054 15.3878 8.7524 15.3101 9.581 15.1521C9.67895 15.1337 9.78015 15.1446 9.8719 15.1835C9.96365 15.2225 10.0418 15.2877 10.0966 15.371C10.1513 15.4543 10.1802 15.5519 10.1796 15.6516C10.1789 15.7513 10.1488 15.8485 10.093 15.9311C10.0561 15.986 10.0085 16.033 9.95326 16.0694C9.89798 16.1058 9.83604 16.1309 9.77101 16.1431C8.8747 16.3122 7.96411 16.3939 7.05201 16.3871H7.05098ZM7.05098 0.348124C5.44333 0.315439 3.84608 0.612912 2.35798 1.22213C1.81618 1.44838 1.32418 1.77898 0.909984 2.19512C0.588978 2.51106 0.392662 2.93214 0.357006 3.38113C0.356211 3.39111 0.356211 3.40114 0.357006 3.41113C0.357006 3.41113 0.357006 3.42013 0.357006 3.42513V6.65713C0.357568 6.66512 0.357568 6.67314 0.357006 6.68113C0.356367 6.68611 0.356367 6.69115 0.357006 6.69613C0.357457 6.70346 0.357457 6.71081 0.357006 6.71813V9.92913C0.357457 9.93646 0.357457 9.94381 0.357006 9.95114C0.356345 9.95611 0.356345 9.96116 0.357006 9.96614C0.357574 9.97412 0.357574 9.98215 0.357006 9.99014V12.9361C0.375302 13.4087 0.574362 13.8561 0.913036 14.1861C1.32704 14.6018 1.81865 14.932 2.36 15.1581C3.84834 15.7678 5.44598 16.0656 7.05403 16.0331C7.93846 16.0371 8.82121 15.9557 9.69001 15.7901C9.71009 15.7866 9.72924 15.7791 9.74641 15.7682C9.76358 15.7572 9.77838 15.7429 9.78999 15.7261C9.80106 15.7099 9.80881 15.6917 9.81275 15.6724C9.8167 15.6532 9.81678 15.6334 9.813 15.6141C9.80959 15.594 9.80214 15.5748 9.79115 15.5576C9.78015 15.5404 9.76587 15.5256 9.74903 15.5141C9.73292 15.5028 9.71468 15.4949 9.69545 15.4908C9.67621 15.4867 9.65636 15.4864 9.63703 15.4901C8.78637 15.6525 7.92199 15.7325 7.05598 15.7291C5.4932 15.7549 3.94141 15.4641 2.49403 14.8741C1.98896 14.6635 1.52894 14.358 1.13899 13.9741C0.849599 13.7027 0.678325 13.3285 0.661998 12.9321V11.4081C0.66237 11.3735 0.672907 11.3398 0.692333 11.3112C0.711759 11.2826 0.739241 11.2603 0.771251 11.2472C0.803261 11.234 0.838395 11.2307 0.872325 11.2374C0.906256 11.2442 0.937437 11.2608 0.961986 11.2851C1.36769 11.6771 1.84235 11.9907 2.36201 12.2101C3.85029 12.8187 5.44741 13.1162 7.055 13.0841C7.60528 13.0849 8.15514 13.0545 8.70198 12.9931C8.74146 12.9879 8.77737 12.9674 8.80201 12.9361C8.82694 12.9044 8.83847 12.8641 8.83418 12.824C8.82988 12.7838 8.81009 12.7469 8.779 12.7211C8.76346 12.7085 8.74556 12.699 8.72633 12.6934C8.7071 12.6877 8.68693 12.6859 8.667 12.6881C8.13052 12.7495 7.59095 12.7802 7.05098 12.7801C5.48839 12.8058 3.93675 12.5157 2.48902 11.9271C1.98427 11.716 1.52435 11.4105 1.13398 11.0271C0.844594 10.7557 0.67332 10.3815 0.656993 9.98513C0.656514 9.97747 0.656514 9.96978 0.656993 9.96212C0.657688 9.95614 0.657688 9.95011 0.656993 9.94413C0.656596 9.93714 0.656596 9.93013 0.656993 9.92314V8.13313C0.657365 8.09853 0.667963 8.06481 0.687389 8.03619C0.706815 8.00756 0.734237 7.9853 0.766246 7.97218C0.798256 7.95905 0.83339 7.95565 0.86732 7.9624C0.901251 7.96915 0.932432 7.98575 0.956981 8.01013C1.36241 8.40216 1.83715 8.71547 2.35701 8.93412C5.37785 10.0995 8.72416 10.0995 11.745 8.93412C12.2649 8.71547 12.7396 8.40216 13.145 8.01013C13.1696 7.98575 13.2008 7.96915 13.2347 7.9624C13.2686 7.95565 13.3038 7.95905 13.3358 7.97218C13.3678 7.9853 13.3952 8.00756 13.4146 8.03619C13.434 8.06481 13.4446 8.09853 13.445 8.13313V9.00213C13.4442 9.0293 13.4507 9.05619 13.4639 9.07995C13.4771 9.10371 13.4965 9.12346 13.52 9.13713C13.5429 9.15058 13.569 9.15768 13.5955 9.15768C13.6221 9.15768 13.6481 9.15058 13.671 9.13713C13.6946 9.12367 13.714 9.10412 13.7274 9.08055C13.7407 9.05697 13.7475 9.03022 13.747 9.00312V3.40313C13.7413 3.38703 13.7379 3.37019 13.737 3.35313C13.6993 2.91136 13.5058 2.49738 13.191 2.18513C12.7771 1.76903 12.2855 1.43841 11.744 1.21212C10.2555 0.60654 8.65862 0.31249 7.05201 0.348124H7.05098ZM7.05098 9.51213C5.48831 9.53769 3.93663 9.24722 2.48902 8.65814C1.98443 8.44667 1.52457 8.14124 1.13398 7.75813C0.844594 7.48671 0.67332 7.11255 0.656993 6.71614C0.656602 6.70914 0.656602 6.70212 0.656993 6.69512C0.657621 6.68947 0.657621 6.68377 0.656993 6.67813C0.656516 6.67047 0.656516 6.66279 0.656993 6.65513V4.86413C0.657365 4.82954 0.667963 4.79582 0.687389 4.76719C0.706815 4.73856 0.734237 4.7163 0.766246 4.70318C0.798256 4.69006 0.83339 4.68665 0.86732 4.6934C0.901251 4.70015 0.932432 4.71675 0.956981 4.74113C1.36266 5.1331 1.83732 5.44671 2.35701 5.66613C5.37783 6.83157 8.72418 6.83157 11.745 5.66613C12.2647 5.44669 12.7393 5.13308 13.145 4.74113C13.1696 4.71675 13.2008 4.70015 13.2347 4.6934C13.2686 4.68665 13.3038 4.69006 13.3358 4.70318C13.3678 4.7163 13.3952 4.73856 13.4146 4.76719C13.434 4.79582 13.4446 4.82954 13.445 4.86413V6.71614C13.4289 7.1128 13.2571 7.48713 12.967 7.75813C12.577 8.1415 12.1174 8.44697 11.613 8.65814C10.1658 9.24743 8.61442 9.53824 7.05201 9.51313L7.05098 9.51213ZM1.00898 6.72613C1.03043 7.02924 1.16714 7.31265 1.391 7.51814C1.75015 7.86662 2.17185 8.14414 2.63398 8.33613C5.47701 9.43402 8.62696 9.43402 11.47 8.33613C11.932 8.14454 12.3535 7.86696 12.712 7.51814C12.9389 7.31149 13.0763 7.02449 13.095 6.71813V5.26412C12.7281 5.55678 12.3248 5.8005 11.895 5.98913C8.78223 7.19587 5.33083 7.19587 2.21803 5.98913C1.78829 5.80051 1.3849 5.55679 1.01802 5.26412V6.64713C1.0175 6.67402 1.01445 6.70081 1.00898 6.72714V6.72613ZM7.05098 6.23812C5.48837 6.264 3.93671 5.97387 2.48902 5.38513C1.98421 5.17407 1.52428 4.86861 1.13398 4.48513C0.844594 4.21372 0.67332 3.83954 0.656993 3.44312V3.41313C0.683223 3.02843 0.853544 2.66777 1.13398 2.40313C1.52428 2.01965 1.98421 1.71418 2.48902 1.50312C5.42436 0.363849 8.67967 0.363849 11.615 1.50312C12.1197 1.7139 12.5793 2.01941 12.969 2.40313C13.119 2.53193 13.2395 2.69164 13.322 2.87132C13.4046 3.05099 13.4473 3.2464 13.4473 3.44413C13.4473 3.64187 13.4046 3.83727 13.322 4.01695C13.2395 4.19662 13.119 4.35633 12.969 4.48513C12.5794 4.86893 12.1197 5.17444 11.615 5.38513C10.167 5.97418 8.615 6.26466 7.05201 6.23913L7.05098 6.23812ZM2.63301 1.82513C2.17048 2.01727 1.74868 2.29554 1.39003 2.64514C1.17147 2.84699 1.03565 3.12281 1.00898 3.41912V3.44413C1.02781 3.75023 1.16479 4.03706 1.391 4.24413C1.74979 4.59331 2.17157 4.87123 2.63398 5.06314C5.47734 6.1592 8.62662 6.1592 11.47 5.06314C11.9324 4.87136 12.354 4.59303 12.712 4.24313C12.8316 4.14688 12.9281 4.02505 12.9943 3.88661C13.0606 3.74816 13.095 3.59662 13.095 3.44312C13.095 3.28963 13.0606 3.13809 12.9943 2.99964C12.9281 2.8612 12.8316 2.73939 12.712 2.64314C12.3536 2.29316 11.9318 2.01484 11.469 1.82313C8.62596 0.725338 5.47605 0.725338 2.63301 1.82313V1.82513Z" fill="#1A6634"/>
<path d="M7.05198 0.177135C5.4191 0.143882 3.79683 0.446824 2.28599 1.06713C1.7245 1.30336 1.21486 1.64754 0.785992 2.08013C0.436173 2.42722 0.223122 2.88875 0.185955 3.38014C0.184736 3.39745 0.184736 3.41483 0.185955 3.43214V6.66413C0.183465 6.68439 0.183465 6.70488 0.185955 6.72514V9.93614C0.183455 9.95639 0.183455 9.97689 0.185955 9.99714V12.9431C0.202845 13.4602 0.417666 13.9509 0.785992 14.3141C1.21492 14.7464 1.72456 15.0903 2.28599 15.3261C3.79673 15.9469 5.41902 16.2502 7.05198 16.2171C7.94782 16.2211 8.84194 16.1388 9.72197 15.9711C9.76432 15.9631 9.80468 15.9469 9.84074 15.9232C9.8768 15.8996 9.90789 15.8692 9.93217 15.8336C9.95645 15.7979 9.97347 15.7579 9.98228 15.7157C9.99109 15.6735 9.99151 15.63 9.9835 15.5876C9.97549 15.5453 9.9592 15.5049 9.93559 15.4689C9.91198 15.4328 9.88148 15.4017 9.84587 15.3775C9.81026 15.3532 9.7702 15.3361 9.72801 15.3273C9.68581 15.3185 9.64231 15.3181 9.59996 15.3261C8.76009 15.4858 7.90688 15.5645 7.05198 15.5611C5.51379 15.5902 3.98589 15.3047 2.56199 14.7221C2.07773 14.522 1.63642 14.2307 1.262 13.8641C1.00462 13.6247 0.850705 13.2943 0.832989 12.9431V11.4191C1.25367 11.8271 1.74632 12.1537 2.28599 12.3821C3.79702 13.0018 5.41915 13.3047 7.05198 13.2721C7.60894 13.2731 8.1655 13.2424 8.71898 13.1801C8.8049 13.1696 8.8832 13.1257 8.93693 13.0578C8.99066 12.9899 9.0155 12.9036 9.00602 12.8176C8.99655 12.7315 8.95354 12.6527 8.88633 12.5981C8.81912 12.5436 8.73311 12.5177 8.64695 12.5261C8.1158 12.5871 7.58161 12.6174 7.04698 12.6171C5.50891 12.6458 3.98115 12.3607 2.55699 11.7791C2.07288 11.5778 1.63166 11.2859 1.257 10.9191C0.999611 10.6797 0.8457 10.3493 0.827984 9.99813C0.830612 9.97789 0.830612 9.95739 0.827984 9.93714V8.14714C1.24844 8.55492 1.74118 8.88081 2.28099 9.10813C5.34796 10.2943 8.74703 10.2943 11.814 9.10813C12.3538 8.88081 12.8465 8.55492 13.2669 8.14714V9.01614C13.2669 9.10287 13.3014 9.18605 13.3628 9.24737C13.4241 9.30869 13.5072 9.34313 13.594 9.34313C13.6807 9.34313 13.7639 9.30869 13.8252 9.24737C13.8865 9.18605 13.921 9.10287 13.921 9.01614V3.37715C13.9184 3.37047 13.915 3.36409 13.911 3.35813C13.8713 2.87495 13.6611 2.42161 13.318 2.07914C12.8891 1.64652 12.3795 1.30234 11.818 1.06614C10.307 0.446229 8.68479 0.143622 7.05198 0.177135ZM7.05198 0.831142C8.59045 0.802587 10.1186 1.08807 11.5429 1.67015C12.0274 1.87089 12.4688 2.16285 12.843 2.53015C12.9775 2.64278 13.0856 2.78352 13.1598 2.94247C13.234 3.10142 13.2725 3.27472 13.2725 3.45015C13.2725 3.62557 13.234 3.79885 13.1598 3.95781C13.0856 4.11676 12.9775 4.25751 12.843 4.37014C12.4688 4.73746 12.0274 5.02942 11.5429 5.23014C8.65344 6.34694 5.4515 6.34694 2.56199 5.23014C2.07786 5.02885 1.63664 4.73696 1.262 4.37014C1.00462 4.13066 0.850705 3.80026 0.832989 3.44914V3.41914C0.860031 3.07936 1.01305 2.76195 1.262 2.52914C1.63664 2.16233 2.07786 1.87043 2.56199 1.66914C3.98577 1.08578 5.51357 0.798931 7.05198 0.826137V0.831142ZM0.832989 4.87114C1.25364 5.27918 1.7463 5.60571 2.28599 5.83415C5.35293 7.0205 8.75201 7.0205 11.819 5.83415C12.3586 5.60569 12.8513 5.27916 13.272 4.87114V6.72314C13.2541 7.07466 13.0995 7.40525 12.841 7.64415C12.4662 8.01028 12.025 8.30149 11.541 8.50215C8.65181 9.62067 5.44917 9.62067 2.55998 8.50215C2.07627 8.30095 1.63515 8.0098 1.25999 7.64415C1.0026 7.40466 0.848691 7.07427 0.830975 6.72314C0.83358 6.70289 0.83358 6.68239 0.830975 6.66214L0.832989 4.87114ZM15.848 9.77114C15.7685 9.78141 15.6954 9.82045 15.6427 9.88089C15.59 9.94132 15.5613 10.019 15.562 10.0991V11.0601C15.2793 10.7275 14.9285 10.4594 14.5332 10.2741C14.138 10.0888 13.7075 9.99059 13.271 9.98614C12.6214 9.98594 11.9864 10.1784 11.4462 10.5391C10.906 10.8998 10.485 11.4127 10.2362 12.0127C9.98754 12.6128 9.92233 13.2731 10.0489 13.9102C10.1755 14.5473 10.4883 15.1326 10.9475 15.5919C11.4067 16.0513 11.9919 16.3642 12.6289 16.491C13.266 16.6178 13.9263 16.5528 14.5265 16.3043C15.1266 16.0557 15.6396 15.6348 16.0005 15.0947C16.3614 14.5547 16.554 13.9197 16.554 13.2701C16.554 13.1806 16.5184 13.0948 16.4551 13.0315C16.3918 12.9682 16.306 12.9326 16.2165 12.9326C16.127 12.9326 16.0411 12.9682 15.9778 13.0315C15.9145 13.0948 15.8789 13.1806 15.8789 13.2701C15.8789 13.7862 15.7259 14.2907 15.4392 14.7197C15.1525 15.1488 14.745 15.4832 14.2682 15.6806C13.7914 15.8781 13.2667 15.9297 12.7606 15.8289C12.2545 15.7282 11.7896 15.4796 11.4248 15.1146C11.0599 14.7497 10.8115 14.2847 10.711 13.7785C10.6104 13.2724 10.6622 12.7477 10.8598 12.271C11.0575 11.7943 11.392 11.3869 11.8212 11.1004C12.2504 10.8138 12.7549 10.6609 13.271 10.6611C13.6442 10.6663 14.0113 10.7566 14.3443 10.925C14.6774 11.0934 14.9676 11.3356 15.193 11.6331H14.034C13.9894 11.6307 13.9449 11.6373 13.903 11.6527C13.8611 11.668 13.8228 11.6917 13.7904 11.7224C13.7581 11.753 13.7322 11.79 13.7146 11.8309C13.6969 11.8719 13.6878 11.916 13.6878 11.9606C13.6878 12.0052 13.6969 12.0494 13.7146 12.0903C13.7322 12.1313 13.7581 12.1682 13.7904 12.1989C13.8228 12.2295 13.8611 12.2533 13.903 12.2686C13.9449 12.284 13.9894 12.2906 14.034 12.2881H16.223V10.0991C16.2233 10.0524 16.2136 10.0062 16.1944 9.96353C16.1753 9.9209 16.1472 9.88291 16.112 9.85214C16.077 9.81956 16.0354 9.795 15.99 9.78015C15.9446 9.7653 15.8964 9.76051 15.849 9.76614L15.848 9.77114Z" fill="#1A6634"/>
</svg>
