<svg width="20" height="20" viewBox="0 0 20 20" fill="none" xmlns="http://www.w3.org/2000/svg">
<path d="M18.7003 11.412H1.30031L0.000305176 9.56599L1.73931 7.71899H18.2613L20.0003 9.56599L18.7003 11.412Z" fill="#0E512B"/>
<path d="M17.2963 20H2.70531C2.59185 19.9992 2.47965 19.9761 2.37513 19.9319C2.2706 19.8878 2.17579 19.8235 2.09612 19.7427C2.01645 19.6619 1.95347 19.5662 1.91078 19.4611C1.86809 19.356 1.84652 19.2435 1.84731 19.13V0.87C1.84652 0.756537 1.86809 0.64403 1.91078 0.538902C1.95347 0.433774 2.01645 0.338084 2.09612 0.257296C2.17579 0.176509 2.2706 0.112206 2.37513 0.0680586C2.47965 0.0239116 2.59185 0.000785201 2.70531 0H13.0053L18.1553 5.217V19.13C18.1561 19.2435 18.1345 19.3561 18.0917 19.4613C18.049 19.5665 17.9859 19.6623 17.9061 19.7431C17.8264 19.8239 17.7314 19.8881 17.6268 19.9322C17.5222 19.9763 17.4099 19.9993 17.2963 20Z" fill="#E6E6E6"/>
<path d="M12.6143 0V4.616C12.6143 4.8608 12.7116 5.09556 12.8847 5.26866C13.0578 5.44176 13.2925 5.539 13.5373 5.539H18.1543L12.6143 0Z" fill="#B3B3B3"/>
<path d="M19.1303 17.23H0.870307C0.632817 17.2222 0.408063 17.1207 0.245079 16.9478C0.0820941 16.7749 -0.00589491 16.5446 0.000306953 16.307V8.92102H20.0003V16.307C20.0065 16.5446 19.9185 16.7749 19.7555 16.9478C19.5926 17.1207 19.3678 17.2222 19.1303 17.23Z" fill="#1B7343"/>
<path d="M7.37729 15.278H6.24429L5.53929 14.145L4.83929 15.278H3.73029L4.93029 13.423L3.79929 11.653H4.88529L5.54029 12.774L6.17029 11.653H7.28829L6.13929 13.5L7.37729 15.278Z" fill="white"/>
<path d="M7.53833 15.278V11.653H8.51833V14.487H9.91833V15.278H7.53833Z" fill="white"/>
<path d="M12.6753 14.176C12.6792 14.3885 12.6196 14.5974 12.5043 14.776C12.383 14.9567 12.2117 15.0981 12.0113 15.183C11.7725 15.2845 11.5147 15.3339 11.2553 15.328C11.0514 15.3312 10.8478 15.3141 10.6473 15.277C10.4704 15.2389 10.2988 15.1795 10.1363 15.1V14.225C10.322 14.3204 10.5175 14.3955 10.7193 14.449C10.9001 14.4995 11.0866 14.5263 11.2743 14.529C11.3862 14.5378 11.498 14.5116 11.5943 14.454C11.6257 14.4322 11.6513 14.4031 11.6688 14.369C11.6862 14.335 11.695 14.2972 11.6943 14.259C11.6949 14.2124 11.6805 14.1668 11.6533 14.129C11.6165 14.0836 11.5718 14.0454 11.5213 14.016C11.4613 13.978 11.3003 13.9 11.0393 13.783C10.8487 13.7031 10.6697 13.5978 10.5073 13.47C10.3942 13.376 10.3042 13.2573 10.2443 13.123C10.1839 12.9763 10.1546 12.8186 10.1583 12.66C10.1514 12.51 10.181 12.3606 10.2446 12.2245C10.3082 12.0885 10.4038 11.9699 10.5233 11.879C10.8165 11.6777 11.1682 11.5792 11.5233 11.599C11.92 11.6038 12.3112 11.6924 12.6713 11.859L12.3713 12.615C12.0983 12.4764 11.7991 12.397 11.4933 12.382C11.3958 12.374 11.2984 12.3975 11.2153 12.449C11.1883 12.4674 11.1663 12.4922 11.1511 12.5212C11.136 12.5501 11.1281 12.5823 11.1283 12.615C11.1301 12.6533 11.141 12.6906 11.1602 12.7238C11.1793 12.757 11.2061 12.7852 11.2383 12.806C11.4296 12.9244 11.6303 13.0271 11.8383 13.113C12.0886 13.2089 12.3119 13.364 12.4893 13.565C12.6173 13.7424 12.6827 13.9573 12.6753 14.176Z" fill="white"/>
<path d="M16.2653 15.278H15.1323L14.4213 14.145L13.7213 15.278H12.6213L13.8213 13.423L12.6903 11.653H13.7763L14.4313 12.774L15.0613 11.653H16.1793L15.0313 13.5L16.2653 15.278Z" fill="white"/>
</svg>
