<svg width="56" height="17" viewBox="0 0 56 17" fill="none" xmlns="http://www.w3.org/2000/svg">
<path d="M1.59961 5.60156C1.59961 3.39243 3.39047 1.60156 5.59961 1.60156H55.9996V13.0016C55.9996 14.6584 54.6565 16.0016 52.9996 16.0016H1.59961V5.60156Z" fill="#31B3C8"/>
<path d="M0.25 4C0.25 1.92893 1.92893 0.25 4 0.25H54.15V11.4C54.15 12.9188 52.9188 14.15 51.4 14.15H0.25V4Z" stroke="#31B3C8" stroke-width="0.5"/>
<path d="M9.523 11.8161C9.04319 11.5575 8.65363 11.1613 8.40549 10.6794C8.13085 10.1341 7.99252 9.5315 8.00214 8.92225C7.98045 8.22833 8.12401 7.5391 8.4212 6.91027C8.68833 6.35156 9.1167 5.88373 9.65221 5.56584C10.2219 5.2402 10.8698 5.07297 11.5275 5.08185C11.9602 5.07347 12.3915 5.13118 12.8064 5.25297C13.1536 5.35053 13.4802 5.50948 13.7702 5.72211C13.8592 5.77242 13.9331 5.84512 13.9845 5.93285C14.0359 6.02059 14.063 6.12021 14.0629 6.22163C14.0674 6.35689 14.0207 6.48895 13.9319 6.59189C13.8904 6.64153 13.8381 6.68128 13.7789 6.70821C13.7197 6.73514 13.6552 6.74854 13.59 6.74744C13.472 6.74916 13.3567 6.71276 13.2614 6.64373C12.7757 6.28491 12.1819 6.09901 11.5761 6.11619C11.2551 6.10327 10.9356 6.16511 10.6432 6.29672C10.3507 6.42834 10.0936 6.62605 9.89248 6.87397C9.46293 7.46857 9.25486 8.19216 9.30369 8.92155C9.26851 9.52425 9.45565 10.1191 9.83032 10.5954C10.0153 10.7929 10.2426 10.9467 10.4955 11.0459C10.7484 11.145 11.0205 11.1868 11.2918 11.1683C11.8941 11.1532 12.478 10.9597 12.9681 10.6127C13.0628 10.5514 13.1724 10.5164 13.2855 10.5114C13.3441 10.5093 13.4024 10.5204 13.456 10.5439C13.5096 10.5674 13.5571 10.6026 13.5949 10.647C13.6757 10.7394 13.7192 10.858 13.7172 10.9802C13.7181 11.0768 13.6955 11.1723 13.6513 11.2584C13.607 11.3445 13.5424 11.4188 13.4629 11.4749C13.177 11.7062 12.8497 11.8821 12.498 11.9935C12.0869 12.1307 11.6559 12.2008 11.222 12.2009C10.6316 12.22 10.0462 12.0875 9.523 11.8161Z" fill="white"/>
<path d="M16.1745 11.7591C15.6855 11.5048 15.2854 11.1105 15.0262 10.6277C14.7446 10.0824 14.6029 9.47687 14.6134 8.86457C14.5923 8.17438 14.7308 7.48855 15.0185 6.8595C15.2721 6.30897 15.6806 5.84245 16.1951 5.51578C16.7312 5.18827 17.3507 5.01915 17.9806 5.02833C18.5868 5.00842 19.1883 5.1404 19.7292 5.41205C20.2178 5.66678 20.6179 6.06099 20.8774 6.54353C21.1593 7.08872 21.301 7.69428 21.2902 8.30662C21.3114 8.99681 21.1728 9.68264 20.8851 10.3117C20.6313 10.8621 20.2229 11.3285 19.7086 11.6554C19.1723 11.9827 18.5529 12.1519 17.923 12.1432C17.3168 12.163 16.7153 12.0309 16.1745 11.7591ZM19.4491 10.3736C19.8537 9.76537 20.0465 9.04294 19.9981 8.31628C20.0329 7.70658 19.8439 7.10498 19.4659 6.62236C19.2814 6.42226 19.0537 6.26589 18.7998 6.16492C18.5459 6.06395 18.2722 6.02097 17.9991 6.03916C17.6969 6.03021 17.3971 6.09489 17.1261 6.2275C16.8551 6.36011 16.6211 6.55661 16.4448 6.79971C16.0402 7.41029 15.8473 8.13455 15.8951 8.86319C15.8595 9.47129 16.0487 10.0714 16.4273 10.5516C16.6143 10.7508 16.8439 10.9061 17.0994 11.0061C17.3549 11.106 17.6297 11.1481 17.9038 11.1293C18.2042 11.1381 18.5022 11.0739 18.7717 10.9422C19.0412 10.8105 19.2739 10.6154 19.4495 10.3739L19.4491 10.3736Z" fill="white"/>
<path d="M29.485 5.12392C29.5368 5.18482 29.5755 5.2556 29.5985 5.33191C29.6215 5.40821 29.6284 5.48839 29.6188 5.56744L29.2021 11.4444C29.1991 11.6021 29.1345 11.7526 29.0219 11.8644C28.9108 11.9678 28.7631 12.0239 28.6106 12.0207C28.5357 12.0241 28.4609 12.0117 28.3912 11.9843C28.3215 11.9569 28.2586 11.915 28.2065 11.8616C28.1534 11.8046 28.1134 11.7368 28.0893 11.663C28.0652 11.5892 28.0575 11.511 28.0668 11.434L28.35 7.40657L26.4485 10.5625C26.3754 10.6812 26.2807 10.7854 26.1691 10.8698C26.0748 10.9357 25.9622 10.9711 25.8468 10.9711C25.7311 10.9751 25.6173 10.9415 25.5227 10.8753C25.4178 10.7919 25.3341 10.6854 25.2783 10.5642L23.8095 7.50579L23.5262 11.4945C23.5206 11.6513 23.4541 11.7999 23.3404 11.9093C23.2287 12.0152 23.0792 12.0732 22.9245 12.0704C22.8503 12.0743 22.7761 12.0621 22.7072 12.0346C22.6382 12.0071 22.5762 11.9651 22.5254 11.9114C22.474 11.8536 22.4356 11.7856 22.4127 11.712C22.3898 11.6384 22.3828 11.5609 22.3923 11.4845L22.8089 5.64385C22.8143 5.47514 22.8837 5.31464 23.0034 5.19444C23.0623 5.1371 23.1321 5.09198 23.2088 5.06176C23.2855 5.03154 23.3676 5.01684 23.4501 5.01849C23.58 5.01969 23.7063 5.06049 23.8119 5.13534C23.9175 5.21019 23.9973 5.31545 24.0403 5.43677L25.9261 9.54473L28.4356 5.3794C28.4947 5.25874 28.5856 5.15611 28.6988 5.08242C28.812 5.00873 28.9432 4.96668 29.0785 4.96074C29.1542 4.95659 29.2299 4.96907 29.3002 4.99728C29.3705 5.02549 29.4336 5.06875 29.485 5.12392Z" fill="white"/>
<path d="M36.1203 8.91143C36.3264 9.20293 36.434 9.55159 36.4276 9.90738C36.4442 10.187 36.3932 10.4665 36.2787 10.7227C36.1642 10.9788 35.9896 11.2042 35.7693 11.3801C35.2383 11.7586 34.5934 11.9478 33.9397 11.9169L31.3248 11.9394C31.2437 11.9453 31.1622 11.9342 31.0857 11.9069C31.0093 11.8796 30.9395 11.8366 30.8809 11.7807C30.8263 11.7187 30.7856 11.646 30.7615 11.5672C30.7374 11.4885 30.7305 11.4056 30.7412 11.3241L31.1501 5.60203C31.1517 5.43502 31.22 5.27541 31.3401 5.15815C31.4672 5.04757 31.6324 4.98963 31.8014 4.99636L34.1674 4.97631C34.7752 4.93112 35.3807 5.08939 35.8866 5.42572C36.0806 5.57253 36.2364 5.76297 36.3411 5.98126C36.4459 6.19955 36.4966 6.4394 36.4891 6.68095C36.5018 7.04339 36.3949 7.40009 36.1845 7.69698C35.9494 8.00201 35.6276 8.23069 35.2605 8.3538C35.6055 8.4313 35.9107 8.62927 36.1203 8.91143ZM32.378 5.97573L32.2355 7.91547L33.886 7.90163C34.2489 7.92471 34.61 7.83399 34.9179 7.64235C35.0332 7.54764 35.1235 7.42667 35.1812 7.28981C35.2388 7.15295 35.2621 7.00428 35.249 6.85657C35.2438 6.25298 34.8237 5.95477 33.9886 5.96191L32.378 5.97573ZM34.8844 10.669C35.0035 10.5716 35.0969 10.447 35.1564 10.3058C35.2158 10.1647 35.2396 10.0113 35.2256 9.85898C35.2343 9.72011 35.2099 9.58117 35.1543 9.45338C35.0987 9.32558 35.0136 9.21251 34.9057 9.12333C34.6208 8.94083 34.2827 8.85718 33.9446 8.88549L32.1636 8.90071L32.0239 10.949L33.8437 10.9334C34.2096 10.9557 34.5733 10.8632 34.883 10.669H34.8844Z" fill="white"/>
<path d="M39.0712 11.5642C38.5822 11.3099 38.1821 10.9154 37.9233 10.4324C37.641 9.88731 37.499 9.28169 37.5098 8.66928C37.4891 7.97912 37.6277 7.29339 37.9149 6.66422C38.1688 6.11364 38.5773 5.64703 39.0918 5.32013C39.6281 4.9932 40.2473 4.82424 40.877 4.83304C41.4832 4.81301 42.0847 4.94488 42.6256 5.21642C43.1145 5.47098 43.5146 5.86538 43.7738 6.34824C44.0557 6.89343 44.1975 7.49899 44.1866 8.11133C44.2078 8.80152 44.0692 9.48735 43.7815 10.1164C43.5276 10.6667 43.1192 11.1332 42.605 11.4601C42.0687 11.7872 41.4493 11.9563 40.8194 11.9476C40.2134 11.9675 39.612 11.8357 39.0712 11.5642ZM42.3455 10.1783C42.7503 9.57027 42.9431 8.84792 42.8945 8.12135C42.9296 7.5116 42.7406 6.90987 42.3623 6.42741C42.1778 6.22735 41.9501 6.07105 41.6962 5.97013C41.4422 5.86922 41.1686 5.82631 40.8955 5.84457C40.5933 5.83543 40.2935 5.90002 40.0224 6.03265C39.7513 6.16528 39.5174 6.36188 39.3412 6.60511C38.9368 7.21511 38.7441 7.93884 38.7922 8.66687C38.7567 9.27501 38.9457 9.87518 39.324 10.3556C39.5275 10.5535 39.7706 10.7069 40.0377 10.8059C40.3048 10.905 40.5899 10.9474 40.8746 10.9306C41.1593 10.9138 41.4373 10.8381 41.6906 10.7083C41.9439 10.5785 42.1669 10.3976 42.3452 10.1772L42.3455 10.1783Z" fill="white"/>
<path d="M48.3021 9.68807C48.233 9.60906 48.1951 9.50804 48.1952 9.40356L48.1023 5.57561C48.0892 5.46958 48.1007 5.36197 48.136 5.26101C48.1713 5.16006 48.2294 5.06843 48.3059 4.99311C48.4706 4.8604 48.6787 4.79201 48.8909 4.80089C49.0772 4.79116 49.2609 4.84715 49.4095 4.95888C49.4758 5.01271 49.5286 5.08101 49.5637 5.15845C49.5989 5.23589 49.6154 5.32034 49.612 5.40517C49.6099 5.46129 49.6038 5.5172 49.5938 5.57249L48.9509 9.39733C48.9404 9.50562 48.8919 9.60686 48.814 9.68358C48.7413 9.75009 48.6455 9.78625 48.5465 9.78452C48.5012 9.78643 48.456 9.77882 48.4139 9.76219C48.3717 9.74557 48.3336 9.72032 48.3021 9.68807ZM47.9267 11.6451C47.791 11.5032 47.7147 11.3158 47.7129 11.1204C47.7112 10.9251 47.7842 10.7363 47.9172 10.5921C48.0572 10.4551 48.2456 10.3776 48.4424 10.376C48.6392 10.3744 48.8289 10.4488 48.9712 10.5834C49.1066 10.7254 49.1828 10.9128 49.1845 11.1081C49.1863 11.3034 49.1134 11.4921 48.9806 11.6364C48.8405 11.7731 48.6521 11.8505 48.4554 11.8521C48.2587 11.8537 48.069 11.7795 47.9267 11.6451Z" fill="white"/>
</svg>
