<svg width="77" height="16" viewBox="0 0 77 16" fill="none" xmlns="http://www.w3.org/2000/svg">
<path d="M33.0853 12.9337C33.0853 13.3539 32.8366 13.5638 32.3395 13.5638C31.8592 13.5638 31.6193 13.3539 31.6193 12.9337V11.8534L31.6064 9.93716C31.392 9.93716 31.1198 9.93716 30.7899 9.93716C30.4597 9.93716 30.0633 9.94164 29.6002 9.95001C29.1372 9.95867 28.7342 9.96286 28.3913 9.96286C28.0482 9.96286 27.7567 9.96286 27.5168 9.96286L27.5425 12.9722C27.5425 13.3667 27.2895 13.5638 26.7836 13.5638C26.312 13.5638 26.0762 13.3625 26.0762 12.9594C26.0762 12.788 26.0783 12.5267 26.0827 12.175C26.0868 11.8235 26.0933 11.3777 26.1019 10.8375C26.1103 9.77444 26.1103 8.95131 26.1019 8.36829L26.0505 5.4233C26.0505 4.98596 26.3032 4.76736 26.8093 4.76736C27.2723 4.76736 27.5038 4.95174 27.5038 5.32035V6.68362C27.5038 7.0095 27.5038 7.33523 27.5038 7.6611C27.5038 7.98713 27.5079 8.32137 27.5166 8.66428H27.9281H28.7641H29.8701H30.9889L31.6448 8.65143V6.92762V5.43585C31.6533 4.96444 31.8976 4.72852 32.3779 4.72852C32.8493 4.72852 33.0852 4.95996 33.0852 5.423C33.0852 6.12615 33.0852 6.79061 33.0852 7.41636C33.0852 8.04226 33.0809 8.63813 33.0723 9.20397L33.0853 12.9337Z" fill="#BDBDBD"/>
<path d="M34.3745 12.924C34.3745 12.7526 34.4473 12.5082 34.5931 12.1909L35.8663 9.23296L37.4481 5.28479C37.5852 4.9504 37.8553 4.7832 38.2583 4.7832C38.704 4.7832 38.9913 4.95907 39.12 5.31049C39.1884 5.48202 39.2936 5.7435 39.4349 6.09493C39.5764 6.44665 39.7501 6.89221 39.9558 7.4325C40.3673 8.50441 40.6503 9.22459 40.8046 9.59305C40.8131 9.60172 40.8432 9.6573 40.8947 9.76025C40.9546 9.88038 40.989 9.95763 40.9975 9.99169C41.4175 11.0636 41.7648 11.9123 42.0393 12.538C42.1164 12.7096 42.1549 12.8641 42.1549 13.0011C42.1549 13.1382 42.0778 13.2712 41.9235 13.3997C41.7691 13.5284 41.5846 13.5926 41.3705 13.5926C41.1818 13.5926 41.0361 13.5541 40.9333 13.4768C40.8305 13.3997 40.7404 13.2669 40.6631 13.0782C40.2343 11.9894 40.0157 11.3978 40.0072 11.3034C39.8612 11.2949 39.6021 11.2906 39.229 11.2906C38.8559 11.2906 38.3738 11.2906 37.7822 11.2906H36.5219C36.5046 11.3336 36.4725 11.4192 36.4254 11.5479C36.3782 11.6765 36.316 11.848 36.2389 12.0623C36.1617 12.2767 36.0952 12.4568 36.0396 12.6024C35.9837 12.7483 35.9346 12.8682 35.8917 12.9625C35.7972 13.1769 35.7073 13.3271 35.6215 13.4127C35.5271 13.507 35.3943 13.5542 35.2229 13.5542C34.9998 13.5542 34.8069 13.4985 34.6441 13.387C34.481 13.2757 34.3998 13.1085 34.3998 12.8854L34.3745 12.924ZM38.2584 6.51927C38.1984 6.69931 38.0569 7.09377 37.8341 7.70249C37.611 8.31136 37.3023 9.14286 36.9082 10.1974C37.4483 10.1974 37.937 10.1953 38.3744 10.191C38.8116 10.1868 39.2104 10.1804 39.5703 10.1717L38.2714 6.51927H38.2584Z" fill="#BDBDBD"/>
<path d="M48.9927 5.10192C49.4214 5.2993 49.6358 5.54359 49.6358 5.83495C49.6185 6.04936 49.5629 6.21656 49.4686 6.33639C49.3658 6.4737 49.2157 6.53377 49.0184 6.51644C48.8554 6.51644 48.6667 6.46071 48.4526 6.34924C47.9724 6.1435 47.4965 6.04055 47.0251 6.04055C46.3133 6.04055 45.6875 6.34924 45.1474 6.96648C44.6157 7.57535 44.3414 8.35127 44.3244 9.29423C44.3159 10.1431 44.5815 10.8591 45.1217 11.4421C45.6618 12.0253 46.3133 12.3166 47.0765 12.3166C47.625 12.3339 48.1524 12.1925 48.6583 11.8923C48.7012 11.8752 48.7484 11.8495 48.7998 11.8152C48.8512 11.781 48.8899 11.7553 48.9156 11.7379C48.9413 11.7294 48.9799 11.7166 49.0313 11.6994C49.0999 11.6823 49.1599 11.6737 49.2113 11.6737C49.3827 11.6737 49.52 11.7508 49.6228 11.9051C49.7256 12.0595 49.7772 12.231 49.7772 12.4196C49.76 12.7281 49.4513 13.0111 48.8512 13.2684C48.234 13.5257 47.5909 13.6499 46.9221 13.6413C45.8245 13.624 44.8778 13.2255 44.0822 12.4453C43.2918 11.6565 42.901 10.6149 42.9096 9.32008C42.9181 8.62559 43.0454 7.98251 43.2921 7.39097C43.5299 6.79943 43.8485 6.31069 44.2477 5.9249C44.6416 5.54777 45.0915 5.2476 45.5976 5.02467C46.0863 4.81041 46.6007 4.70312 47.1409 4.70312C47.8694 4.72046 48.4953 4.83625 49.0184 5.05037L48.9927 5.10192Z" fill="#BDBDBD"/>
<path d="M58.163 12.9317C58.163 13.3519 57.9142 13.5618 57.4171 13.5618C56.9369 13.5618 56.6969 13.3519 56.6969 12.9317V11.8515L56.6841 9.9352C56.4696 9.9352 56.1974 9.9352 55.8675 9.9352C55.5373 9.9352 55.1409 9.93969 54.6778 9.94805C54.2148 9.95672 53.8118 9.9609 53.4689 9.9609C53.1259 9.9609 52.8344 9.9609 52.5944 9.9609L52.6201 12.9703C52.6201 13.3647 52.3671 13.5618 51.8612 13.5618C51.3896 13.5618 51.1539 13.3606 51.1539 12.9574C51.1539 12.7861 51.156 12.5247 51.1603 12.173C51.1645 11.8216 51.1709 11.3757 51.1796 10.8356C51.1879 9.77249 51.1879 8.94936 51.1796 8.36634L51.1282 5.42135C51.1282 4.98401 51.3808 4.76541 51.8869 4.76541C52.3499 4.76541 52.5814 4.94979 52.5814 5.3184V6.68167C52.5814 7.00755 52.5814 7.33327 52.5814 7.65915C52.5814 7.98518 52.5856 8.31942 52.5942 8.66233H53.0057H53.8417H54.9477H56.0665L56.7225 8.64948V6.92567V5.4339C56.731 4.96249 56.9753 4.72656 57.4555 4.72656C57.9269 4.72656 58.1628 4.95801 58.1628 5.42105C58.1628 6.1242 58.1628 6.78865 58.1628 7.41441C58.1628 8.04031 58.1585 8.63618 58.15 9.20202L58.163 12.9317Z" fill="#BDBDBD"/>
<path d="M60.3372 8.22469C60.3372 8.02761 60.335 7.6974 60.3308 7.23451C60.3265 6.77147 60.32 6.1629 60.3115 5.4082C60.3115 5.18542 60.3837 5.01389 60.5282 4.89376C60.664 4.78244 60.8427 4.72656 61.0637 4.72656C61.2675 4.72656 61.4333 4.77796 61.5606 4.88091C61.6879 4.98386 61.7519 5.13387 61.7519 5.3311V8.45628V9.51086V10.4883L61.7647 12.8418C61.7733 13.0819 61.7138 13.262 61.5862 13.3819C61.4673 13.4934 61.293 13.5491 61.0637 13.5491C60.8427 13.5491 60.6643 13.4934 60.5283 13.3819C60.3922 13.2706 60.3244 13.1034 60.3244 12.8803V12.3402V11.7358L60.3501 8.21199L60.3372 8.22469Z" fill="#BDBDBD"/>
<path d="M66.0575 6.06661C65.5687 6.06661 65.0972 6.29388 64.6428 6.74825C64.4284 6.96266 64.1969 7.06979 63.9483 7.06979C63.7853 7.06979 63.6398 7.00554 63.5111 6.8769C63.3825 6.74825 63.3182 6.5939 63.3182 6.41386C63.3182 6.1482 63.4983 5.86535 63.8584 5.56503C64.4928 4.99067 65.213 4.70334 66.0189 4.70334C66.8504 4.69483 67.5648 4.93479 68.1619 5.42353C68.748 5.91227 69.0412 6.55521 69.0412 7.35264C69.0412 7.55002 69.0283 7.73006 69.0031 7.89278C68.9774 8.05579 68.9136 8.22717 68.8118 8.40722C68.7096 8.58726 68.6334 8.72876 68.5823 8.83156C68.5228 8.94317 68.4039 9.09737 68.2255 9.2946C68.1318 9.3974 68.0532 9.48107 67.9896 9.54547C67.9259 9.60972 67.8812 9.65469 67.8558 9.68054C67.8301 9.70624 67.7771 9.75764 67.6963 9.83489C67.6154 9.91213 67.5064 10.0149 67.3694 10.1436C67.2322 10.2721 67.1251 10.375 67.0478 10.4521C66.9706 10.5294 66.9192 10.5808 66.8935 10.6065L65.1958 12.201C65.5644 12.2184 66.2846 12.2184 67.3564 12.201C67.485 12.201 67.6555 12.1989 67.8681 12.1946C68.0807 12.1904 68.3356 12.184 68.6331 12.1753C68.8199 12.1753 68.973 12.2397 69.0924 12.3684C69.2124 12.5055 69.2725 12.6641 69.2725 12.8443C69.2725 13.3245 69.0337 13.5558 68.5566 13.5388H67.83H67.0218C66.4473 13.5388 65.9136 13.5388 65.4207 13.5388C64.9276 13.5388 64.471 13.5343 64.051 13.5259C63.8279 13.5259 63.6437 13.4531 63.498 13.3073C63.3607 13.1703 63.2922 12.9816 63.2922 12.7415C63.2922 12.4243 63.4678 12.09 63.8195 11.7383L66.1603 9.50049L66.4046 9.25605C66.473 9.18762 66.5268 9.13188 66.5653 9.08885C66.6039 9.04597 66.6317 9.01609 66.649 8.99875C66.666 8.98172 66.694 8.95378 66.7325 8.91508C66.7711 8.87653 66.8162 8.82722 66.8676 8.76716C66.919 8.70724 66.9641 8.65794 67.0027 8.61924C67.0412 8.58054 67.069 8.54841 67.0864 8.52271C67.1206 8.47983 67.1806 8.40692 67.2664 8.30412C67.3436 8.2185 67.3951 8.14141 67.4208 8.07267C67.4378 8.03846 67.455 8.00185 67.4721 7.96345C67.4892 7.9249 67.5064 7.88426 67.5235 7.84123C67.5664 7.74695 67.5921 7.66566 67.6008 7.59693C67.6093 7.55405 67.6157 7.5155 67.6201 7.48114C67.6243 7.44692 67.6265 7.40837 67.6265 7.36549C67.6265 6.97118 67.4805 6.65397 67.1892 6.41371C66.889 6.16508 66.516 6.04077 66.0703 6.04077L66.0575 6.06661Z" fill="#BDBDBD"/>
<path d="M74.1703 8.86989C74.1703 8.35545 74.376 8.09815 74.7875 8.09815C75.0273 8.09815 75.199 8.1497 75.302 8.2525C75.4047 8.36396 75.4647 8.52698 75.4818 8.74124L75.469 10.4775L76.3692 10.4646C76.7892 10.4561 76.9995 10.649 76.9995 11.0433C76.9995 11.5148 76.8021 11.7506 76.4078 11.7506H75.469V12.9339C75.4518 13.1483 75.3961 13.3026 75.302 13.3969C75.2074 13.4913 75.0402 13.5468 74.8004 13.5641C74.3545 13.5641 74.1316 13.3542 74.1316 12.934V12.3552V11.7508H72.5112H70.9293C70.6805 11.7508 70.492 11.6737 70.3633 11.5193C70.2348 11.365 70.1704 11.1849 70.1704 10.9792C70.1704 10.662 70.2689 10.3448 70.4663 10.0274C70.8434 9.37596 71.2484 8.64711 71.6816 7.84116C72.1145 7.03536 72.5883 6.14349 73.1027 5.16616C73.2654 4.85762 73.497 4.70312 73.7972 4.70312C73.9856 4.70312 74.1656 4.76752 74.3373 4.89602C74.5087 5.02467 74.5946 5.16616 74.5946 5.32036C74.5946 5.40628 74.5603 5.53896 74.4918 5.719C74.3802 5.92475 74.2474 6.16486 74.0932 6.43919C73.9388 6.71367 73.7588 7.02236 73.553 7.36512C73.3473 7.70803 73.1758 7.99745 73.0386 8.23323C72.9014 8.46915 72.7985 8.65114 72.7301 8.77979L71.7911 10.516L74.1833 10.4903L74.1961 8.86989H74.1703Z" fill="#BDBDBD"/>
<path d="M16.0975 0C11.9015 0 8.5 3.44762 8.5 7.7006C8.5 11.9536 11.9015 15.4012 16.0975 15.4012C20.2934 15.4012 23.6949 11.9536 23.6949 7.7006C23.6949 3.44762 20.2934 0 16.0975 0ZM15.9152 14.3247C12.2902 14.3247 9.35182 11.3939 9.35182 7.7786C9.35182 4.16348 12.2904 1.23268 15.9152 1.23268C19.54 1.23268 22.4786 4.16348 22.4786 7.7786C22.4786 11.3939 19.54 14.3247 15.9152 14.3247Z" fill="#BDBDBD"/>
<path d="M16.2959 7.8666C16.2959 8.14466 16.0704 8.37013 15.7924 8.37013C15.5143 8.37013 15.2888 8.14466 15.2888 7.8666V4.53283C15.2888 4.25477 15.5143 4.0293 15.7924 4.0293C16.0704 4.0293 16.2959 4.25477 16.2959 4.53283V7.8666Z" fill="#BDBDBD"/>
<path d="M15.7299 8.36839C15.4863 8.36839 15.2888 8.14292 15.2888 7.86486C15.2888 7.5868 15.4863 7.36133 15.7299 7.36133H18.6502C18.8938 7.36133 19.0913 7.5868 19.0913 7.86486C19.0913 8.14292 18.8938 8.36839 18.6502 8.36839H15.7299Z" fill="#BDBDBD"/>
<path d="M16.0951 2.47148C16.0951 2.24885 15.9146 2.06836 15.6919 2.06836C15.4693 2.06836 15.2888 2.24885 15.2888 2.47148V2.93258C15.2888 3.15536 15.4693 3.33571 15.6919 3.33571C15.9146 3.33571 16.0951 3.15521 16.0951 2.93258V2.47148Z" fill="#BDBDBD"/>
<path d="M16.0951 12.4793C16.0951 12.2567 15.9146 12.0762 15.6919 12.0762C15.4693 12.0762 15.2888 12.2567 15.2888 12.4793V12.9404C15.2888 13.163 15.4693 13.3435 15.6919 13.3435C15.9146 13.3435 16.0951 13.163 16.0951 12.9404V12.4793Z" fill="#BDBDBD"/>
<path d="M21.0633 8.10703C21.286 8.10703 21.4665 7.92654 21.4665 7.70391C21.4665 7.48113 21.286 7.30078 21.0633 7.30078H20.6021C20.3795 7.30078 20.199 7.48128 20.199 7.70391C20.199 7.92654 20.3795 8.10703 20.6021 8.10703H21.0633Z" fill="#BDBDBD"/>
<path d="M11.0558 8.10898C11.2784 8.10898 11.4589 7.92849 11.4589 7.70586C11.4589 7.48308 11.2784 7.30273 11.0558 7.30273H10.5945C10.3719 7.30273 10.1914 7.48323 10.1914 7.70586C10.1914 7.92849 10.3719 8.10898 10.5945 8.10898H11.0558Z" fill="#BDBDBD"/>
<path d="M6.80635 8.17154C6.80635 8.53597 6.51095 8.83136 6.14653 8.83136H0.659821C0.295395 8.83136 0 8.53597 0 8.17154C0 7.80711 0.295395 7.51172 0.659821 7.51172H6.14653C6.51095 7.51172 6.80635 7.80711 6.80635 8.17154Z" fill="#BDBDBD"/>
<path d="M7.50122 12.4547C7.50122 12.8061 7.21643 13.0911 6.86485 13.0911H2.55824C2.20681 13.0911 1.92188 12.8061 1.92188 12.4547C1.92188 12.1031 2.20681 11.8184 2.55824 11.8184H6.865C7.21643 11.8184 7.50122 12.1031 7.50122 12.4547Z" fill="#BDBDBD"/>
<path d="M8.05588 10.2447C8.05588 10.6538 7.72417 10.9855 7.31507 10.9855H4.79159C4.38234 10.9855 4.05078 10.6538 4.05078 10.2447C4.05078 9.83561 4.38249 9.50391 4.79159 9.50391H7.31507C7.72417 9.50391 8.05588 9.83561 8.05588 10.2447Z" fill="#BDBDBD"/>
</svg>
