<svg width="28" height="34" viewBox="0 0 28 34" fill="none" xmlns="http://www.w3.org/2000/svg">
<g clip-path="url(#clip0_7860_16387)">
<path d="M23.0798 21.6863C22.9269 21.5682 22.7481 21.491 22.5592 21.4617C22.3703 21.4324 22.1773 21.4519 21.9975 21.5185C20.6021 19.6416 18.0751 19.3184 18.0751 19.3184L17.8108 21.1438L21.2974 22.9491C21.3628 23.1949 21.5056 23.4113 21.7034 23.5643C21.9449 23.7523 22.2491 23.8339 22.5489 23.7909C22.8488 23.7479 23.1198 23.5839 23.3023 23.335C23.4848 23.0861 23.5639 22.7727 23.5222 22.4637C23.4804 22.1547 23.3213 21.8755 23.0798 21.6874V21.6863Z" fill="black"/>
<path fill-rule="evenodd" clip-rule="evenodd" d="M12.1658 15.9416C12.5034 15.9014 12.8452 15.9556 13.1555 16.0986C13.4657 16.2416 13.7327 16.4681 13.9286 16.7542C12.1658 20.1065 13.3316 24.3093 13.8103 26.0095L12.226 26.2891C10.7639 23.2881 9.9753 17.7279 12.1658 15.9416Z" fill="#8AC440"/>
<path fill-rule="evenodd" clip-rule="evenodd" d="M7.12302 18.3215C7.20987 17.6067 8.09126 17.1738 10.0099 16.0391C9.03296 18.5619 9.33089 23.3012 10.8652 26.2435C9.8449 26.485 9.39985 25.8967 8.62316 25.7961C8.04573 24.8084 6.25897 24.4521 7.12302 18.3215Z" fill="#8AC440"/>
<path fill-rule="evenodd" clip-rule="evenodd" d="M4.32739 22.2026C5.8156 21.7362 6.26554 20.0578 6.23027 20.333C5.92578 22.626 6.48968 23.5768 6.71492 23.923C5.86737 23.4297 5.06785 22.8537 4.32739 22.2026Z" fill="#8AC440"/>
<path d="M23.7903 15.7309C23.1661 18.393 17.7446 17.7112 18.5962 15.5122C18.2249 16.643 17.2345 16.5066 17.242 17.1995C17.3112 17.5555 17.4638 17.8885 17.6866 18.1696C17.9094 18.4507 18.1956 18.6714 18.5202 18.8124C19.1338 19.0175 19.7947 19.0175 20.4084 18.8124C20.7639 18.3198 24.8709 17.3986 23.7903 15.7309ZM18.2895 16.9646C18.7628 17.8516 19.8521 17.8399 20.6695 18.2297C19.667 19.4791 16.905 17.9937 18.2895 16.9646Z" fill="black"/>
<path d="M23.7227 10.812C22.6822 13.0233 26.2035 12.4126 24.5134 10.6772L23.7227 10.812Z" fill="black"/>
<path d="M22.5008 7.70415C21.9824 6.43741 22.7179 4.03594 23.329 2.805C24.523 3.08463 25.9472 1.78713 25.3952 0.486286C25.005 -0.218388 24.2446 0.509215 23.6584 1.10148C23.0722 1.69373 21.4147 5.65445 21.843 8.65712C20.9724 8.12726 19.992 7.81825 18.9827 7.75558C18.4606 5.78084 18.771 4.414 19.0163 2.99402C20.2804 2.57961 22.1789 0.765358 20.6055 0.0595668C19.0321 -0.646225 17.9764 5.37705 18.4942 7.7008C17.5808 7.95919 16.786 8.54345 16.2516 9.34948C16.4942 2.88441 8.33246 0.673082 6.16254 5.78644C-3.9781 5.64159 0.0295344 18.5634 6.53704 18.0343C6.01329 19.9654 5.25508 21.7255 2.89034 22.306C4.25697 22.7204 7.25453 25.534 8.03776 25.9859C8.82089 26.4378 11.6633 27.6542 14.1707 26.5044C14.2288 26.5469 15.3431 25.7091 15.6438 25.5262C16.1745 25.1895 16.6618 24.785 17.0939 24.3222C17.3284 23.9821 17.9005 23.2595 17.8614 22.5045C19.0798 22.1997 19.3941 22.0946 20.0324 21.5018C20.6798 20.9045 21.679 19.442 21.2964 19.5533C20.9138 19.6645 19.2307 20.1411 16.7113 18.7866C18.1675 19.3715 19.6161 19.961 21.4245 19.3676C22.3179 19.1814 24.1035 18.8374 24.9051 18.5969C24.9099 18.5998 24.915 18.6019 24.9203 18.6031C24.9697 18.5847 25.0072 18.5656 25.0565 18.5472C25.1244 18.5225 25.1846 18.4985 25.2308 18.4772C28.7906 16.9778 27.4169 13.5826 27.2655 13.2414C28.871 10.4792 26.7711 5.84124 22.5008 7.70415ZM24.9828 0.657421C25.716 0.98627 24.3624 2.90063 23.4316 2.39785C23.0538 2.18477 24.4042 0.65686 24.9801 0.659656L24.9828 0.657421ZM20.5035 0.494116C20.999 1.00193 20.2272 2.11598 19.5238 2.37213C18.8199 2.64169 20.0156 -0.0164942 20.5035 0.496351V0.494116ZM19.3719 8.52181C23.2351 8.88422 21.8918 14.1077 19.8261 14.6021C15.6584 15.5988 14.9224 8.10964 19.3719 8.52405V8.52181ZM6.4502 17.4857C3.56334 16.5416 0.646639 15.4723 0.317193 11.5547C-0.329216 3.91346 12.7205 5.15223 11.5059 15.2067C8.96041 15.3381 8.15063 16.7385 6.4502 17.4879V17.4857ZM4.32806 22.1902C5.81627 21.7232 6.27055 20.0454 6.23255 20.3228C5.93079 22.6108 6.49036 23.5666 6.72102 23.91C5.87112 23.4189 5.06969 22.8437 4.32806 22.1924V22.1902ZM8.62171 25.7841C8.05235 24.7992 6.26348 24.4452 7.12753 18.3123C7.21275 17.597 8.09197 17.1652 10.0095 16.0277C9.03259 18.5522 9.33267 23.2925 10.8638 26.2343C9.84614 26.4781 9.40324 25.8892 8.62171 25.7863V25.7841ZM13.812 26.0005L12.2309 26.2734C10.7656 23.2814 9.9759 17.7167 12.1685 15.932C12.506 15.892 12.8477 15.9463 13.1578 16.0891C13.4678 16.232 13.7349 16.4583 13.9308 16.7441C12.1713 20.0958 13.3317 24.302 13.812 26.0027V26.0005ZM13.4863 15.7033C13.0658 15.4361 12.5691 15.3254 12.079 15.3896C11.7213 9.95909 9.46674 7.28023 6.42741 5.73498C12.4014 -2.0181 19.3762 11.327 13.4869 15.7056L13.4863 15.7033ZM24.6451 18.1993C24.0741 18.3939 22.2207 18.6926 21.6682 18.8363C21.2507 19.0145 20.8092 19.1263 20.3591 19.168C19.916 19.1755 19.4728 19.1579 19.0315 19.1154C18.5135 18.9887 18.0029 18.8317 17.5021 18.645C15.5819 18.2838 14.332 14.6094 16.0367 13.0216C17.3713 14.9232 18.1735 15.5641 19.914 15.1469C20.8215 14.9293 21.5824 13.4226 22.0703 13.374C22.5189 13.7715 23.0455 14.0643 23.6142 14.2321C24.1829 14.4 24.7801 14.4391 25.3648 14.3466C25.7882 14.2148 26.1918 14.0234 26.5643 13.7778C26.5866 13.7627 26.6066 13.7515 26.6251 13.7364C27.824 16.7453 25.2286 17.9683 24.6457 18.2015L24.6451 18.1993ZM22.288 13.0541C22.6975 11.6926 22.6034 10.2231 22.0237 8.92896C28.4102 3.83236 29.424 17.6786 22.2886 13.0574L22.288 13.0541Z" fill="black"/>
<path d="M18.7202 11.1572L17.9267 11.2965C16.8863 13.5045 20.4081 12.8921 18.7202 11.1572Z" fill="black"/>
<path d="M23.8246 24.7561C20.3401 25.148 16.9641 26.2401 13.8875 27.9707C13.8875 27.9707 14.8899 33.2994 15.4212 33.2311C15.9526 33.1629 23.6997 32.6327 24.5356 32.1535C24.8655 31.964 25.1419 31.6894 25.3377 31.3566C25.5335 31.0238 25.642 30.6443 25.6526 30.2553C25.8073 28.3783 25.7905 26.4905 25.6026 24.6168C25.5613 24.2522 23.8246 24.7561 23.8246 24.7561ZM25.296 30.2318C25.2848 30.6006 25.1814 30.9601 24.9957 31.2756C24.8101 31.5911 24.5486 31.8519 24.2366 32.0326C23.4463 32.48 16.1155 32.9834 15.6123 33.0499C15.1092 33.1165 14.1616 28.0725 14.1616 28.0725C17.0724 26.4347 20.2663 25.4001 23.563 25.0273C23.563 25.0273 25.2047 24.5536 25.2504 24.8964C25.423 26.6697 25.4383 28.4556 25.296 30.2318Z" fill="#8AC440"/>
<path d="M22.1605 24.9427C20.4199 25.1664 15.9244 25.7419 15.9244 25.7419C14.7955 26.4186 13.3193 28.1143 14.2478 28.0869C15.1765 28.0595 23.6998 26.8744 23.6998 26.8744C24.3858 26.2921 24.9927 25.6171 25.5038 24.8677C25.8794 24.1111 23.9043 24.719 22.1605 24.9427ZM25.0012 24.9427C24.5315 25.6295 23.9742 26.2481 23.3442 26.7816C23.3442 26.7816 15.5217 27.8688 14.6723 27.8956C13.8229 27.9225 15.1738 26.3677 16.2061 25.7442C16.2061 25.7442 20.3309 25.2179 21.9293 25.0104C23.5277 24.8029 25.3448 24.2486 25.0012 24.9427Z" fill="#8AC440"/>
<path d="M21.9291 25.0108C20.3324 25.2183 16.2058 25.7446 16.2058 25.7446C15.1747 26.3682 13.821 27.9257 14.672 27.8961C15.5231 27.8664 23.3441 26.782 23.3441 26.782C23.9739 26.2485 24.5313 25.63 25.001 24.9431C25.3446 24.2485 23.5329 24.8083 21.9291 25.0108Z" fill="white"/>
<path d="M23.4954 27.0679L24.1006 31.8708L25.0921 29.9923L24.1456 30.3776L23.4954 27.0679Z" fill="#8AC440"/>
<path d="M22.1821 27.0986L23.0142 30.9979C23.0142 30.9979 22.137 30.4302 22.1821 27.0986Z" fill="#8AC440"/>
<path d="M16.9501 28.3545L17.8185 32.5915C17.8185 32.5915 16.9355 31.9624 16.9501 28.3545Z" fill="#8AC440"/>
<path d="M17.594 27.7388L18.26 30.3113C18.26 30.3113 17.4159 29.9663 17.594 27.7388Z" fill="#8AC440"/>
<path d="M21.2887 27.8843L22.1669 32.1258C22.1669 32.1258 21.2784 31.4983 21.2887 27.8843Z" fill="#8AC440"/>
<path d="M20.4083 27.9995L21.2767 32.2387C21.2767 32.2387 20.3963 31.6151 20.4083 27.9995Z" fill="#8AC440"/>
<path d="M19.5268 28.1147L20.3953 32.3523C20.3953 32.3523 19.5111 31.7282 19.5268 28.1147Z" fill="#8AC440"/>
<path d="M14.9136 29.8841L21.4808 28.6738C21.4808 28.6738 20.4534 29.6403 14.9136 29.8841Z" fill="#8AC440"/>
<path d="M15.7239 30.8905L23.3766 29.5415C23.3766 29.5415 22.1679 30.5275 15.7239 30.8905Z" fill="#8AC440"/>
<path d="M15.9961 31.9683L23.5142 30.6372C23.5142 30.6372 22.3202 31.6187 15.9961 31.9683Z" fill="#8AC440"/>
<path d="M21.3348 23.6842C21.1509 23.6537 20.9627 23.6683 20.7852 23.7266C20.6079 23.7849 20.4462 23.8853 20.3133 24.0197L16.7117 22.6987L15.6387 24.1304C15.6387 24.1304 17.7337 25.895 20.0892 25.4671C20.1829 25.6538 20.3214 25.8127 20.4915 25.9285C20.6617 26.0444 20.8578 26.1134 21.0612 26.129C21.2646 26.1446 21.4685 26.1063 21.6535 26.0177C21.8384 25.929 21.9982 25.793 22.1177 25.6227C22.2371 25.4523 22.3122 25.2533 22.3358 25.0445C22.3595 24.8358 22.3308 24.6242 22.2525 24.4301C22.1744 24.2361 22.0491 24.0658 21.889 23.9357C21.7288 23.8057 21.5389 23.72 21.3375 23.687L21.3348 23.6842Z" fill="black"/>
<path d="M18.4977 28.5415L19.0572 28.471C19.0572 28.471 18.9487 24.6501 19.7683 24.4264C19.7644 24.404 19.0236 24.3369 19.0236 24.3369C18.5053 25.6501 18.2941 27.0704 18.407 28.4833" fill="#8AC440"/>
<path d="M20.1853 21.7484C20.3368 22.542 19.4966 23.3836 18.3015 23.6225C17.1064 23.8613 16.0219 23.4128 15.8727 22.6197C15.7235 21.8267 16.5614 20.9833 17.7528 20.7411C18.9441 20.499 20.0295 20.9509 20.1853 21.7484Z" fill="black"/>
</g>
<defs>
<clipPath id="clip0_7860_16387">
<rect width="28" height="34" fill="white"/>
</clipPath>
</defs>
</svg>
