<svg width="90" height="25" viewBox="0 0 90 25" fill="none" xmlns="http://www.w3.org/2000/svg">
<path d="M1.40819 20V5.42913H4.06811V11.7856H10.2681V5.42913H12.9475V20H10.2681V14.1325H4.06811V20H1.40819ZM14.5591 20L19.5856 5.42913H23.0278L28.0543 20H25.1596L24.1231 16.8707H18.4903L17.4342 20H14.5591ZM19.2531 14.5237H23.3603L20.9351 7.26761H21.6783L19.2531 14.5237ZM35.9292 20.2347C34.8861 20.2347 33.9212 20.0456 33.0346 19.6675C32.161 19.2894 31.3917 18.7613 30.7267 18.0833C30.0748 17.4053 29.5663 16.6099 29.2012 15.6972C28.8361 14.7845 28.6535 13.787 28.6535 12.7048C28.6535 11.6226 28.8296 10.6251 29.1816 9.71238C29.5467 8.78663 30.0552 7.99126 30.7072 7.32628C31.3721 6.64826 32.1479 6.12671 33.0346 5.76162C33.9212 5.3835 34.8861 5.19444 35.9292 5.19444C36.9723 5.19444 37.9046 5.37046 38.726 5.72251C39.5605 6.07456 40.2646 6.54395 40.8383 7.1307C41.412 7.70441 41.8227 8.33679 42.0705 9.02784L39.6844 10.1427C39.4106 9.41249 38.9477 8.8127 38.2957 8.34331C37.6438 7.86087 36.8549 7.61965 35.9292 7.61965C35.0165 7.61965 34.2081 7.83479 33.504 8.26507C32.8129 8.69535 32.2718 9.28862 31.8806 10.0449C31.5025 10.8011 31.3135 11.6878 31.3135 12.7048C31.3135 13.7218 31.5025 14.615 31.8806 15.3843C32.2718 16.1405 32.8129 16.7338 33.504 17.1641C34.2081 17.5943 35.0165 17.8095 35.9292 17.8095C36.8549 17.8095 37.6438 17.5748 38.2957 17.1054C38.9477 16.6229 39.4106 16.0166 39.6844 15.2865L42.0705 16.4013C41.8227 17.0923 41.412 17.7312 40.8383 18.318C40.2646 18.8917 39.5605 19.3546 38.726 19.7066C37.9046 20.0587 36.9723 20.2347 35.9292 20.2347ZM44.23 20V5.42913H46.8899V11.7856H53.0898V5.42913H55.7693V20H53.0898V14.1325H46.8899V20H44.23ZM58.5739 20V5.42913H61.2338V20H58.5739Z" fill="#0A4E17"/>
<path d="M68.7306 20.2347C67.9352 20.2347 67.1789 20.0913 66.4618 19.8044C65.7577 19.5045 65.1514 19.0873 64.6429 18.5527C64.1474 18.0051 63.8084 17.3596 63.6259 16.6164L65.9533 15.795C66.188 16.46 66.5466 16.9685 67.029 17.3205C67.5114 17.6595 68.0786 17.829 68.7306 17.829C69.2521 17.829 69.7019 17.7312 70.0801 17.5357C70.4712 17.3401 70.7776 17.0597 70.9993 16.6947C71.221 16.3165 71.3318 15.8732 71.3318 15.3647C71.3318 14.8562 71.221 14.4259 70.9993 14.0739C70.7907 13.7088 70.4908 13.4284 70.0996 13.2329C69.7085 13.0373 69.2456 12.9395 68.711 12.9395C68.4633 12.9395 68.2025 12.9656 67.9287 13.0177C67.6679 13.0699 67.4332 13.1481 67.2246 13.2524L66.6183 11.9811L70.393 7.67833H64.4473V5.42913H73.3854V7.52186L69.5911 11.9616L69.6302 10.9641C70.5038 10.9771 71.2666 11.1662 71.9185 11.5313C72.5705 11.8964 73.079 12.3984 73.4441 13.0373C73.8092 13.6762 73.9917 14.4259 73.9917 15.2865C73.9917 16.2253 73.7635 17.0728 73.3072 17.829C72.8508 18.5723 72.225 19.159 71.4296 19.5893C70.6342 20.0196 69.7345 20.2347 68.7306 20.2347ZM76.3647 20V5.42913H79.0246V11.7856H85.2245V5.42913H87.904V20H85.2245V14.1325H79.0246V20H76.3647Z" fill="#268F3B"/>
</svg>
