<svg width="67" height="14" viewBox="0 0 67 14" fill="none" xmlns="http://www.w3.org/2000/svg">
<path d="M28.7928 11.2482C28.7928 11.6138 28.5763 11.7964 28.1437 11.7964C27.7258 11.7964 27.517 11.6138 27.517 11.2482V10.3082L27.5059 8.64072C27.3193 8.64072 27.0824 8.64072 26.7953 8.64072C26.508 8.64072 26.1631 8.64462 25.7602 8.6519C25.3572 8.65944 25.0066 8.66308 24.7082 8.66308C24.4097 8.66308 24.156 8.66308 23.9472 8.66308L23.9696 11.2817C23.9696 11.625 23.7495 11.7964 23.3092 11.7964C22.8989 11.7964 22.6938 11.6213 22.6938 11.2705C22.6938 11.1214 22.6956 10.894 22.6993 10.588C22.703 10.2822 22.7086 9.89419 22.7161 9.42419C22.7234 8.49913 22.7234 7.78288 22.7161 7.27556L22.6714 4.71297C22.6714 4.33241 22.8912 4.1422 23.3316 4.1422C23.7345 4.1422 23.9359 4.30264 23.9359 4.62339V5.80964C23.9359 6.09321 23.9359 6.37664 23.9359 6.6602C23.9359 6.94389 23.9396 7.23474 23.9471 7.53312H24.3052H25.0326H25.995H26.9685L27.5393 7.52194V6.02196V4.72389C27.5467 4.31369 27.7593 4.1084 28.1771 4.1084C28.5873 4.1084 28.7926 4.30979 28.7926 4.71271C28.7926 5.32456 28.7926 5.90274 28.7926 6.44724C28.7926 6.99187 28.7889 7.51037 28.7814 8.00274L28.7928 11.2482Z" fill="#649E0F"/>
<path d="M29.9131 11.2439C29.9131 11.0948 29.9764 10.8821 30.1033 10.606L31.2112 8.03213L32.5876 4.59662C32.7068 4.30564 32.9419 4.16016 33.2926 4.16016C33.6804 4.16016 33.9304 4.31318 34.0424 4.61898C34.1019 4.76824 34.1934 4.99576 34.3164 5.30156C34.4396 5.60761 34.5906 5.99532 34.7697 6.46545C35.1277 7.39818 35.374 8.02485 35.5083 8.34547C35.5157 8.35301 35.5418 8.40137 35.5867 8.49095C35.6388 8.59549 35.6687 8.6627 35.6761 8.69235C36.0416 9.62507 36.3438 10.3636 36.5826 10.9081C36.6497 11.0573 36.6832 11.1918 36.6832 11.311C36.6832 11.4303 36.6161 11.546 36.4818 11.6579C36.3475 11.7698 36.187 11.8257 36.0006 11.8257C35.8364 11.8257 35.7097 11.7922 35.6202 11.7249C35.5308 11.6579 35.4524 11.5423 35.3852 11.3781C35.012 10.4306 34.8218 9.91592 34.8144 9.83375C34.6874 9.82634 34.4619 9.82257 34.1373 9.82257C33.8126 9.82257 33.3931 9.82257 32.8783 9.82257H31.7817C31.7666 9.86001 31.7386 9.93451 31.6977 10.0465C31.6566 10.1584 31.6025 10.3077 31.5354 10.4941C31.4682 10.6807 31.4103 10.8373 31.362 10.9641C31.3133 11.091 31.2706 11.1954 31.2333 11.2774C31.1511 11.464 31.0728 11.5947 30.9982 11.6692C30.916 11.7512 30.8004 11.7923 30.6513 11.7923C30.4572 11.7923 30.2893 11.7438 30.1476 11.6468C30.0058 11.5499 29.9351 11.4045 29.9351 11.2103L29.9131 11.2439ZM33.2927 5.6708C33.2404 5.82747 33.1173 6.17071 32.9235 6.70039C32.7293 7.2302 32.4607 7.95373 32.1177 8.87138C32.5878 8.87138 33.013 8.86956 33.3936 8.86579C33.774 8.86215 34.121 8.85656 34.4342 8.84902L33.304 5.6708H33.2927Z" fill="#649E0F"/>
<path d="M42.6367 4.43588C43.0097 4.60763 43.1963 4.8202 43.1963 5.07373C43.1812 5.2603 43.1328 5.40579 43.0508 5.51006C42.9613 5.62954 42.8307 5.68181 42.659 5.66673C42.5172 5.66673 42.353 5.61823 42.1667 5.52124C41.7488 5.34221 41.3347 5.25263 40.9245 5.25263C40.3051 5.25263 39.7606 5.52124 39.2906 6.05833C38.828 6.58815 38.5893 7.26331 38.5745 8.08384C38.5671 8.82245 38.7982 9.44548 39.2683 9.9528C39.7383 10.4603 40.3051 10.7138 40.9692 10.7138C41.4465 10.7289 41.9055 10.6057 42.3457 10.3445C42.383 10.3297 42.4241 10.3074 42.4688 10.2774C42.5136 10.2477 42.5472 10.2253 42.5696 10.2102C42.592 10.2028 42.6255 10.1916 42.6702 10.1767C42.7299 10.1619 42.7822 10.1543 42.8269 10.1543C42.976 10.1543 43.0955 10.2214 43.185 10.3557C43.2744 10.49 43.3193 10.6393 43.3193 10.8034C43.3043 11.0718 43.0357 11.3181 42.5136 11.542C41.9765 11.7659 41.4169 11.8739 40.8349 11.8665C39.8798 11.8514 39.0561 11.5047 38.3637 10.8257C37.676 10.1394 37.336 9.23304 37.3434 8.10633C37.3508 7.50202 37.4616 6.94244 37.6762 6.42771C37.8832 5.91298 38.1604 5.4877 38.5078 5.152C38.8505 4.82384 39.242 4.56264 39.6823 4.36866C40.1076 4.18222 40.5553 4.08887 41.0253 4.08887C41.6592 4.10395 42.2039 4.20471 42.659 4.39102L42.6367 4.43588Z" fill="#649E0F"/>
<path d="M50.6175 11.2482C50.6175 11.6138 50.401 11.7964 49.9684 11.7964C49.5506 11.7964 49.3417 11.6138 49.3417 11.2482V10.3082L49.3306 8.64072C49.144 8.64072 48.9071 8.64072 48.62 8.64072C48.3327 8.64072 47.9878 8.64462 47.5849 8.6519C47.1819 8.65944 46.8313 8.66308 46.5329 8.66308C46.2344 8.66308 45.9807 8.66308 45.7719 8.66308L45.7943 11.2817C45.7943 11.625 45.5742 11.7964 45.1339 11.7964C44.7236 11.7964 44.5185 11.6213 44.5185 11.2705C44.5185 11.1214 44.5203 10.894 44.524 10.588C44.5277 10.2822 44.5333 9.89419 44.5408 9.42419C44.5481 8.49913 44.5481 7.78288 44.5408 7.27556L44.4961 4.71297C44.4961 4.33241 44.7159 4.1422 45.1563 4.1422C45.5592 4.1422 45.7606 4.30264 45.7606 4.62339V5.80964C45.7606 6.09321 45.7606 6.37664 45.7606 6.6602C45.7606 6.94389 45.7643 7.23474 45.7718 7.53312H46.1299H46.8573H47.8197H48.7932L49.364 7.52194V6.02196V4.72389C49.3714 4.31369 49.584 4.1084 50.0018 4.1084C50.412 4.1084 50.6173 4.30979 50.6173 4.71271C50.6173 5.32456 50.6173 5.90274 50.6173 6.44724C50.6173 6.99187 50.6136 7.51037 50.6061 8.00274L50.6175 11.2482Z" fill="#649E0F"/>
<path d="M52.5067 7.15231C52.5067 6.98082 52.5048 6.69349 52.5011 6.2907C52.4974 5.88778 52.4918 5.35823 52.4844 4.70153C52.4844 4.50767 52.5472 4.35842 52.6729 4.25389C52.7911 4.15702 52.9466 4.1084 53.1389 4.1084C53.3162 4.1084 53.4605 4.15312 53.5713 4.2427C53.6821 4.33228 53.7377 4.46282 53.7377 4.63444V7.35383V8.27148V9.12204L53.7489 11.1699C53.7563 11.3788 53.7046 11.5355 53.5935 11.6399C53.49 11.7369 53.3384 11.7854 53.1389 11.7854C52.9466 11.7854 52.7913 11.7369 52.673 11.6399C52.5546 11.543 52.4956 11.3976 52.4956 11.2034V10.7334V10.2075L52.5179 7.14126L52.5067 7.15231Z" fill="#649E0F"/>
<path d="M57.4765 5.27629C57.0512 5.27629 56.6409 5.47404 56.2455 5.86942C56.0589 6.05599 55.8576 6.14921 55.6412 6.14921C55.4994 6.14921 55.3727 6.0933 55.2608 5.98136C55.1488 5.86942 55.0929 5.73511 55.0929 5.57845C55.0929 5.34728 55.2496 5.10116 55.5629 4.83983C56.115 4.34005 56.7417 4.09003 57.443 4.09003C58.1665 4.08262 58.7881 4.29143 59.3076 4.71671C59.8177 5.14199 60.0728 5.70144 60.0728 6.39533C60.0728 6.56708 60.0616 6.72375 60.0396 6.86533C60.0173 7.00718 59.9617 7.15631 59.8732 7.31297C59.7843 7.46964 59.718 7.59277 59.6735 7.68222C59.6217 7.77934 59.5183 7.91351 59.363 8.08513C59.2815 8.17458 59.2131 8.24739 59.1577 8.30343C59.1023 8.35933 59.0635 8.39847 59.0414 8.42096C59.019 8.44332 58.9728 8.48805 58.9025 8.55527C58.8322 8.62249 58.7373 8.71194 58.618 8.82388C58.4987 8.93569 58.4055 9.02527 58.3382 9.09236C58.271 9.15958 58.2263 9.2043 58.2039 9.22666L56.7267 10.6142C57.0474 10.6293 57.6741 10.6293 58.6067 10.6142C58.7187 10.6142 58.867 10.6124 59.052 10.6086C59.237 10.605 59.4588 10.5994 59.7177 10.5918C59.8802 10.5918 60.0135 10.6479 60.1174 10.7598C60.2218 10.8792 60.274 11.0171 60.274 11.1739C60.274 11.5918 60.0663 11.793 59.6511 11.7782H59.0189H58.3156C57.8157 11.7782 57.3513 11.7782 56.9224 11.7782C56.4933 11.7782 56.096 11.7743 55.7305 11.767C55.5364 11.767 55.3761 11.7037 55.2493 11.5768C55.1299 11.4576 55.0703 11.2934 55.0703 11.0844C55.0703 10.8084 55.2231 10.5176 55.5291 10.2115L57.566 8.26429L57.7785 8.05159C57.8381 7.99204 57.8849 7.94355 57.9184 7.9061C57.952 7.86879 57.9761 7.84279 57.9912 7.8277C58.0061 7.81288 58.0304 7.78857 58.0639 7.7549C58.0975 7.72135 58.1367 7.67845 58.1814 7.62618C58.2262 7.57404 58.2654 7.53114 58.299 7.49747C58.3325 7.46379 58.3567 7.43584 58.3718 7.41348C58.4016 7.37616 58.4538 7.31271 58.5284 7.22326C58.5957 7.14877 58.6404 7.08168 58.6628 7.02187C58.6776 6.9921 58.6925 6.96024 58.7075 6.92683C58.7223 6.89329 58.7373 6.85792 58.7522 6.82048C58.7895 6.73844 58.8119 6.66771 58.8194 6.6079C58.8268 6.57059 58.8324 6.53705 58.8362 6.50714C58.8398 6.47737 58.8418 6.44382 58.8418 6.40651C58.8418 6.0634 58.7148 5.78738 58.4612 5.57832C58.2 5.36197 57.8755 5.2538 57.4877 5.2538L57.4765 5.27629Z" fill="#EA2229"/>
<path d="M64.5386 7.71655C64.5386 7.26891 64.7176 7.04502 65.0757 7.04502C65.2844 7.04502 65.4338 7.08987 65.5233 7.17933C65.6128 7.27632 65.6649 7.41816 65.6799 7.6046L65.6687 9.11538L66.452 9.1042C66.8175 9.09679 67.0004 9.26464 67.0004 9.60774C67.0004 10.0181 66.8287 10.2232 66.4856 10.2232H65.6687V11.2528C65.6537 11.4394 65.6052 11.5737 65.5233 11.6557C65.441 11.7379 65.2956 11.7861 65.0869 11.8012C64.6989 11.8012 64.5049 11.6186 64.5049 11.253V10.7493V10.2234H63.0949H61.7184C61.502 10.2234 61.3379 10.1563 61.226 10.022C61.1141 9.88767 61.0581 9.731 61.0581 9.55197C61.0581 9.27595 61.1438 8.99992 61.3155 8.72377C61.6437 8.15691 61.9962 7.5227 62.3731 6.82139C62.7497 6.12022 63.162 5.34416 63.6096 4.49374C63.7512 4.22526 63.9528 4.09082 64.214 4.09082C64.3779 4.09082 64.5346 4.14686 64.684 4.25867C64.8331 4.37061 64.9078 4.49374 64.9078 4.62791C64.9078 4.70267 64.8779 4.81812 64.8184 4.97479C64.7213 5.15382 64.6057 5.36276 64.4715 5.60146C64.3372 5.8403 64.1805 6.10891 64.0015 6.40717C63.8225 6.70555 63.6732 6.95739 63.5539 7.16255C63.4345 7.36785 63.3449 7.52621 63.2854 7.63815L62.4684 9.14892L64.5499 9.12656L64.5611 7.71655H64.5386Z" fill="#EA2229"/>
<path d="M14.0094 0C10.3582 0 7.39844 2.99997 7.39844 6.70071C7.39844 10.4015 10.3582 13.4014 14.0094 13.4014C17.6605 13.4014 20.6203 10.4015 20.6203 6.70071C20.6203 2.99997 17.6605 0 14.0094 0ZM13.8508 12.4647C10.6965 12.4647 8.13965 9.91442 8.13965 6.76858C8.13965 3.62287 10.6967 1.07262 13.8508 1.07262C17.005 1.07262 19.562 3.62287 19.562 6.76858C19.562 9.91442 17.005 12.4647 13.8508 12.4647Z" fill="#649E0F"/>
<path d="M14.181 6.84686C14.181 7.08881 13.9848 7.28501 13.7428 7.28501C13.5009 7.28501 13.3047 7.08881 13.3047 6.84686V3.94596C13.3047 3.704 13.5009 3.50781 13.7428 3.50781C13.9848 3.50781 14.181 3.704 14.181 3.94596V6.84686Z" fill="#649E0F"/>
<path d="M13.6885 7.28255C13.4766 7.28255 13.3047 7.08636 13.3047 6.8444C13.3047 6.60244 13.4766 6.40625 13.6885 6.40625H16.2296C16.4416 6.40625 16.6134 6.60244 16.6134 6.8444C16.6134 7.08636 16.4416 7.28255 16.2296 7.28255H13.6885Z" fill="#649E0F"/>
<path d="M14.0062 2.15156C14.0062 1.95784 13.8492 1.80078 13.6555 1.80078C13.4617 1.80078 13.3047 1.95784 13.3047 2.15156V2.55279C13.3047 2.74664 13.4617 2.90357 13.6555 2.90357C13.8492 2.90357 14.0062 2.74651 14.0062 2.55279V2.15156Z" fill="#649E0F"/>
<path d="M14.0062 10.8586C14.0062 10.6649 13.8492 10.5078 13.6555 10.5078C13.4617 10.5078 13.3047 10.6649 13.3047 10.8586V11.2598C13.3047 11.4535 13.4617 11.6106 13.6555 11.6106C13.8492 11.6106 14.0062 11.4535 14.0062 11.2598V10.8586Z" fill="#649E0F"/>
<path d="M18.3303 7.05312C18.524 7.05312 18.681 6.89606 18.681 6.70234C18.681 6.50849 18.524 6.35156 18.3303 6.35156H17.9289C17.7352 6.35156 17.5781 6.50862 17.5781 6.70234C17.5781 6.89606 17.7352 7.05312 17.9289 7.05312H18.3303Z" fill="#649E0F"/>
<path d="M9.61932 7.05312C9.81305 7.05312 9.9701 6.89606 9.9701 6.70234C9.9701 6.50849 9.81305 6.35156 9.61932 6.35156H9.21797C9.02425 6.35156 8.86719 6.50862 8.86719 6.70234C8.86719 6.89606 9.02425 7.05312 9.21797 7.05312H9.61932Z" fill="#649E0F"/>
<path d="M5.92257 7.1093C5.92257 7.42641 5.66553 7.68345 5.34843 7.68345H0.574146C0.25704 7.68345 0 7.42641 0 7.1093C0 6.7922 0.25704 6.53516 0.574146 6.53516H5.34843C5.66553 6.53516 5.92257 6.7922 5.92257 7.1093Z" fill="#649E0F"/>
<path d="M6.53067 10.8389C6.53067 11.1447 6.28286 11.3926 5.97694 11.3926H2.22951C1.92372 11.3926 1.67578 11.1447 1.67578 10.8389C1.67578 10.533 1.92372 10.2852 2.22951 10.2852H5.97707C6.28286 10.2852 6.53067 10.533 6.53067 10.8389Z" fill="#649E0F"/>
<path d="M7.01239 8.91415C7.01239 9.27013 6.72376 9.55876 6.36778 9.55876H4.17196C3.81585 9.55876 3.52734 9.27013 3.52734 8.91415C3.52734 8.55816 3.81598 8.26953 4.17196 8.26953H6.36778C6.72376 8.26953 7.01239 8.55816 7.01239 8.91415Z" fill="#649E0F"/>
</svg>
