<svg width="18" height="16" viewBox="0 0 18 16" fill="none" xmlns="http://www.w3.org/2000/svg">
<path d="M8.98584 16C6.86411 16 4.82928 15.1571 3.32899 13.6568C1.82869 12.1565 0.98584 10.1217 0.98584 7.99998C0.98584 5.87825 1.82869 3.84342 3.32899 2.34312C4.82928 0.842834 6.86411 -2.12193e-05 8.98584 -2.12193e-05C10.482 -0.011292 11.9503 0.405039 13.2178 1.19998L12.4478 2.43598C11.4107 1.78513 10.2092 1.44408 8.98484 1.45298C7.69002 1.451 6.42371 1.83313 5.34612 2.55101C4.26853 3.26889 3.42808 4.29027 2.93112 5.48592C2.43415 6.68157 2.30299 7.99776 2.55424 9.26797C2.80549 10.5382 3.42785 11.7053 4.34258 12.6217C5.25732 13.5382 6.42332 14.1627 7.69307 14.4162C8.96281 14.6698 10.2792 14.5411 11.4758 14.0463C12.6724 13.5515 13.6953 12.7129 14.4151 11.6367C15.135 10.5604 15.5194 9.2948 15.5198 7.99998C15.5221 7.42237 15.4549 6.84657 15.3198 6.28498L16.7278 5.93298C16.8918 6.60969 16.9738 7.30368 16.9718 7.99998C16.9718 10.1193 16.1309 12.152 14.6336 13.6519C13.1364 15.1518 11.1051 15.9963 8.98584 16Z" fill="#008000"/>
<path d="M8.97084 10.181C8.77804 10.181 8.59316 10.1044 8.45684 9.96803L5.03384 6.54503L6.06184 5.51703L8.97084 8.42603L16.9708 0.426025L17.9988 1.45403L9.48484 9.96803C9.34853 10.1044 9.16364 10.181 8.97084 10.181Z" fill="#008000"/>
</svg>
