<svg width="16" height="13" viewBox="0 0 16 13" fill="none" xmlns="http://www.w3.org/2000/svg">
<g id="Group 384">
<path id="Path 3" d="M2.67295 1.28762C2.67308 1.46008 2.63921 1.63088 2.57327 1.79024C2.50733 1.9496 2.41062 2.09439 2.28867 2.21634C2.16672 2.33829 2.02193 2.435 1.86257 2.50094C1.70321 2.56688 1.53241 2.60075 1.35995 2.60062C1.18529 2.6052 1.0115 2.57452 0.848966 2.51042C0.68643 2.44633 0.538482 2.35013 0.413962 2.22757C0.289441 2.10501 0.190904 1.9586 0.124237 1.7971C0.0575698 1.63561 0.0241413 1.46233 0.0259485 1.28762C0.0354248 0.942901 0.179021 0.615484 0.426192 0.375014C0.673363 0.134545 1.0046 0 1.34945 0C1.69429 0 2.02553 0.134545 2.2727 0.375014C2.51988 0.615484 2.66347 0.942901 2.67295 1.28762Z" fill="#1A6634"/>
<path id="Rectangle 2" d="M15.0258 0.252441H4.23779V2.32244H15.0258V0.252441Z" fill="#1A6634"/>
<path id="Path 4" d="M2.67292 6.53173C2.67332 6.79174 2.59656 7.04602 2.45238 7.2624C2.30819 7.47877 2.10305 7.6475 1.86292 7.74723C1.6228 7.84696 1.35848 7.87321 1.10343 7.82265C0.848382 7.77209 0.614065 7.64701 0.430138 7.46322C0.246212 7.27943 0.120945 7.04521 0.0701952 6.7902C0.0194449 6.53519 0.0454921 6.27085 0.14504 6.03065C0.244588 5.79045 0.413161 5.58518 0.629422 5.44083C0.845683 5.29648 1.09991 5.21953 1.35992 5.21973C1.53255 5.21946 1.70354 5.25327 1.86308 5.31921C2.02262 5.38515 2.16758 5.48193 2.28965 5.604C2.41172 5.72607 2.50849 5.87103 2.57443 6.03057C2.64038 6.19011 2.67418 6.3611 2.67392 6.53373L2.67292 6.53173Z" fill="#1A6634"/>
<path id="Rectangle 3" d="M15.0258 5.49561H4.23779V7.56561H15.0258V5.49561Z" fill="#1A6634"/>
<path id="Path 5" d="M2.67284 11.6604C2.6731 11.833 2.63929 12.004 2.57335 12.1636C2.50741 12.3231 2.41063 12.4681 2.28856 12.5901C2.16649 12.7122 2.02154 12.809 1.862 12.8749C1.70245 12.9409 1.53147 12.9747 1.35884 12.9744C1.18345 12.9804 1.00864 12.9512 0.844725 12.8885C0.680809 12.8258 0.531107 12.731 0.404455 12.6095C0.277803 12.488 0.176766 12.3424 0.107307 12.1812C0.0378478 12.0201 0.00137409 11.8467 3.80824e-05 11.6712C-0.00129792 11.4957 0.0325309 11.3217 0.0995281 11.1595C0.166525 10.9973 0.265334 10.8502 0.390122 10.7268C0.51491 10.6034 0.663149 10.5063 0.826092 10.4411C0.989035 10.3759 1.16338 10.3441 1.33884 10.3474C1.51296 10.3452 1.6858 10.3775 1.84736 10.4424C2.00892 10.5074 2.15598 10.6038 2.28004 10.726C2.4041 10.8482 2.5027 10.9938 2.57012 11.1544C2.63754 11.3149 2.67246 11.4873 2.67284 11.6614V11.6604Z" fill="#1A6634"/>
<path id="Rectangle 4" d="M15.0258 10.6245H4.23779V12.6945H15.0258V10.6245Z" fill="#1A6634"/>
</g>
</svg>
