<svg width="28" height="26" viewBox="0 0 28 26" fill="none" xmlns="http://www.w3.org/2000/svg">
<path d="M12 8H8V10H10V18H12V8ZM18 8H16C14.9 8 14 8.9 14 10V16C14 16.5304 14.2107 17.0391 14.5858 17.4142C14.9609 17.7893 15.4696 18 16 18H18C19.11 18 20 17.11 20 16V10C20 9.46957 19.7893 8.96086 19.4142 8.58579C19.0391 8.21071 18.5304 8 18 8ZM18 16H16V10H18V16Z" fill="white"/>
<path d="M24 16C21.794 16 20 17.794 20 20C20 20.684 20.188 21.317 20.492 21.88C18.6081 23.2583 16.3342 24.0008 14 24C7.935 24 3 19.065 3 13H1C1 20.168 6.832 26 14 26C16.8326 25.9987 19.587 25.0709 21.843 23.358C22.485 23.7757 23.2341 23.9987 24 24C26.206 24 28 22.206 28 20C28 17.794 26.206 16 24 16ZM24 22C22.897 22 22 21.103 22 20C22 18.897 22.897 18 24 18C25.103 18 26 18.897 26 20C26 21.103 25.103 22 24 22ZM14 0C11.1674 0.00130079 8.41302 0.92915 6.157 2.642C5.51505 2.22426 4.7659 2.00129 4 2C1.794 2 0 3.794 0 6C0 8.206 1.794 10 4 10C6.206 10 8 8.206 8 6C8 5.316 7.812 4.683 7.508 4.12C9.39188 2.7417 11.6658 1.99916 14 2C20.065 2 25 6.935 25 13H27C27 5.832 21.168 0 14 0ZM4 8C2.897 8 2 7.103 2 6C2 4.897 2.897 4 4 4C5.103 4 6 4.897 6 6C6 7.103 5.103 8 4 8Z" fill="white"/>
</svg>
