<svg width="17" height="16" viewBox="0 0 17 16" fill="none" xmlns="http://www.w3.org/2000/svg">
<path d="M15 10.4551H11.132C10.4416 10.4551 9.88196 11.0147 9.88196 11.7051V14.0001C9.88196 14.6904 10.4416 15.2501 11.132 15.2501H15C15.6903 15.2501 16.25 14.6904 16.25 14.0001V11.7051C16.25 11.0147 15.6903 10.4551 15 10.4551Z" stroke="#1A6634" stroke-width="1.5"/>
<path d="M5.868 10.4551H2C1.30964 10.4551 0.75 11.0147 0.75 11.7051V14.0001C0.75 14.6904 1.30964 15.2501 2 15.2501H5.868C6.55836 15.2501 7.118 14.6904 7.118 14.0001V11.7051C7.118 11.0147 6.55836 10.4551 5.868 10.4551Z" stroke="#1A6634" stroke-width="1.5"/>
<path d="M10.434 0.750061H6.56604C5.87568 0.750061 5.31604 1.30971 5.31604 2.00006V4.29506C5.31604 4.98542 5.87568 5.54506 6.56604 5.54506H10.434C11.1244 5.54506 11.684 4.98542 11.684 4.29506V2.00006C11.684 1.30971 11.1244 0.750061 10.434 0.750061Z" stroke="#1A6634" stroke-width="1.5"/>
<path d="M3.93396 10.4651V7.87207H13.076V10.4651" stroke="#1A6634" stroke-width="1.5" stroke-linecap="round" stroke-linejoin="round"/>
<path d="M8.50586 5.45203V8.01208" stroke="#1A6634" stroke-width="1.5"/>
</svg>
