<svg width="22" height="22" viewBox="0 0 22 22" fill="none" xmlns="http://www.w3.org/2000/svg">
<path d="M1 5.88843L10.501 10.1111L11.1441 8.66407L1.64311 4.44141L1 5.88843ZM11.6143 20.9999V9.38758H10.0308V20.9999H11.6143ZM11.1441 10.1111L20.6451 5.88843L20.002 4.44141L10.501 8.66407L11.1441 10.1111Z" fill="#959DB3"/>
<path d="M1.32129 16.3636V5.57455C1.32129 5.32424 1.4687 5.09741 1.69744 4.99575L10.565 1.05459C10.7288 0.981803 10.9157 0.981803 11.0795 1.05459L19.9471 4.99575C20.1759 5.09741 20.3233 5.32424 20.3233 5.57455V16.3636C20.3233 16.6139 20.1759 16.8408 19.9471 16.9425L11.0795 20.8836C10.9157 20.9563 10.7288 20.9563 10.565 20.8836L1.69744 16.9425C1.4687 16.8408 1.32129 16.6139 1.32129 16.3636Z" stroke="#959DB3" stroke-width="1.99153" stroke-linecap="round" stroke-linejoin="round"/>
<path d="M6.07129 3.04883L15.1961 7.10431C15.4249 7.20597 15.5723 7.4328 15.5723 7.68311V11.4941" stroke="#959DB3" stroke-width="1.99153" stroke-linecap="round" stroke-linejoin="round"/>
</svg>
