<svg width="15" height="15" viewBox="0 0 15 15" fill="none" xmlns="http://www.w3.org/2000/svg">
<path d="M8.515 15H6.471C6.20003 14.9995 5.94034 14.8915 5.74892 14.6997C5.55751 14.5079 5.45 14.248 5.45 13.977V12.92C5.336 12.875 5.221 12.827 5.109 12.777L4.363 13.524C4.26819 13.6188 4.15563 13.694 4.03175 13.7454C3.90787 13.7967 3.77509 13.8231 3.641 13.8231C3.50691 13.8231 3.37413 13.7967 3.25025 13.7454C3.12637 13.694 3.01381 13.6188 2.919 13.524L1.475 12.078C1.28417 11.886 1.17706 11.6262 1.17706 11.3555C1.17706 11.0848 1.28417 10.825 1.475 10.633L2.221 9.886C2.169 9.775 2.121 9.66 2.078 9.545H1.022C0.75103 9.54473 0.491234 9.43698 0.299629 9.24537C0.108024 9.05377 0.000264749 8.79397 0 8.523L0 6.477C0.000264749 6.20603 0.108024 5.94623 0.299629 5.75463C0.491234 5.56302 0.75103 5.45526 1.022 5.455H2.078C2.124 5.337 2.172 5.222 2.221 5.114L1.482 4.367C1.29117 4.17496 1.18406 3.91523 1.18406 3.6445C1.18406 3.37377 1.29117 3.11404 1.482 2.922L2.926 1.476C3.02081 1.38118 3.13337 1.30596 3.25725 1.25464C3.38113 1.20333 3.51391 1.17691 3.648 1.17691C3.78209 1.17691 3.91487 1.20333 4.03875 1.25464C4.16263 1.30596 4.27519 1.38118 4.37 1.476L5.116 2.222C5.227 2.17 5.342 2.122 5.457 2.079V1.023C5.457 0.75203 5.56451 0.492128 5.75592 0.300336C5.94734 0.108544 6.20703 0.000529756 6.478 0L8.522 0C8.79297 0.000529756 9.05266 0.108544 9.24408 0.300336C9.4355 0.492128 9.543 0.75203 9.543 1.023V2.08C9.661 2.126 9.775 2.174 9.884 2.223L10.63 1.477C10.7248 1.38218 10.8374 1.30696 10.9613 1.25564C11.0851 1.20433 11.2179 1.17791 11.352 1.17791C11.4861 1.17791 11.6189 1.20433 11.7427 1.25564C11.8666 1.30696 11.9792 1.38218 12.074 1.477L13.518 2.922C13.7088 3.11404 13.8159 3.37377 13.8159 3.6445C13.8159 3.91523 13.7088 4.17496 13.518 4.367L12.772 5.114C12.825 5.228 12.872 5.343 12.915 5.455H13.978C14.1119 5.455 14.2444 5.48151 14.368 5.533C14.4916 5.58449 14.6037 5.65994 14.698 5.755C14.89 5.94787 14.9978 6.20887 14.998 6.481V8.523C14.998 8.79414 14.8904 9.0542 14.6987 9.24602C14.5071 9.43784 14.2471 9.54573 13.976 9.546H12.922C12.875 9.666 12.822 9.78 12.779 9.887L13.511 10.634C13.7018 10.826 13.8089 11.0858 13.8089 11.3565C13.8089 11.6272 13.7018 11.887 13.511 12.079L12.067 13.524C11.9722 13.6188 11.8596 13.694 11.7357 13.7454C11.6119 13.7967 11.4791 13.8231 11.345 13.8231C11.2109 13.8231 11.0781 13.7967 10.9543 13.7454C10.8304 13.694 10.7178 13.6188 10.623 13.524L9.877 12.777C9.767 12.829 9.652 12.877 9.536 12.92V13.977C9.536 14.248 9.4285 14.5079 9.23708 14.6997C9.04566 14.8915 8.78597 14.9995 8.515 15ZM4.915 11.516C5.38773 11.8213 5.91134 12.0394 6.461 12.16V13.977H8.508V12.16C9.05769 12.0395 9.58131 11.8214 10.054 11.516L11.354 12.801L12.8 11.356L11.512 10.07C11.8172 9.59649 12.0353 9.07225 12.156 8.522H13.971V6.477H12.156C12.0353 5.92675 11.8172 5.40251 11.512 4.929L12.8 3.644L11.352 2.2L10.068 3.484C9.59533 3.1786 9.0717 2.96048 8.522 2.84V1.023H6.478V2.84C5.9283 2.96048 5.40467 3.1786 4.932 3.484L3.648 2.2L2.2 3.644L3.488 4.93C3.18269 5.40344 2.96459 5.92771 2.844 6.478H1.029V8.523H2.829C2.94973 9.07325 3.16783 9.59749 3.473 10.071L2.19 11.356L3.634 12.8L4.918 11.515L4.915 11.516Z" fill="#26282E"/>
</svg>
