<svg width="16" height="16" viewBox="0 0 16 16" fill="none" xmlns="http://www.w3.org/2000/svg">
<path d="M8.00029 16.0002C6.418 16.0003 4.87123 15.5311 3.55558 14.6521C2.23993 13.773 1.21451 12.5236 0.608984 11.0617C0.00345862 9.59987 -0.154969 7.99129 0.153737 6.4394C0.462443 4.88752 1.22442 3.46203 2.3433 2.34321C3.08618 1.60032 3.96812 1.01103 4.93875 0.608979C5.90938 0.206931 6.94969 7.8276e-09 8.00029 0C9.0509 -7.82759e-09 10.0912 0.206931 11.0618 0.608979C12.0325 1.01103 12.9144 1.60032 13.6573 2.34321C14.4002 3.08609 14.9895 3.96803 15.3915 4.93866C15.7936 5.90929 16.0005 6.9496 16.0005 8.00021C16.0005 9.05081 15.7936 10.0911 15.3915 11.0618C14.9895 12.0324 14.4002 12.9143 13.6573 13.6572C12.9161 14.4024 12.0345 14.9931 11.0635 15.3953C10.0925 15.7975 9.05131 16.0031 8.00029 16.0002ZM8.00029 1.09121C6.63382 1.09121 5.29804 1.49641 4.16186 2.25558C3.02568 3.01475 2.14014 4.09379 1.61721 5.35625C1.09429 6.6187 0.957464 8.00787 1.22405 9.34809C1.49063 10.6883 2.14865 11.9194 3.11489 12.8856C4.08114 13.8518 5.3122 14.5099 6.65242 14.7765C7.99263 15.043 9.3818 14.9062 10.6443 14.3833C11.9067 13.8604 12.9857 12.9748 13.7449 11.8386C14.5041 10.7025 14.9093 9.36668 14.9093 8.00021C14.9072 6.16848 14.1786 4.41237 12.8834 3.11714C11.5881 1.82191 9.83203 1.09332 8.00029 1.09121Z" fill="white"/>
<path d="M6.6435 10.7681C6.50719 10.7683 6.37219 10.7415 6.2462 10.6895C6.12022 10.6374 6.00571 10.5611 5.90923 10.4648C5.81275 10.3685 5.73619 10.2542 5.6839 10.1283C5.63161 10.0024 5.60464 9.86743 5.6045 9.73112V6.26812C5.60385 6.13126 5.63023 5.99561 5.68215 5.86898C5.73407 5.74234 5.8105 5.62721 5.90705 5.5302C6.00359 5.43319 6.11835 5.35621 6.24474 5.30369C6.37112 5.25116 6.50664 5.22412 6.6435 5.22412C6.80349 5.22465 6.96122 5.26194 7.1045 5.33312L10.5695 7.06512C10.7425 7.15111 10.8881 7.28367 10.9898 7.44788C11.0916 7.61209 11.1455 7.80144 11.1455 7.99462C11.1455 8.1878 11.0916 8.37715 10.9898 8.54136C10.8881 8.70557 10.7425 8.83813 10.5695 8.92412L7.1045 10.6591C6.96122 10.7303 6.80349 10.7676 6.6435 10.7681ZM6.6435 6.26812V9.73112L10.1045 8.00012L6.6435 6.26812Z" fill="white"/>
</svg>
