<svg width="18" height="14" viewBox="0 0 18 14" fill="none" xmlns="http://www.w3.org/2000/svg">
<path d="M6.28125 9.5625C7.85547 9.5625 9.125 10.8574 9.125 12.4316C9.09961 13.0918 8.56641 13.625 7.90625 13.625H2.21875C1.5332 13.625 1 13.0918 1 12.4316C0.974609 10.8574 2.24414 9.5625 3.84375 9.5625C3.89453 9.5625 3.94531 9.58789 4.02148 9.61328C4.35156 9.71484 4.68164 9.76562 5.0625 9.76562C5.41797 9.76562 5.74805 9.71484 6.07812 9.61328C6.1543 9.58789 6.20508 9.5625 6.28125 9.5625ZM5.0625 8.75C3.69141 8.75 2.625 7.68359 2.625 6.3125C2.625 4.9668 3.69141 3.875 5.0625 3.875C6.4082 3.875 7.5 4.9668 7.5 6.3125C7.5 7.68359 6.4082 8.75 5.0625 8.75ZM16.0312 0.625C16.6914 0.625 17.25 1.20898 17.25 1.89453V9.94336C17.25 10.6289 16.6914 11.1875 16.0312 11.1875H9.81055C9.63281 10.5527 9.27734 9.99414 8.79492 9.5625H10.75V7.9375H14V9.5625H15.625V2.25H6.6875V3.51953C6.20508 3.24023 5.64648 3.0625 5.0625 3.0625V1.89453C5.0625 1.20898 5.5957 0.625 6.28125 0.625H16.0312Z" fill="#26282E"/>
</svg>
