<svg width="15" height="16" viewBox="0 0 15 16" fill="none" xmlns="http://www.w3.org/2000/svg">
<path d="M1.216 15.9993C0.998088 15.9993 0.7841 15.9413 0.596 15.8313C0.415379 15.7261 0.265373 15.5755 0.160836 15.3945C0.0562983 15.2135 0.000856436 15.0083 0 14.7993L0 1.19932C0.00108984 0.989732 0.0570539 0.784086 0.162321 0.60285C0.267589 0.421615 0.418489 0.27111 0.6 0.166319C0.781693 0.0608688 0.98735 0.00367176 1.1974 0.000170973C1.40744 -0.00332982 1.61489 0.0469822 1.8 0.146319L14.369 6.94632C14.5585 7.04851 14.7168 7.20007 14.8271 7.38493C14.9374 7.56978 14.9957 7.78105 14.9957 7.99632C14.9957 8.21159 14.9374 8.42286 14.8271 8.60771C14.7168 8.79256 14.5585 8.94412 14.369 9.04632L1.8 15.8523C1.62049 15.9489 1.41983 15.9994 1.216 15.9993ZM1.216 8.79932V14.7993L13.785 7.99932L1.216 1.19932V7.59932H6.487C6.64613 7.59932 6.79874 7.66253 6.91126 7.77505C7.02379 7.88758 7.087 8.04019 7.087 8.19932C7.087 8.35845 7.02379 8.51106 6.91126 8.62358C6.79874 8.7361 6.64613 8.79932 6.487 8.79932H1.216Z" fill="#008000"/>
</svg>
