<svg width="15" height="15" viewBox="0 0 15 15" fill="none" xmlns="http://www.w3.org/2000/svg">
<path d="M5.41502 6.577H1.15902C0.851362 6.57647 0.556467 6.45395 0.339011 6.23631C0.121555 6.01866 -0.000712248 5.72366 -0.000976562 5.416L-0.000976562 1.16C-0.000447776 0.852511 0.121936 0.557768 0.339364 0.34034C0.556791 0.122913 0.851535 0.000528787 1.15902 0L5.41502 0C5.72251 0.000528787 6.01726 0.122913 6.23468 0.34034C6.45211 0.557768 6.57449 0.852511 6.57502 1.16V5.416C6.57476 5.72366 6.45249 6.01866 6.23504 6.23631C6.01758 6.45395 5.72268 6.57647 5.41502 6.577ZM1.15902 1.16V5.416H5.41502V1.16H1.15902Z" fill="#1A6634"/>
<path d="M13.838 6.577H9.582C9.27434 6.57647 8.97944 6.45395 8.76198 6.23631C8.54453 6.01866 8.42226 5.72366 8.422 5.416V1.16C8.42253 0.852511 8.54491 0.557768 8.76234 0.34034C8.97976 0.122913 9.27451 0.000528787 9.582 0L13.838 0C14.1455 0.000528787 14.4402 0.122913 14.6577 0.34034C14.8751 0.557768 14.9975 0.852511 14.998 1.16V5.416C14.9977 5.72366 14.8755 6.01866 14.658 6.23631C14.4406 6.45395 14.1457 6.57647 13.838 6.577ZM9.582 1.16V5.416H13.838V1.16H9.582Z" fill="#1A6634"/>
<path d="M5.41502 15.0001H1.15902C0.851362 14.9996 0.556467 14.877 0.339011 14.6594C0.121555 14.4418 -0.000712248 14.1468 -0.000976562 13.8391L-0.000976562 9.5831C-0.000447776 9.27561 0.121936 8.98086 0.339364 8.76344C0.556791 8.54601 0.851535 8.42362 1.15902 8.4231H5.41502C5.72251 8.42362 6.01726 8.54601 6.23468 8.76344C6.45211 8.98086 6.57449 9.27561 6.57502 9.5831V13.8391C6.57476 14.1468 6.45249 14.4418 6.23504 14.6594C6.01758 14.877 5.72268 14.9996 5.41502 15.0001ZM1.15902 9.5831V13.8391H5.41502V9.5831H1.15902Z" fill="#1A6634"/>
<path d="M13.838 15.0001H9.582C9.27434 14.9996 8.97944 14.877 8.76198 14.6594C8.54453 14.4418 8.42226 14.1468 8.422 13.8391V9.5831C8.42253 9.27561 8.54491 8.98086 8.76234 8.76344C8.97976 8.54601 9.27451 8.42362 9.582 8.4231H13.838C14.1455 8.42362 14.4402 8.54601 14.6577 8.76344C14.8751 8.98086 14.9975 9.27561 14.998 9.5831V13.8391C14.9977 14.1468 14.8755 14.4418 14.658 14.6594C14.4406 14.877 14.1457 14.9996 13.838 15.0001ZM9.582 9.5831V13.8391H13.838V9.5831H9.582Z" fill="#1A6634"/>
</svg>
