<svg width="38" height="24" viewBox="0 0 38 24" fill="none" xmlns="http://www.w3.org/2000/svg">
<path d="M12.7684 22.0022C14.4677 22.0022 15.8452 20.6247 15.8452 18.9254C15.8452 17.2261 14.4677 15.8486 12.7684 15.8486C11.0692 15.8486 9.69165 17.2261 9.69165 18.9254C9.69165 20.6247 11.0692 22.0022 12.7684 22.0022Z" stroke="#959DB3" stroke-width="2.75261" stroke-miterlimit="1.5" stroke-linecap="round" stroke-linejoin="round"/>
<path d="M28.1525 22.0022C29.8518 22.0022 31.2292 20.6247 31.2292 18.9254C31.2292 17.2261 29.8518 15.8486 28.1525 15.8486C26.4532 15.8486 25.0757 17.2261 25.0757 18.9254C25.0757 20.6247 26.4532 22.0022 28.1525 22.0022Z" stroke="#959DB3" stroke-width="2.75261" stroke-miterlimit="1.5" stroke-linecap="round" stroke-linejoin="round"/>
<path d="M15.9224 18.9223H23.5375V2.92303C23.5375 2.41326 23.1242 2 22.6144 2H2" stroke="#959DB3" stroke-width="2.75261" stroke-linecap="round"/>
<path d="M9.15364 18.9221H5.99994C5.49016 18.9221 5.0769 18.5089 5.0769 17.999V10.4609" stroke="#959DB3" stroke-width="2.75261" stroke-linecap="round"/>
<path d="M3.53882 6.61426H9.69238" stroke="#959DB3" stroke-width="2.75261" stroke-linecap="round" stroke-linejoin="round"/>
<path d="M23.5369 6.61426H32.1674C32.5321 6.61426 32.8627 6.82908 33.0109 7.16242L35.7644 13.3579C35.8169 13.4761 35.844 13.6038 35.844 13.7328V17.9983C35.844 18.5082 35.4308 18.9214 34.9209 18.9214H31.998" stroke="#959DB3" stroke-width="2.75261" stroke-linecap="round"/>
<path d="M23.5369 18.9219H25.0753" stroke="#959DB3" stroke-width="2.75261" stroke-linecap="round"/>
</svg>
