 <svg width="18" height="17" viewBox="0 0 18 17" fill="none"
                        xmlns="http://www.w3.org/2000/svg">
                        <path
                            d="M3.08936 3C3.08936 1.895 3.94703 1 5.00423 1C7.83736 1 8.83501 5 8.83501 5C8.83501 5 6.06247 5 5.00423 5C3.94598 5 3.08936 4.105 3.08936 3Z"
                            stroke="#FF71A0" strokeMiterlimit="10"
                            strokeLinecap="round" strokeLinejoin="round" />
                        <path
                            d="M14.5806 3C14.5806 1.895 13.7229 1 12.6657 1C9.83262 1 8.83496 5 8.83496 5C8.83496 5 11.6075 5 12.6657 5C13.724 5 14.5806 4.105 14.5806 3Z"
                            stroke="#FF71A0" strokeMiterlimit="10"
                            strokeLinecap="round" strokeLinejoin="round" />
                        <path d="M14.5807 10V16H3.08936V10" stroke="#FF71A0"
                            strokeMiterlimit="10" strokeLinecap="round"
                            strokeLinejoin="round" />
                        <path d="M16.67 5H1V8H16.67V5Z" stroke="#FF71A0"
                            strokeMiterlimit="10" strokeLinecap="round"
                            strokeLinejoin="round" />
                    </svg>