<svg width="15" height="13" viewBox="0 0 15 13" fill="none" xmlns="http://www.w3.org/2000/svg">
<path d="M1.23697 13H1.17297C0.850698 12.9853 0.547015 12.8449 0.326966 12.609C0.217958 12.4936 0.132927 12.3577 0.0767965 12.2093C0.0206659 12.0608 -0.00544846 11.9026 -3.41188e-05 11.744C0.0426775 10.6192 0.16431 9.49877 0.363966 8.391C0.520626 6.94072 1.09173 5.56626 2.00897 4.432C3.91197 2.553 7.67297 2.1 8.09997 2.051H9.46997V1.239C9.47234 0.91453 9.60304 0.604188 9.83351 0.37578C10.064 0.147371 10.3755 0.0194628 10.7 0.02L10.68 0C10.8483 0.000160999 11.0148 0.0344503 11.1695 0.100795C11.3242 0.167141 11.4638 0.264164 11.58 0.386L14.667 3.636C14.7774 3.75237 14.8636 3.88953 14.9205 4.03951C14.9775 4.1895 15.004 4.3493 14.9986 4.50964C14.9932 4.66997 14.956 4.82764 14.8891 4.97345C14.8222 5.11927 14.727 5.25032 14.609 5.359L11.523 8.2C11.3453 8.35725 11.1264 8.46053 10.8921 8.49773C10.6577 8.53493 10.4176 8.50449 10.2 8.41C9.98397 8.31724 9.79934 8.1641 9.66825 7.96898C9.53716 7.77385 9.46519 7.54503 9.46097 7.31V6.906H8.23097C7.28106 6.83253 6.32882 7.01502 5.47337 7.43448C4.61793 7.85393 3.89055 8.49502 3.36697 9.291C2.88374 10.0724 2.57661 10.9498 2.46697 11.862C2.44326 12.1718 2.30333 12.4613 2.07524 12.6723C1.84714 12.8834 1.54772 13.0004 1.23697 13V13ZM8.23097 3.27C8.19297 3.27 4.50797 3.695 2.88097 5.301C2.11397 6.059 1.70697 7.786 1.50097 9.101C1.36433 9.99057 1.27587 10.8869 1.23597 11.786C1.36085 10.7144 1.7112 9.68145 2.26397 8.755C2.77812 7.89368 3.4984 7.17374 4.35997 6.66C5.5408 5.99928 6.87838 5.67033 8.23097 5.708H10.7V7.333L13.786 4.489L10.7 1.239V3.27H8.23097Z" fill="#008000"/>
</svg>
