<svg width="13" height="13" viewBox="0 0 13 13" fill="none" xmlns="http://www.w3.org/2000/svg">
<rect x="0.5" y="0.5" width="12" height="12" stroke="#31ADFF"/>
<path d="M9.5625 6H3.4375C3.19588 6 3 6.33579 3 6.75C3 7.16421 3.19588 7.5 3.4375 7.5H9.5625C9.80412 7.5 10 7.16421 10 6.75C10 6.33579 9.80412 6 9.5625 6Z" fill="#31ADFF"/>
<path d="M5.75 3.6875V9.8125C5.75 10.0541 6.08579 10.25 6.5 10.25C6.91421 10.25 7.25 10.0541 7.25 9.8125V3.6875C7.25 3.44588 6.91421 3.25 6.5 3.25C6.08579 3.25 5.75 3.44588 5.75 3.6875Z" fill="#31ADFF"/>
</svg>
