<svg width="15" height="15" viewBox="0 0 15 15" fill="none" xmlns="http://www.w3.org/2000/svg">
<g id="Share-2">
<path id="Shape" d="M12.232 14.9991C11.6981 14.9999 11.175 14.8487 10.724 14.5631C10.2453 14.2646 9.87389 13.8216 9.66356 13.2981C9.45324 12.7746 9.41486 12.1978 9.55397 11.6511L4.90597 9.38807C4.64404 9.70231 4.31598 9.95487 3.9452 10.1277C3.57442 10.3006 3.17006 10.3895 2.76097 10.3881C2.45498 10.3883 2.15099 10.3386 1.86097 10.2411C1.32859 10.0722 0.862662 9.74037 0.528928 9.2925C0.195195 8.84463 0.0104948 8.30329 0.00088338 7.74483C-0.00872803 7.18638 0.157234 6.639 0.475358 6.17991C0.793483 5.72082 1.24771 5.37319 1.77397 5.18607C2.30243 4.98864 2.87801 4.95449 3.42611 5.08804C3.97421 5.22158 4.46956 5.51667 4.84797 5.93507L9.58097 3.43407C9.3948 2.79131 9.45686 2.10208 9.75486 1.50292C10.0529 0.903764 10.5651 0.438412 11.19 0.199068C11.5224 0.0664618 11.8771 -0.00142145 12.235 -0.000932342C12.7289 -0.00372193 13.2146 0.125517 13.6418 0.373414C14.0691 0.621311 14.4223 0.97886 14.665 1.40907C14.9907 1.99301 15.0832 2.67864 14.9238 3.328C14.7644 3.97737 14.365 4.54228 13.806 4.90907C13.2432 5.28613 12.5634 5.44769 11.8911 5.36412C11.2189 5.28055 10.5993 4.95745 10.146 4.45407L5.41097 6.94307C5.54875 7.3985 5.55672 7.88335 5.43397 8.34307L10.082 10.6071C10.3441 10.2926 10.6725 10.0399 11.0437 9.86699C11.4148 9.69412 11.8195 9.60536 12.229 9.60707V9.61507C12.7983 9.61097 13.355 9.78311 13.8226 10.1079C14.2903 10.4327 14.646 10.8941 14.841 11.4291C15.0281 11.9611 15.0405 12.5389 14.8765 13.0785C14.7125 13.6181 14.3805 14.0912 13.929 14.4291C13.4401 14.798 12.8445 14.9981 12.232 14.9991ZM12.232 10.7631C11.9294 10.7703 11.6357 10.8668 11.3876 11.0402C11.1396 11.2137 10.9482 11.4564 10.8375 11.7382C10.7268 12.0199 10.7017 12.328 10.7653 12.6239C10.8289 12.9198 10.9785 13.1904 11.1952 13.4017C11.4119 13.613 11.6861 13.7557 11.9835 13.8119C12.2809 13.8681 12.5883 13.8353 12.8672 13.7175C13.146 13.5998 13.3839 13.4024 13.5511 13.1501C13.7183 12.8978 13.8073 12.6017 13.807 12.2991C13.8007 11.8864 13.631 11.493 13.3353 11.2051C13.0395 10.9172 12.6417 10.7583 12.229 10.7631H12.232ZM2.75897 6.15107C2.55377 6.14583 2.34959 6.18173 2.15847 6.25665C1.96736 6.33156 1.79317 6.44397 1.64618 6.58726C1.49919 6.73055 1.38238 6.90181 1.30261 7.09095C1.22285 7.2801 1.18176 7.48329 1.18176 7.68857C1.18176 7.89384 1.22285 8.09704 1.30261 8.28618C1.38238 8.47532 1.49919 8.64659 1.64618 8.78988C1.79317 8.93316 1.96736 9.04558 2.15847 9.12049C2.34959 9.1954 2.55377 9.2313 2.75897 9.22607C2.96418 9.2313 3.16836 9.1954 3.35947 9.12049C3.55059 9.04558 3.72477 8.93316 3.87176 8.78988C4.01875 8.64659 4.13557 8.47532 4.21533 8.28618C4.29509 8.09704 4.33619 7.89384 4.33619 7.68857C4.33619 7.48329 4.29509 7.2801 4.21533 7.09095C4.13557 6.90181 4.01875 6.73055 3.87176 6.58726C3.72477 6.44397 3.55059 6.33156 3.35947 6.25665C3.16836 6.18173 2.96418 6.14583 2.75897 6.15107ZM12.229 1.15107C11.8161 1.14626 11.4181 1.30534 11.1223 1.59345C10.8265 1.88156 10.657 2.27519 10.651 2.68807C10.6613 3.09983 10.8322 3.49125 11.1271 3.77882C11.422 4.06638 11.8176 4.22733 12.2295 4.22733C12.6414 4.22733 13.037 4.06638 13.3319 3.77882C13.6268 3.49125 13.7976 3.09983 13.808 2.68807C13.8009 2.27572 13.6308 1.88296 13.3349 1.59568C13.039 1.3084 12.6414 1.14998 12.229 1.15507V1.15107Z" fill="#959DB3"/>
</g>
</svg>
