<svg width="12" height="12" viewBox="0 0 12 12" fill="none" xmlns="http://www.w3.org/2000/svg">
<path d="M0.973082 12C0.798702 12 0.627462 11.9565 0.476938 11.874C0.3324 11.7951 0.21236 11.6822 0.128706 11.5464C0.0450517 11.4106 0.000685347 11.2567 0 11.1L0 0.899527C0.000872123 0.742331 0.0456563 0.58809 0.129895 0.452157C0.214133 0.316224 0.334888 0.203341 0.480139 0.124744C0.625536 0.0456536 0.790109 0.00275394 0.958196 0.000128235C1.12628 -0.00249747 1.29229 0.0352381 1.44042 0.109744L11.4985 5.20996C11.6502 5.28661 11.7768 5.40028 11.8651 5.53893C11.9534 5.67758 12 5.83603 12 5.99749C12 6.15896 11.9534 6.31741 11.8651 6.45606C11.7768 6.5947 11.6502 6.70838 11.4985 6.78503L1.44042 11.8897C1.29677 11.9622 1.13619 12 0.973082 12ZM0.973082 6.59977V11.1L11.0312 5.99974L0.973082 0.899527V5.69973H5.1911C5.31844 5.69973 5.44057 5.74714 5.53061 5.83154C5.62066 5.91593 5.67124 6.0304 5.67124 6.14975C5.67124 6.2691 5.62066 6.38357 5.53061 6.46796C5.44057 6.55236 5.31844 6.59977 5.1911 6.59977H0.973082Z" fill="#1A6634"/>
</svg>
