<svg width="17" height="20" viewBox="0 0 17 20" fill="none" xmlns="http://www.w3.org/2000/svg">
<path d="M13.8 6.52112H10.973V8.20812H13.8C14.636 8.20812 15.3 8.63012 15.3 9.01712V16.5041C15.3 16.8911 14.638 17.3131 13.8 17.3131H3.17C2.334 17.3131 1.67 16.8911 1.67 16.5041V9.02112C1.67 8.63412 2.332 8.21212 3.17 8.21212H5.992V6.52112H3.17C1.393 6.52112 0 7.61112 0 9.02112V16.5081C0 17.9141 1.393 19.0081 3.17 19.0081H13.83C15.607 19.0081 17 17.9181 17 16.5081V9.02112C16.965 7.61512 15.572 6.52112 13.8 6.52112Z" fill="#1A6634"/>
<path d="M6.00412 4.2181C6.11558 4.21987 6.22624 4.19898 6.32937 4.15669C6.43251 4.1144 6.52599 4.0516 6.60412 3.9721L7.65912 2.9171V11.4941C7.65523 11.6073 7.67416 11.7202 7.71479 11.8259C7.75543 11.9316 7.81693 12.0281 7.89564 12.1096C7.97435 12.1911 8.06866 12.2558 8.17294 12.3001C8.27722 12.3443 8.38934 12.3672 8.50262 12.3672C8.6159 12.3672 8.72803 12.3443 8.83231 12.3001C8.93659 12.2558 9.03089 12.1911 9.1096 12.1096C9.18832 12.0281 9.24982 11.9316 9.29045 11.8259C9.33109 11.7202 9.35002 11.6073 9.34612 11.4941V2.8471L10.4711 3.9721C10.6303 4.13112 10.8461 4.22044 11.0711 4.22044C11.2961 4.22044 11.5119 4.13112 11.6711 3.9721C11.825 3.81022 11.9107 3.59543 11.9107 3.3721C11.9107 3.14878 11.825 2.93399 11.6711 2.7721L9.13212 0.246103C9.05399 0.166603 8.96051 0.103805 8.85737 0.0615177C8.75424 0.0192308 8.64358 -0.00166316 8.53212 0.000103359V0.000103359C8.42067 -0.00166316 8.31001 0.0192308 8.20687 0.0615177C8.10373 0.103805 8.01026 0.166603 7.93212 0.246103L5.40612 2.7771C5.25228 2.93899 5.1665 3.15378 5.1665 3.3771C5.1665 3.60043 5.25228 3.81522 5.40612 3.9771C5.56563 4.13536 5.78143 4.22383 6.00612 4.2231L6.00412 4.2181Z" fill="#1A6634"/>
</svg>
