<svg width="18" height="16" viewBox="0 0 18 16" fill="none" xmlns="http://www.w3.org/2000/svg">
<path d="M8.50872 10.1081C6.18572 10.1081 4.29672 7.84106 4.29672 5.05406C4.29672 2.26706 6.18572 6.10352e-05 8.50872 6.10352e-05C10.8317 6.10352e-05 12.7197 2.26706 12.7197 5.05406C12.7197 7.84106 10.8307 10.1081 8.50872 10.1081ZM8.50872 1.26306C8.09914 1.2734 7.69755 1.37867 7.33558 1.5706C6.9736 1.76252 6.66111 2.03585 6.42272 2.36906C5.84629 3.14412 5.54282 4.08829 5.55972 5.05406C5.54282 6.01983 5.84629 6.964 6.42272 7.73906C6.66122 8.07209 6.97375 8.34523 7.33572 8.53697C7.69769 8.72872 8.09923 8.83384 8.50872 8.84406C8.91856 8.83414 9.32049 8.72917 9.68283 8.53741C10.0452 8.34566 10.358 8.07236 10.5967 7.73906C11.1721 6.96362 11.4745 6.01948 11.4567 5.05406C11.4745 4.08864 11.1721 3.1445 10.5967 2.36906C10.3581 2.03558 10.0453 1.76209 9.68298 1.57015C9.32063 1.37822 8.91864 1.27309 8.50872 1.26306Z" fill="#1A6634"/>
<path d="M12.3027 9.68407C12.2204 9.67637 12.1374 9.68499 12.0585 9.70943C11.9795 9.73388 11.9061 9.77368 11.8426 9.82655C11.779 9.87941 11.7266 9.9443 11.6881 10.0175C11.6497 10.0907 11.6261 10.1707 11.6187 10.2531C11.6011 10.4194 11.6501 10.586 11.7551 10.7163C11.8601 10.8466 12.0124 10.9299 12.1787 10.9481C13.1203 11.0666 13.991 11.5101 14.6406 12.202C15.2901 12.894 15.6778 13.7909 15.7367 14.7381H1.28173C1.34746 13.7936 1.73738 12.9009 2.38552 12.2108C3.03367 11.5208 3.90027 11.0758 4.83873 10.9511C5.00506 10.9329 5.15741 10.8496 5.26239 10.7193C5.36737 10.589 5.4164 10.4224 5.39873 10.2561C5.3917 10.1735 5.36839 10.0931 5.33013 10.0196C5.29188 9.94602 5.23945 9.88079 5.17587 9.82761C5.11228 9.77444 5.03879 9.73438 4.95965 9.70974C4.88051 9.6851 4.79727 9.67638 4.71473 9.68407C3.35775 9.86305 2.1186 10.5485 1.24581 11.6028C0.373019 12.6572 -0.0688817 14.0025 0.00873418 15.3691C0.00807494 15.4514 0.0236408 15.5331 0.0545429 15.6094C0.0854451 15.6857 0.131078 15.7552 0.188837 15.8139C0.246595 15.8726 0.315348 15.9193 0.391169 15.9514C0.46699 15.9835 0.548395 16.0004 0.630734 16.0011H16.3867C16.4691 16.0004 16.5505 15.9835 16.6263 15.9514C16.7021 15.9193 16.7709 15.8726 16.8286 15.8139C16.8864 15.7552 16.932 15.6857 16.9629 15.6094C16.9938 15.5331 17.0094 15.4514 17.0087 15.3691C17.0863 14.0025 16.6444 12.6572 15.7717 11.6028C14.8989 10.5485 13.6597 9.86305 12.3027 9.68407Z" fill="#1A6634"/>
</svg>
