<svg width="15" height="15" viewBox="0 0 15 15" fill="none" xmlns="http://www.w3.org/2000/svg">
<g id="Server-2">
<path id="Shape" d="M4.04429 5.56998C3.6789 5.57018 3.32167 5.46199 3.01778 5.25912C2.71388 5.05624 2.47699 4.76779 2.33708 4.43026C2.19716 4.09272 2.1605 3.72127 2.23173 3.36289C2.30297 3.00451 2.4789 2.67532 2.73726 2.41695C2.99563 2.15858 3.32483 1.98265 3.6832 1.91142C4.04158 1.84018 4.41303 1.87684 4.75057 2.01676C5.0881 2.15668 5.37656 2.39357 5.57943 2.69746C5.78231 3.00135 5.89049 3.35859 5.89029 3.72398C5.8895 4.21332 5.69475 4.6824 5.34873 5.02842C5.00271 5.37444 4.53364 5.56918 4.04429 5.56998ZM4.04429 2.98498C3.89813 2.98498 3.75525 3.02832 3.63372 3.10952C3.5122 3.19072 3.41748 3.30614 3.36154 3.44117C3.30561 3.57621 3.29097 3.7248 3.31949 3.86815C3.348 4.0115 3.41839 4.14318 3.52174 4.24653C3.62509 4.34988 3.75677 4.42026 3.90012 4.44878C4.04347 4.47729 4.19206 4.46266 4.32709 4.40672C4.46213 4.35079 4.57754 4.25607 4.65875 4.13454C4.73995 4.01302 4.78329 3.87014 4.78329 3.72398C4.78303 3.52806 4.70508 3.34025 4.56655 3.20172C4.42802 3.06319 4.2402 2.98524 4.04429 2.98498Z" fill="white"/>
<path id="Shape_2" d="M13.6152 7.04839H1.82521C1.53188 7.0476 1.25082 6.93051 1.04368 6.72281C0.836537 6.5151 0.720214 6.23373 0.720215 5.94039L0.720215 1.50839C0.720214 1.21505 0.836537 0.933679 1.04368 0.725975C1.25082 0.518271 1.53188 0.401185 1.82521 0.400391L13.6152 0.400391C13.9086 0.401185 14.1896 0.518271 14.3968 0.725975C14.6039 0.933679 14.7202 1.21505 14.7202 1.50839V5.94039C14.7202 6.23373 14.6039 6.5151 14.3968 6.72281C14.1896 6.93051 13.9086 7.0476 13.6152 7.04839ZM1.82521 1.50839V5.94039H13.6152V1.50839H1.82521Z" fill="white"/>
<path id="Shape_3" d="M4.04429 12.9225C3.6789 12.9227 3.32167 12.8145 3.01778 12.6117C2.71388 12.4088 2.47699 12.1203 2.33708 11.7828C2.19716 11.4453 2.1605 11.0738 2.23173 10.7154C2.30297 10.3571 2.4789 10.0279 2.73726 9.76949C2.99563 9.51112 3.32483 9.33519 3.6832 9.26396C4.04158 9.19272 4.41303 9.22938 4.75057 9.3693C5.0881 9.50922 5.37656 9.74611 5.57943 10.05C5.78231 10.3539 5.89049 10.7111 5.89029 11.0765C5.8895 11.5659 5.69475 12.0349 5.34873 12.381C5.00271 12.727 4.53364 12.9217 4.04429 12.9225ZM4.04429 10.3375C3.89813 10.3375 3.75525 10.3809 3.63372 10.4621C3.5122 10.5433 3.41748 10.6587 3.36154 10.7937C3.30561 10.9287 3.29097 11.0773 3.31949 11.2207C3.348 11.364 3.41839 11.4957 3.52174 11.5991C3.62509 11.7024 3.75677 11.7728 3.90012 11.8013C4.04347 11.8298 4.19206 11.8152 4.32709 11.7593C4.46213 11.7033 4.57754 11.6086 4.65875 11.4871C4.73995 11.3656 4.78329 11.2227 4.78329 11.0765C4.78303 10.8806 4.70508 10.6928 4.56655 10.5543C4.42802 10.4157 4.2402 10.3378 4.04429 10.3375Z" fill="white"/>
<path id="Shape_4" d="M13.6152 14.4H1.82521C1.53188 14.3992 1.25082 14.2821 1.04368 14.0744C0.836537 13.8667 0.720214 13.5853 0.720215 13.292L0.720215 8.85995C0.720214 8.56661 0.836537 8.28524 1.04368 8.07754C1.25082 7.86983 1.53188 7.75275 1.82521 7.75195H13.6152C13.9086 7.75275 14.1896 7.86983 14.3968 8.07754C14.6039 8.28524 14.7202 8.56661 14.7202 8.85995V13.292C14.7202 13.5853 14.6039 13.8667 14.3968 14.0744C14.1896 14.2821 13.9086 14.3992 13.6152 14.4ZM1.82521 8.85995V13.292H13.6152V8.85995H1.82521Z" fill="white"/>
</g>
</svg>
