<svg width="21" height="14" viewBox="0 0 21 14" fill="none" xmlns="http://www.w3.org/2000/svg">
<path d="M11.002 13.5C5.56404 13.5 1.30604 7.647 1.12504 7.4C1.0415 7.28335 0.996582 7.14348 0.996582 7C0.996582 6.85652 1.0415 6.71665 1.12504 6.6C1.30604 6.353 5.56404 0.5 11.002 0.5C16.44 0.5 20.702 6.353 20.874 6.6C20.956 6.71597 21 6.85449 21 6.9965C21 7.13851 20.956 7.27703 20.874 7.393C20.698 7.647 16.44 13.5 11.002 13.5ZM2.50204 7C3.52904 8.267 7.00204 12.155 11.002 12.155C15.002 12.155 18.479 8.271 19.502 7C18.475 5.729 15.002 1.845 11.002 1.845C7.00204 1.845 3.52504 5.727 2.50104 7H2.50204Z" fill="white"/>
<path d="M11.0021 10.967C10.2248 10.9331 9.47452 10.6716 8.84454 10.215C8.21456 9.75833 7.73262 9.12667 7.45857 8.39846C7.18452 7.67024 7.13044 6.87757 7.30305 6.11888C7.47566 5.36019 7.86735 4.66893 8.42947 4.13095C8.99159 3.59298 9.69939 3.23199 10.4649 3.09284C11.2304 2.95368 12.02 3.04248 12.7355 3.34822C13.451 3.65395 14.0609 4.16315 14.4894 4.81256C14.918 5.46196 15.1464 6.22297 15.1461 7.00104C15.1201 8.07571 14.6695 9.09633 13.8929 9.8396C13.1163 10.5829 12.0769 10.9882 11.0021 10.967ZM11.0021 4.35204C10.4836 4.37419 9.98311 4.54818 9.56271 4.85241C9.1423 5.15664 8.82056 5.57769 8.63745 6.06325C8.45433 6.5488 8.41792 7.07746 8.53274 7.58354C8.64756 8.08961 8.90856 8.55079 9.28329 8.90978C9.65802 9.26877 10.13 9.50974 10.6405 9.60275C11.151 9.69576 11.6776 9.63671 12.1549 9.43294C12.6322 9.22916 13.039 8.88965 13.3249 8.45658C13.6109 8.02351 13.7632 7.51597 13.7631 6.99704C13.746 6.2808 13.446 5.60048 12.9285 5.10497C12.4111 4.60945 11.7184 4.33908 11.0021 4.35304V4.35204Z" fill="white"/>
</svg>
