<svg width="19" height="19" viewBox="0 0 19 19" fill="none" xmlns="http://www.w3.org/2000/svg">
<path d="M6.61518 8.03271H1.41684C1.04106 8.03206 0.68087 7.88242 0.415266 7.61661C0.149662 7.35079 0.000322837 6.9905 0 6.61474L0 1.41675C0.000645868 1.0412 0.150127 0.681221 0.415697 0.415669C0.681266 0.150117 1.04127 0.000645825 1.41684 0L6.61518 0C6.99075 0.000645825 7.35076 0.150117 7.61633 0.415669C7.8819 0.681221 8.03138 1.0412 8.03202 1.41675V6.61474C8.0317 6.9905 7.88236 7.35079 7.61676 7.61661C7.35115 7.88242 6.99096 8.03206 6.61518 8.03271V8.03271ZM1.41684 1.41675V6.61474H6.61518V1.41675H1.41684Z" fill="#959DB3"/>
<path d="M16.9033 8.03271H11.7049C11.3291 8.03206 10.969 7.88242 10.7034 7.61661C10.4377 7.35079 10.2884 6.9905 10.2881 6.61474V1.41675C10.2887 1.0412 10.4382 0.681221 10.7038 0.415669C10.9694 0.150117 11.3294 0.000645825 11.7049 0L16.9033 0C17.2788 0.000645825 17.6388 0.150117 17.9044 0.415669C18.17 0.681221 18.3195 1.0412 18.3201 1.41675V6.61474C18.3198 6.9905 18.1704 7.35079 17.9048 7.61661C17.6392 7.88242 17.2791 8.03206 16.9033 8.03271V8.03271ZM11.7049 1.41675V6.61474H16.9033V1.41675H11.7049Z" fill="#959DB3"/>
<path d="M6.61518 18.3196H1.41684C1.04106 18.3189 0.68087 18.1693 0.415266 17.9035C0.149662 17.6377 0.000322837 17.2774 0 16.9016L0 11.7036C0.000645868 11.3281 0.150127 10.9681 0.415697 10.7025C0.681266 10.437 1.04127 10.2875 1.41684 10.2869H6.61518C6.99075 10.2875 7.35076 10.437 7.61633 10.7025C7.8819 10.9681 8.03138 11.3281 8.03202 11.7036V16.9016C8.0317 17.2774 7.88236 17.6377 7.61676 17.9035C7.35115 18.1693 6.99096 18.3189 6.61518 18.3196V18.3196ZM1.41684 11.7036V16.9016H6.61518V11.7036H1.41684Z" fill="#959DB3"/>
<path d="M16.9023 18.3196H11.704C11.3282 18.3189 10.968 18.1693 10.7024 17.9035C10.4368 17.6377 10.2874 17.2774 10.2871 16.9016V11.7036C10.2878 11.3281 10.4372 10.9681 10.7028 10.7025C10.9684 10.437 11.3284 10.2875 11.704 10.2869H16.9023C17.2779 10.2875 17.6379 10.437 17.9034 10.7025C18.169 10.9681 18.3185 11.3281 18.3191 11.7036V16.9016C18.3188 17.2774 18.1695 17.6377 17.9039 17.9035C17.6383 18.1693 17.2781 18.3189 16.9023 18.3196V18.3196ZM11.704 11.7036V16.9016H16.9023V11.7036H11.704Z" fill="#959DB3"/>
</svg>
