<svg width="10" height="10" viewBox="0 0 10 10" fill="none" xmlns="http://www.w3.org/2000/svg">
<path d="M8.9089 9.82496L4.99954 5.91551L1.09018 9.82496C0.9687 9.94062 0.806287 10.0034 0.638603 9.99938C0.470919 9.99539 0.31165 9.92505 0.195795 9.80375C0.0745042 9.6879 0.0041629 9.52862 0.000178791 9.36094C-0.00380532 9.19325 0.0589336 9.03083 0.174586 8.90934L4.08394 4.99989L0.174586 1.09044C0.117284 1.03028 0.0723586 0.959433 0.0424454 0.881924C0.0125322 0.804416 -0.00177628 0.72175 0.000255085 0.638694C0.00228645 0.555638 0.0206806 0.47386 0.0543472 0.397906C0.0880138 0.321953 0.136308 0.253311 0.196482 0.196029C0.253805 0.135895 0.322381 0.0876558 0.398355 0.0540428C0.474329 0.0204298 0.55616 0.00215164 0.639214 0.000178273C0.722267 -0.00179509 0.804953 0.0126317 0.882437 0.0425985C0.959922 0.0725653 1.03068 0.117475 1.0908 0.174818L5.00015 4.08427L8.90951 0.174818C9.03099 0.0591634 9.19341 -0.00357705 9.36109 0.000407159C9.52878 0.00439137 9.68804 0.0747343 9.8039 0.196029C9.92519 0.311886 9.99553 0.471159 9.99952 0.638847C10.0035 0.806535 9.94084 0.968952 9.82518 1.09044L5.91583 4.99989L9.82518 8.90934C9.88253 8.96946 9.92744 9.0403 9.9574 9.11778C9.98737 9.19527 10.0018 9.27788 9.99982 9.36094C9.99785 9.44399 9.97949 9.52583 9.94588 9.6018C9.91227 9.67778 9.86403 9.74643 9.8039 9.80375C9.74283 9.8656 9.67017 9.91473 9.59005 9.94841C9.50993 9.98209 9.42397 9.99963 9.33706 9.99999C9.25768 10.0005 9.17899 9.98531 9.10551 9.95528C9.03203 9.92524 8.96517 9.88095 8.9089 9.82496Z" fill="#C0392B"/>
</svg>
