<svg width="17" height="20" viewBox="0 0 17 20" fill="none" xmlns="http://www.w3.org/2000/svg">
<path d="M13.8 7.01709H10.973V8.70409H13.8C14.636 8.70409 15.3 9.12609 15.3 9.51309V17.0001C15.3 17.3871 14.638 17.8091 13.8 17.8091H3.17C2.334 17.8091 1.67 17.3871 1.67 17.0001V9.51709C1.67 9.13009 2.332 8.70809 3.17 8.70809H5.992V7.01709H3.17C1.393 7.01709 0 8.10709 0 9.51709V17.0041C0 18.4101 1.393 19.5041 3.17 19.5041H13.83C15.607 19.5041 17 18.4141 17 17.0041V9.51709C16.965 8.11109 15.572 7.01709 13.8 7.01709Z" fill="#959DB3"/>
<path d="M6.00388 4.7142C6.11534 4.71596 6.22599 4.69507 6.32913 4.65278C6.43227 4.6105 6.52574 4.5477 6.60388 4.4682L7.65888 3.4132V11.9902C7.65498 12.1034 7.67391 12.2163 7.71455 12.322C7.75518 12.4277 7.81669 12.5242 7.8954 12.6057C7.97411 12.6872 8.06842 12.7519 8.1727 12.7962C8.27698 12.8404 8.3891 12.8632 8.50238 12.8632C8.61566 12.8632 8.72778 12.8404 8.83206 12.7962C8.93634 12.7519 9.03065 12.6872 9.10936 12.6057C9.18807 12.5242 9.24958 12.4277 9.29021 12.322C9.33085 12.2163 9.34978 12.1034 9.34588 11.9902V3.3432L10.4709 4.4682C10.6301 4.62721 10.8459 4.71653 11.0709 4.71653C11.2959 4.71653 11.5117 4.62721 11.6709 4.4682C11.8247 4.30631 11.9105 4.09152 11.9105 3.8682C11.9105 3.64487 11.8247 3.43008 11.6709 3.2682L9.13188 0.742197C9.05374 0.662697 8.96027 0.599898 8.85713 0.557611C8.75399 0.515325 8.64334 0.494431 8.53188 0.496197C8.42042 0.494431 8.30977 0.515325 8.20663 0.557611C8.10349 0.599898 8.01002 0.662697 7.93188 0.742197L5.40588 3.2732C5.25204 3.43508 5.16626 3.64987 5.16626 3.8732C5.16626 4.09652 5.25204 4.31131 5.40588 4.4732C5.56539 4.63145 5.78119 4.71993 6.00588 4.7192L6.00388 4.7142Z" fill="#959DB3"/>
</svg>
