<svg width="18" height="16" viewBox="0 0 18 16" fill="none" xmlns="http://www.w3.org/2000/svg">
<path d="M2.05967 15.9993C1.81692 15.9993 1.57854 15.9413 1.369 15.8313C1.1678 15.7261 1.0007 15.5755 0.884244 15.3945C0.767793 15.2135 0.706032 15.0083 0.705078 14.7993L0.705078 1.19932C0.706292 0.989732 0.768634 0.784086 0.885899 0.60285C1.00316 0.421615 1.17126 0.27111 1.37346 0.166319C1.57586 0.0608688 1.80496 0.00367176 2.03894 0.000170973C2.27293 -0.00332982 2.50402 0.0469822 2.71023 0.146319L16.7117 6.94632C16.9228 7.04851 17.0991 7.20007 17.222 7.38493C17.3449 7.56978 17.4098 7.78105 17.4098 7.99632C17.4098 8.21159 17.3449 8.42286 17.222 8.60771C17.0991 8.79256 16.9228 8.94412 16.7117 9.04632L2.71023 15.8523C2.51026 15.9489 2.28673 15.9994 2.05967 15.9993ZM2.05967 8.79932V14.7993L16.0612 7.99932L2.05967 1.19932V7.59932H7.93141C8.10867 7.59932 8.27868 7.66253 8.40402 7.77505C8.52937 7.88758 8.59979 8.04019 8.59979 8.19932C8.59979 8.35845 8.52937 8.51106 8.40402 8.62358C8.27868 8.7361 8.10867 8.79932 7.93141 8.79932H2.05967Z" fill="#F67111"/>
</svg>
