<svg width="15" height="15" viewBox="0 0 15 15" fill="none" xmlns="http://www.w3.org/2000/svg">
<path d="M5.416 6.577H1.16C0.852338 6.57647 0.557444 6.45395 0.339988 6.23631C0.122531 6.01866 0.000264314 5.72366 0 5.416L0 1.16C0.000528787 0.852511 0.122913 0.557768 0.34034 0.34034C0.557768 0.122913 0.852511 0.000528787 1.16 0L5.416 0C5.72349 0.000528787 6.01823 0.122913 6.23566 0.34034C6.45309 0.557768 6.57547 0.852511 6.576 1.16V5.416C6.57574 5.72366 6.45347 6.01866 6.23601 6.23631C6.01856 6.45395 5.72366 6.57647 5.416 6.577ZM1.16 1.16V5.416H5.416V1.16H1.16Z" fill="white"/>
<path d="M13.839 6.577H9.58297C9.27531 6.57647 8.98042 6.45395 8.76296 6.23631C8.5455 6.01866 8.42324 5.72366 8.42297 5.416V1.16C8.4235 0.852511 8.54589 0.557768 8.76331 0.34034C8.98074 0.122913 9.27548 0.000528787 9.58297 0L13.839 0C14.1465 0.000528787 14.4412 0.122913 14.6586 0.34034C14.8761 0.557768 14.9984 0.852511 14.999 1.16V5.416C14.9987 5.72366 14.8764 6.01866 14.659 6.23631C14.4415 6.45395 14.1466 6.57647 13.839 6.577ZM9.58297 1.16V5.416H13.839V1.16H9.58297Z" fill="white"/>
<path d="M5.416 15.0001H1.16C0.852338 14.9996 0.557444 14.877 0.339988 14.6594C0.122531 14.4418 0.000264314 14.1468 0 13.8391L0 9.5831C0.000528787 9.27561 0.122913 8.98086 0.34034 8.76344C0.557768 8.54601 0.852511 8.42362 1.16 8.4231H5.416C5.72349 8.42362 6.01823 8.54601 6.23566 8.76344C6.45309 8.98086 6.57547 9.27561 6.576 9.5831V13.8391C6.57574 14.1468 6.45347 14.4418 6.23601 14.6594C6.01856 14.877 5.72366 14.9996 5.416 15.0001ZM1.16 9.5831V13.8391H5.416V9.5831H1.16Z" fill="white"/>
<path d="M13.839 15.0001H9.58297C9.27531 14.9996 8.98042 14.877 8.76296 14.6594C8.5455 14.4418 8.42324 14.1468 8.42297 13.8391V9.5831C8.4235 9.27561 8.54589 8.98086 8.76331 8.76344C8.98074 8.54601 9.27548 8.42362 9.58297 8.4231H13.839C14.1465 8.42362 14.4412 8.54601 14.6586 8.76344C14.8761 8.98086 14.9984 9.27561 14.999 9.5831V13.8391C14.9987 14.1468 14.8764 14.4418 14.659 14.6594C14.4415 14.877 14.1466 14.9996 13.839 15.0001ZM9.58297 9.5831V13.8391H13.839V9.5831H9.58297Z" fill="white"/>
</svg>
