<svg width="14" height="15" viewBox="0 0 14 15" fill="none" xmlns="http://www.w3.org/2000/svg">
<path d="M12.5012 14.8569C12.3741 14.857 12.2519 14.8079 12.1602 14.7199L9.01718 11.5049C8.06101 12.1981 6.91017 12.5712 5.72918 12.5709C4.84767 12.5696 3.97862 12.3627 3.19105 11.9668C2.40347 11.5708 1.71907 10.9967 1.19218 10.2899C0.290941 9.08884 -0.123 7.59147 0.0333378 6.09801C0.189676 4.60454 0.904739 3.22536 2.03518 2.23694C3.0593 1.34965 4.36816 0.859896 5.72318 0.856938C6.50237 0.855909 7.27317 1.0177 7.98618 1.33194C8.72894 1.65848 9.39316 2.14028 9.93418 2.74494C10.9357 3.86486 11.477 5.32198 11.4493 6.82418C11.4217 8.32638 10.8273 9.76261 9.78518 10.8449L12.8672 13.9819V13.9989C12.9561 14.0967 13.0043 14.2247 13.0021 14.3568C12.9999 14.4889 12.9473 14.6152 12.8552 14.7099C12.809 14.7569 12.7539 14.7941 12.6931 14.8193C12.6323 14.8446 12.567 14.8574 12.5012 14.8569ZM5.75918 1.96894C4.50678 1.98476 3.31178 2.49668 2.43631 3.39239C1.56084 4.28811 1.07637 5.4945 1.08918 6.74694C1.07637 7.99938 1.56084 9.20576 2.43631 10.1015C3.31178 10.9972 4.50678 11.5091 5.75918 11.5249C7.01141 11.5089 8.20615 10.9968 9.08141 10.1011C9.95667 9.20544 10.441 7.9992 10.4282 6.74694C10.441 5.49467 9.95667 4.28843 9.08141 3.39274C8.20615 2.49705 7.01141 1.98502 5.75918 1.96894Z" fill="#5A6276"/>
</svg>
