<svg width="16" height="18" viewBox="0 0 16 18" fill="none" xmlns="http://www.w3.org/2000/svg">
<path d="M8.0084 1.99953C9.42878 1.99863 10.8118 2.45438 11.9534 3.29953L10.1364 3.55753C10.0489 3.56364 9.9634 3.58692 9.88488 3.62606C9.80635 3.66519 9.7363 3.71941 9.67873 3.78562C9.62116 3.85183 9.57719 3.92873 9.54934 4.01193C9.52148 4.09513 9.51029 4.183 9.5164 4.27053C9.5225 4.35805 9.54579 4.44352 9.58493 4.52205C9.62406 4.60057 9.67828 4.67062 9.74449 4.7282C9.8107 4.78577 9.8876 4.82974 9.9708 4.85759C10.054 4.88544 10.1419 4.89664 10.2294 4.89053H10.3224L13.4324 4.44653C13.5193 4.43405 13.6029 4.40451 13.6784 4.3596C13.7538 4.31469 13.8197 4.2553 13.8721 4.18485C13.9245 4.11441 13.9625 4.03429 13.9838 3.94911C14.0051 3.86393 14.0094 3.77537 13.9964 3.68853L13.5524 0.579529C13.5276 0.402762 13.4336 0.243086 13.2911 0.135628C13.1485 0.0281696 12.9692 -0.0182686 12.7924 0.0065291C12.6156 0.0313268 12.456 0.125329 12.3485 0.267857C12.241 0.410385 12.1946 0.589762 12.2194 0.766529L12.3964 1.99953C11.0088 1.08677 9.37143 0.628539 7.71159 0.688418C6.05174 0.748298 4.45169 1.32332 3.13343 2.33369C1.81517 3.34407 0.844068 4.7397 0.35487 6.32695C-0.134327 7.9142 -0.117367 9.61436 0.403397 11.1915L1.4824 10.1125C1.26475 9.13642 1.26963 8.12384 1.49667 7.14987C1.7237 6.1759 2.16708 5.26553 2.7939 4.48627C3.42073 3.70701 4.21494 3.07885 5.11762 2.64837C6.02031 2.21788 7.00832 1.99612 8.0084 1.99953Z" fill="#008000"/>
<path d="M15.5913 5.81854L14.5123 6.90254C14.8041 8.23181 14.6818 9.61853 14.1619 10.8762C13.6421 12.1339 12.7495 13.2023 11.6044 13.9376C10.4593 14.673 9.1164 15.04 7.75644 14.9894C6.39647 14.9388 5.08462 14.4729 3.99729 13.6545L5.44129 13.4545C5.52901 13.4423 5.61347 13.413 5.68984 13.3681C5.76622 13.3233 5.83301 13.2638 5.8864 13.1931C5.93979 13.1225 5.97875 13.042 6.00103 12.9563C6.02332 12.8705 6.0285 12.7813 6.01629 12.6935C6.00408 12.6058 5.97471 12.5214 5.92985 12.445C5.885 12.3686 5.82554 12.3018 5.75488 12.2484C5.68421 12.195 5.60372 12.1561 5.518 12.1338C5.43228 12.1115 5.34301 12.1063 5.25529 12.1185L2.14529 12.5625C2.05857 12.575 1.97516 12.6045 1.89985 12.6493C1.82453 12.6941 1.7588 12.7533 1.7064 12.8235C1.65401 12.8937 1.61599 12.9736 1.59452 13.0586C1.57305 13.1435 1.56856 13.2319 1.58129 13.3185L2.02529 16.4285C2.04765 16.5871 2.12636 16.7322 2.24701 16.8375C2.36767 16.9427 2.52219 17.0009 2.68229 17.0015H2.77429C2.86092 16.989 2.94423 16.9596 3.01947 16.9149C3.09471 16.8702 3.1604 16.8111 3.21278 16.7409C3.26516 16.6708 3.30321 16.5911 3.32474 16.5062C3.34628 16.4214 3.35088 16.3332 3.33829 16.2465L3.11129 14.6465C4.46615 15.6904 6.1199 16.2726 7.82991 16.3077C9.53991 16.3428 11.2161 15.8289 12.6127 14.8414C14.0092 13.8539 15.0525 12.4449 15.5894 10.821C16.1264 9.19713 16.1288 7.44389 15.5963 5.81854H15.5913Z" fill="#008000"/>
</svg>
