<svg width="18" height="16" viewBox="0 0 18 16" fill="none" xmlns="http://www.w3.org/2000/svg">
<path d="M8 16.0002C5.87827 16.0002 3.84344 15.1574 2.34315 13.6571C0.842855 12.1568 0 10.122 0 8.00022C0 5.87849 0.842855 3.84366 2.34315 2.34337C3.84344 0.843078 5.87827 0.000222921 8 0.000222921C9.49617 -0.0110479 10.9644 0.405283 12.232 1.20022L11.462 2.43622C10.4249 1.78537 9.2234 1.44432 7.999 1.45322C6.70418 1.45124 5.43787 1.83337 4.36028 2.55125C3.28269 3.26913 2.44224 4.29051 1.94528 5.48616C1.44831 6.68181 1.31715 7.998 1.5684 9.26821C1.81965 10.5384 2.44201 11.7056 3.35674 12.622C4.27148 13.5384 5.43748 14.1629 6.70723 14.4165C7.97697 14.6701 9.2934 14.5413 10.49 14.0465C11.6865 13.5518 12.7094 12.7132 13.4293 11.6369C14.1492 10.5606 14.5336 9.29504 14.534 8.00022C14.5363 7.42261 14.4691 6.84682 14.334 6.28522L15.742 5.93322C15.906 6.60993 15.9879 7.30393 15.986 8.00022C15.986 10.1195 15.1451 12.1522 13.6478 13.6521C12.1505 15.152 10.1193 15.9965 8 16.0002V16.0002Z" fill="#008000"/>
<path d="M7.98485 10.1813C7.79205 10.1812 7.60716 10.1046 7.47085 9.96827L4.04785 6.54527L5.07585 5.51727L7.98485 8.42627L15.9849 0.42627L17.0129 1.45427L8.49885 9.96827C8.36254 10.1046 8.17765 10.1812 7.98485 10.1813Z" fill="#008000"/>
</svg>
