
                <svg width="20" height="20" viewBox="0 0 20 20" fill="none"
                    xmlns="http://www.w3.org/2000/svg">
                    <rect width="20" height="20" fill="white" />
                    <path
                        d="M18.4891 3.80078H1.42242C0.942225 3.80078 0.822337 4.37856 0.822417 4.66745V8.06745C2.55551 8.46745 2.75599 9.40078 2.75599 10.0008C2.86266 11.2274 1.51139 11.8008 0.822417 11.9341C0.800195 12.7563 0.769084 14.5741 0.822417 15.2674C0.87575 15.8541 1.24464 16.0897 1.42242 16.1341H18.1558C18.9024 16.1341 19.0891 15.5563 19.0891 15.2674V11.7341C17.6224 11.6674 17.2891 10.8008 17.2224 10.0008C17.0624 8.72078 18.4002 8.17856 19.0891 8.06745V4.66745C19.0891 4.08078 18.6891 3.84523 18.4891 3.80078Z"
                        stroke="#8DC63F" strokeWidth="0.5" />
                    <path
                        d="M8.77344 7.72559C8.77344 7.29915 8.90853 6.94759 9.17871 6.6709C9.45215 6.39421 9.80208 6.25586 10.2285 6.25586C10.6615 6.25586 11.0114 6.39583 11.2783 6.67578C11.5485 6.95247 11.6836 7.31217 11.6836 7.75488V8.10156C11.6836 8.53125 11.5469 8.88281 11.2734 9.15625C11.0033 9.42643 10.6582 9.56152 10.2383 9.56152C9.8151 9.56152 9.46517 9.42643 9.18848 9.15625C8.91178 8.88281 8.77344 8.51986 8.77344 8.06738V7.72559ZM9.44727 8.10156C9.44727 8.35547 9.51888 8.56543 9.66211 8.73145C9.80534 8.89421 9.9974 8.97559 10.2383 8.97559C10.4694 8.97559 10.6549 8.89583 10.7949 8.73633C10.9382 8.57682 11.0098 8.35872 11.0098 8.08203V7.72559C11.0098 7.47168 10.9398 7.26172 10.7998 7.0957C10.6598 6.92969 10.4694 6.84668 10.2285 6.84668C9.98763 6.84668 9.7972 6.92969 9.65723 7.0957C9.51725 7.26172 9.44727 7.47819 9.44727 7.74512V8.10156ZM12.2354 11.7246C12.2354 11.2982 12.3704 10.9482 12.6406 10.6748C12.9141 10.3981 13.264 10.2598 13.6904 10.2598C14.1169 10.2598 14.4668 10.3965 14.7402 10.6699C15.0137 10.9434 15.1504 11.3063 15.1504 11.7588V12.1055C15.1504 12.5319 15.0137 12.8835 14.7402 13.1602C14.4701 13.4336 14.1234 13.5703 13.7002 13.5703C13.277 13.5703 12.9271 13.4352 12.6504 13.165C12.3737 12.8916 12.2354 12.5286 12.2354 12.0762V11.7246ZM12.9092 12.1055C12.9092 12.3626 12.9808 12.5742 13.124 12.7402C13.2673 12.903 13.4593 12.9844 13.7002 12.9844C13.9346 12.9844 14.1217 12.9046 14.2617 12.7451C14.4017 12.5824 14.4717 12.3626 14.4717 12.0859V11.7246C14.4717 11.4674 14.4001 11.2575 14.2568 11.0947C14.1169 10.932 13.9281 10.8506 13.6904 10.8506C13.4593 10.8506 13.2705 10.932 13.124 11.0947C12.9808 11.2542 12.9092 11.4707 12.9092 11.7441V12.1055ZM10.4434 12.9307L9.93066 12.6084L13.4023 7.05176L13.915 7.37402L10.4434 12.9307Z"
                        fill="#8DC63F" />
                    <path
                        d="M5.95859 3.93437C5.95859 4.04483 5.86905 4.13437 5.75859 4.13437C5.64814 4.13437 5.55859 4.04483 5.55859 3.93437C5.55859 3.82392 5.64814 3.73438 5.75859 3.73438C5.86905 3.73438 5.95859 3.82392 5.95859 3.93437Z"
                        fill="#8DC63F" />
                    <path
                        d="M5.95859 4.57437C5.95859 4.68483 5.86905 4.77437 5.75859 4.77437C5.64814 4.77437 5.55859 4.68483 5.55859 4.57437C5.55859 4.46392 5.64814 4.37437 5.75859 4.37437C5.86905 4.37437 5.95859 4.46392 5.95859 4.57437Z"
                        fill="#8DC63F" />
                    <path
                        d="M5.95859 5.21438C5.95859 5.32483 5.86905 5.41437 5.75859 5.41437C5.64814 5.41437 5.55859 5.32483 5.55859 5.21438C5.55859 5.10392 5.64814 5.01437 5.75859 5.01437C5.86905 5.01437 5.95859 5.10392 5.95859 5.21438Z"
                        fill="#8DC63F" />
                    <path
                        d="M5.95859 5.85437C5.95859 5.96483 5.86905 6.05437 5.75859 6.05437C5.64814 6.05437 5.55859 5.96483 5.55859 5.85437C5.55859 5.74392 5.64814 5.65437 5.75859 5.65437C5.86905 5.65437 5.95859 5.74392 5.95859 5.85437Z"
                        fill="#8DC63F" />
                    <path
                        d="M5.95859 6.49437C5.95859 6.60483 5.86905 6.69438 5.75859 6.69438C5.64814 6.69438 5.55859 6.60483 5.55859 6.49437C5.55859 6.38392 5.64814 6.29437 5.75859 6.29437C5.86905 6.29437 5.95859 6.38392 5.95859 6.49437Z"
                        fill="#8DC63F" />
                    <path
                        d="M5.95859 7.13437C5.95859 7.24483 5.86905 7.33437 5.75859 7.33437C5.64814 7.33437 5.55859 7.24483 5.55859 7.13437C5.55859 7.02392 5.64814 6.93437 5.75859 6.93437C5.86905 6.93437 5.95859 7.02392 5.95859 7.13437Z"
                        fill="#8DC63F" />
                    <path
                        d="M5.95859 7.77437C5.95859 7.88483 5.86905 7.97437 5.75859 7.97437C5.64814 7.97437 5.55859 7.88483 5.55859 7.77437C5.55859 7.66392 5.64814 7.57437 5.75859 7.57437C5.86905 7.57437 5.95859 7.66392 5.95859 7.77437Z"
                        fill="#8DC63F" />
                    <path
                        d="M5.95859 8.41437C5.95859 8.52483 5.86905 8.61438 5.75859 8.61438C5.64814 8.61438 5.55859 8.52483 5.55859 8.41437C5.55859 8.30392 5.64814 8.21438 5.75859 8.21438C5.86905 8.21438 5.95859 8.30392 5.95859 8.41437Z"
                        fill="#8DC63F" />
                    <path
                        d="M5.95859 9.05437C5.95859 9.16483 5.86905 9.25437 5.75859 9.25437C5.64814 9.25437 5.55859 9.16483 5.55859 9.05437C5.55859 8.94392 5.64814 8.85437 5.75859 8.85437C5.86905 8.85437 5.95859 8.94392 5.95859 9.05437Z"
                        fill="#8DC63F" />
                    <path
                        d="M5.95859 9.69438C5.95859 9.80483 5.86905 9.89437 5.75859 9.89437C5.64814 9.89437 5.55859 9.80483 5.55859 9.69438C5.55859 9.58392 5.64814 9.49437 5.75859 9.49437C5.86905 9.49437 5.95859 9.58392 5.95859 9.69438Z"
                        fill="#8DC63F" />
                    <path
                        d="M5.95859 10.3344C5.95859 10.4448 5.86905 10.5344 5.75859 10.5344C5.64814 10.5344 5.55859 10.4448 5.55859 10.3344C5.55859 10.2239 5.64814 10.1344 5.75859 10.1344C5.86905 10.1344 5.95859 10.2239 5.95859 10.3344Z"
                        fill="#8DC63F" />
                    <path
                        d="M5.95859 10.9744C5.95859 11.0848 5.86905 11.1744 5.75859 11.1744C5.64814 11.1744 5.55859 11.0848 5.55859 10.9744C5.55859 10.8639 5.64814 10.7744 5.75859 10.7744C5.86905 10.7744 5.95859 10.8639 5.95859 10.9744Z"
                        fill="#8DC63F" />
                    <path
                        d="M5.95859 11.534C5.95859 11.6444 5.86905 11.734 5.75859 11.734C5.64814 11.734 5.55859 11.6444 5.55859 11.534C5.55859 11.4235 5.64814 11.334 5.75859 11.334C5.86905 11.334 5.95859 11.4235 5.95859 11.534Z"
                        fill="#8DC63F" />
                    <path
                        d="M5.95859 12.174C5.95859 12.2844 5.86905 12.374 5.75859 12.374C5.64814 12.374 5.55859 12.2844 5.55859 12.174C5.55859 12.0635 5.64814 11.974 5.75859 11.974C5.86905 11.974 5.95859 12.0635 5.95859 12.174Z"
                        fill="#8DC63F" />
                    <path
                        d="M5.95859 12.814C5.95859 12.9244 5.86905 13.014 5.75859 13.014C5.64814 13.014 5.55859 12.9244 5.55859 12.814C5.55859 12.7035 5.64814 12.614 5.75859 12.614C5.86905 12.614 5.95859 12.7035 5.95859 12.814Z"
                        fill="#8DC63F" />
                    <path
                        d="M5.95859 13.454C5.95859 13.5644 5.86905 13.654 5.75859 13.654C5.64814 13.654 5.55859 13.5644 5.55859 13.454C5.55859 13.3435 5.64814 13.254 5.75859 13.254C5.86905 13.254 5.95859 13.3435 5.95859 13.454Z"
                        fill="#8DC63F" />
                    <path
                        d="M5.95859 14.094C5.95859 14.2044 5.86905 14.294 5.75859 14.294C5.64814 14.294 5.55859 14.2044 5.55859 14.094C5.55859 13.9835 5.64814 13.894 5.75859 13.894C5.86905 13.894 5.95859 13.9835 5.95859 14.094Z"
                        fill="#8DC63F" />
                    <path
                        d="M5.95859 14.734C5.95859 14.8444 5.86905 14.934 5.75859 14.934C5.64814 14.934 5.55859 14.8444 5.55859 14.734C5.55859 14.6235 5.64814 14.534 5.75859 14.534C5.86905 14.534 5.95859 14.6235 5.95859 14.734Z"
                        fill="#8DC63F" />
                    <path
                        d="M5.95859 15.374C5.95859 15.4844 5.86905 15.574 5.75859 15.574C5.64814 15.574 5.55859 15.4844 5.55859 15.374C5.55859 15.2635 5.64814 15.174 5.75859 15.174C5.86905 15.174 5.95859 15.2635 5.95859 15.374Z"
                        fill="#8DC63F" />
                    <path
                        d="M5.95859 16.014C5.95859 16.1244 5.86905 16.214 5.75859 16.214C5.64814 16.214 5.55859 16.1244 5.55859 16.014C5.55859 15.9035 5.64814 15.814 5.75859 15.814C5.86905 15.814 5.95859 15.9035 5.95859 16.014Z"
                        fill="#8DC63F" />
                </svg>